<?xml version="1.0" standalone="no"?>
<!DOCTYPE svg PUBLIC "-//W3C//DTD SVG 1.1//EN" "http://www.w3.org/Graphics/SVG/1.1/DTD/svg11.dtd">
<svg width="302mm" height="302mm" viewBox="-1 -301 302 302" xmlns="http://www.w3.org/2000/svg" version="1.1">
<title>OpenSCAD Model</title>
<path d="
M 300,-300 L 152.1,-300 L 152.1,-298 L 147.9,-298 L 147.9,-300 L 0,-300
 L 0,-0 L 140,-0 L 140,-2.5 L 145,-2.5 L 145,-20 L 155,-20
 L 155,-2.5 L 160,-2.5 L 160,-0 L 300,-0 z
M 44,-261 L 44,-283 L 17,-283 L 17,-295 L 24,-295 L 24,-286
 L 30,-286 L 30,-295 L 37,-295 L 37,-286 L 44,-286 L 44,-293
 L 118,-293 L 118,-273 L 148,-273 L 148,-292 L 152,-292 L 152,-269
 L 118,-269 L 118,-261 z
M 13.6875,-284.093 L 13.1853,-284.545 L 12.9105,-285.162 L 12.9105,-285.838 L 13.1853,-286.455 L 13.6875,-286.907
 L 14.3301,-287.116 L 15.0022,-287.045 L 15.5873,-286.708 L 15.9845,-286.161 L 16.125,-285.5 L 15.9845,-284.839
 L 15.5873,-284.292 L 15.0022,-283.955 L 14.3301,-283.884 z
M 129.188,-284.093 L 128.685,-284.545 L 128.411,-285.162 L 128.411,-285.838 L 128.685,-286.455 L 129.188,-286.907
 L 129.83,-287.116 L 130.502,-287.045 L 131.087,-286.708 L 131.485,-286.161 L 131.625,-285.5 L 131.485,-284.839
 L 131.087,-284.292 L 130.502,-283.955 L 129.83,-283.884 z
M 169.188,-284.093 L 168.685,-284.545 L 168.411,-285.162 L 168.411,-285.838 L 168.685,-286.455 L 169.188,-286.907
 L 169.83,-287.116 L 170.502,-287.045 L 171.087,-286.708 L 171.485,-286.161 L 171.625,-285.5 L 171.485,-284.839
 L 171.087,-284.292 L 170.502,-283.955 L 169.83,-283.884 z
M 284.688,-284.093 L 284.185,-284.545 L 283.911,-285.162 L 283.911,-285.838 L 284.185,-286.455 L 284.688,-286.907
 L 285.33,-287.116 L 286.002,-287.045 L 286.587,-286.708 L 286.985,-286.161 L 287.125,-285.5 L 286.985,-284.839
 L 286.587,-284.292 L 286.002,-283.955 L 285.33,-283.884 z
M 20.5,-266.5 L 20.5,-279.5 L 33.5,-279.5 L 33.5,-266.5 z
M 266.5,-266.5 L 266.5,-279.5 L 279.5,-279.5 L 279.5,-266.5 z
M 43.9165,-244.167 L 43.9165,-257.167 L 56.9165,-257.167 L 56.9165,-244.167 z
M 60.5831,-244.167 L 60.5831,-257.167 L 73.5831,-257.167 L 73.5831,-244.167 z
M 77.2498,-244.167 L 77.2498,-257.167 L 90.2498,-257.167 L 90.2498,-244.167 z
M 93.9166,-244.167 L 93.9166,-257.167 L 106.917,-257.167 L 106.917,-244.167 z
M 110.583,-244.167 L 110.583,-257.167 L 123.583,-257.167 L 123.583,-244.167 z
M 127.25,-244.167 L 127.25,-257.167 L 140.25,-257.167 L 140.25,-244.167 z
M 143.917,-244.167 L 143.917,-257.167 L 156.917,-257.167 L 156.917,-244.167 z
M 160.583,-244.167 L 160.583,-257.167 L 173.583,-257.167 L 173.583,-244.167 z
M 177.25,-244.167 L 177.25,-257.167 L 190.25,-257.167 L 190.25,-244.167 z
M 193.917,-244.167 L 193.917,-257.167 L 206.917,-257.167 L 206.917,-244.167 z
M 210.583,-244.167 L 210.583,-257.167 L 223.583,-257.167 L 223.583,-244.167 z
M 227.25,-244.167 L 227.25,-257.167 L 240.25,-257.167 L 240.25,-244.167 z
M 243.917,-244.167 L 243.917,-257.167 L 256.917,-257.167 L 256.917,-244.167 z
M 43.9165,-227.5 L 43.9165,-240.5 L 56.9165,-240.5 L 56.9165,-227.5 z
M 60.5831,-227.5 L 60.5831,-240.5 L 73.5831,-240.5 L 73.5831,-227.5 z
M 77.2498,-227.5 L 77.2498,-240.5 L 90.2498,-240.5 L 90.2498,-227.5 z
M 93.9166,-227.5 L 93.9166,-240.5 L 106.917,-240.5 L 106.917,-227.5 z
M 110.583,-227.5 L 110.583,-240.5 L 123.583,-240.5 L 123.583,-227.5 z
M 127.25,-227.5 L 127.25,-240.5 L 140.25,-240.5 L 140.25,-227.5 z
M 143.917,-227.5 L 143.917,-240.5 L 156.917,-240.5 L 156.917,-227.5 z
M 160.583,-227.5 L 160.583,-240.5 L 173.583,-240.5 L 173.583,-227.5 z
M 177.25,-227.5 L 177.25,-240.5 L 190.25,-240.5 L 190.25,-227.5 z
M 193.917,-227.5 L 193.917,-240.5 L 206.917,-240.5 L 206.917,-227.5 z
M 210.583,-227.5 L 210.583,-240.5 L 223.583,-240.5 L 223.583,-227.5 z
M 227.25,-227.5 L 227.25,-240.5 L 240.25,-240.5 L 240.25,-227.5 z
M 243.917,-227.5 L 243.917,-240.5 L 256.917,-240.5 L 256.917,-227.5 z
M 43.9165,-210.833 L 43.9165,-223.833 L 56.9165,-223.833 L 56.9165,-210.833 z
M 60.5831,-210.833 L 60.5831,-223.833 L 73.5831,-223.833 L 73.5831,-210.833 z
M 77.2498,-210.833 L 77.2498,-223.833 L 90.2498,-223.833 L 90.2498,-210.833 z
M 93.9166,-210.833 L 93.9166,-223.833 L 106.917,-223.833 L 106.917,-210.833 z
M 110.583,-210.833 L 110.583,-223.833 L 123.583,-223.833 L 123.583,-210.833 z
M 127.25,-210.833 L 127.25,-223.833 L 140.25,-223.833 L 140.25,-210.833 z
M 143.917,-210.833 L 143.917,-223.833 L 156.917,-223.833 L 156.917,-210.833 z
M 160.583,-210.833 L 160.583,-223.833 L 173.583,-223.833 L 173.583,-210.833 z
M 177.25,-210.833 L 177.25,-223.833 L 190.25,-223.833 L 190.25,-210.833 z
M 193.917,-210.833 L 193.917,-223.833 L 206.917,-223.833 L 206.917,-210.833 z
M 210.583,-210.833 L 210.583,-223.833 L 223.583,-223.833 L 223.583,-210.833 z
M 227.25,-210.833 L 227.25,-223.833 L 240.25,-223.833 L 240.25,-210.833 z
M 243.917,-210.833 L 243.917,-223.833 L 256.917,-223.833 L 256.917,-210.833 z
M 43.9165,-194.167 L 43.9165,-207.167 L 56.9165,-207.167 L 56.9165,-194.167 z
M 60.5831,-194.167 L 60.5831,-207.167 L 73.5831,-207.167 L 73.5831,-194.167 z
M 77.2498,-194.167 L 77.2498,-207.167 L 90.2498,-207.167 L 90.2498,-194.167 z
M 93.9166,-194.167 L 93.9166,-207.167 L 106.917,-207.167 L 106.917,-194.167 z
M 110.583,-194.167 L 110.583,-207.167 L 123.583,-207.167 L 123.583,-194.167 z
M 127.25,-194.167 L 127.25,-207.167 L 140.25,-207.167 L 140.25,-194.167 z
M 143.917,-194.167 L 143.917,-207.167 L 156.917,-207.167 L 156.917,-194.167 z
M 160.583,-194.167 L 160.583,-207.167 L 173.583,-207.167 L 173.583,-194.167 z
M 177.25,-194.167 L 177.25,-207.167 L 190.25,-207.167 L 190.25,-194.167 z
M 193.917,-194.167 L 193.917,-207.167 L 206.917,-207.167 L 206.917,-194.167 z
M 210.583,-194.167 L 210.583,-207.167 L 223.583,-207.167 L 223.583,-194.167 z
M 227.25,-194.167 L 227.25,-207.167 L 240.25,-207.167 L 240.25,-194.167 z
M 243.917,-194.167 L 243.917,-207.167 L 256.917,-207.167 L 256.917,-194.167 z
M 43.9165,-177.5 L 43.9165,-190.5 L 56.9165,-190.5 L 56.9165,-177.5 z
M 60.5831,-177.5 L 60.5831,-190.5 L 73.5831,-190.5 L 73.5831,-177.5 z
M 77.2498,-177.5 L 77.2498,-190.5 L 90.2498,-190.5 L 90.2498,-177.5 z
M 93.9166,-177.5 L 93.9166,-190.5 L 106.917,-190.5 L 106.917,-177.5 z
M 110.583,-177.5 L 110.583,-190.5 L 123.583,-190.5 L 123.583,-177.5 z
M 127.25,-177.5 L 127.25,-190.5 L 140.25,-190.5 L 140.25,-177.5 z
M 143.917,-177.5 L 143.917,-190.5 L 156.917,-190.5 L 156.917,-177.5 z
M 160.583,-177.5 L 160.583,-190.5 L 173.583,-190.5 L 173.583,-177.5 z
M 177.25,-177.5 L 177.25,-190.5 L 190.25,-190.5 L 190.25,-177.5 z
M 193.917,-177.5 L 193.917,-190.5 L 206.917,-190.5 L 206.917,-177.5 z
M 210.583,-177.5 L 210.583,-190.5 L 223.583,-190.5 L 223.583,-177.5 z
M 227.25,-177.5 L 227.25,-190.5 L 240.25,-190.5 L 240.25,-177.5 z
M 243.917,-177.5 L 243.917,-190.5 L 256.917,-190.5 L 256.917,-177.5 z
M 43.9165,-160.833 L 43.9165,-173.833 L 56.9165,-173.833 L 56.9165,-160.833 z
M 60.5831,-160.833 L 60.5831,-173.833 L 73.5831,-173.833 L 73.5831,-160.833 z
M 77.2498,-160.833 L 77.2498,-173.833 L 90.2498,-173.833 L 90.2498,-160.833 z
M 93.9166,-160.833 L 93.9166,-173.833 L 106.917,-173.833 L 106.917,-160.833 z
M 110.583,-160.833 L 110.583,-173.833 L 123.583,-173.833 L 123.583,-160.833 z
M 127.25,-160.833 L 127.25,-173.833 L 140.25,-173.833 L 140.25,-160.833 z
M 143.917,-160.833 L 143.917,-173.833 L 156.917,-173.833 L 156.917,-160.833 z
M 160.583,-160.833 L 160.583,-173.833 L 173.583,-173.833 L 173.583,-160.833 z
M 177.25,-160.833 L 177.25,-173.833 L 190.25,-173.833 L 190.25,-160.833 z
M 193.917,-160.833 L 193.917,-173.833 L 206.917,-173.833 L 206.917,-160.833 z
M 210.583,-160.833 L 210.583,-173.833 L 223.583,-173.833 L 223.583,-160.833 z
M 227.25,-160.833 L 227.25,-173.833 L 240.25,-173.833 L 240.25,-160.833 z
M 243.917,-160.833 L 243.917,-173.833 L 256.917,-173.833 L 256.917,-160.833 z
M 43.9165,-144.167 L 43.9165,-157.167 L 56.9165,-157.167 L 56.9165,-144.167 z
M 60.5831,-144.167 L 60.5831,-157.167 L 73.5831,-157.167 L 73.5831,-144.167 z
M 77.2498,-144.167 L 77.2498,-157.167 L 90.2498,-157.167 L 90.2498,-144.167 z
M 93.9166,-144.167 L 93.9166,-157.167 L 106.917,-157.167 L 106.917,-144.167 z
M 110.583,-144.167 L 110.583,-157.167 L 123.583,-157.167 L 123.583,-144.167 z
M 127.25,-144.167 L 127.25,-157.167 L 140.25,-157.167 L 140.25,-144.167 z
M 143.917,-144.167 L 143.917,-157.167 L 156.917,-157.167 L 156.917,-144.167 z
M 160.583,-144.167 L 160.583,-157.167 L 173.583,-157.167 L 173.583,-144.167 z
M 177.25,-144.167 L 177.25,-157.167 L 190.25,-157.167 L 190.25,-144.167 z
M 193.917,-144.167 L 193.917,-157.167 L 206.917,-157.167 L 206.917,-144.167 z
M 210.583,-144.167 L 210.583,-157.167 L 223.583,-157.167 L 223.583,-144.167 z
M 227.25,-144.167 L 227.25,-157.167 L 240.25,-157.167 L 240.25,-144.167 z
M 243.917,-144.167 L 243.917,-157.167 L 256.917,-157.167 L 256.917,-144.167 z
M 43.9165,-127.5 L 43.9165,-140.5 L 56.9165,-140.5 L 56.9165,-127.5 z
M 60.5831,-127.5 L 60.5831,-140.5 L 73.5831,-140.5 L 73.5831,-127.5 z
M 77.2498,-127.5 L 77.2498,-140.5 L 90.2498,-140.5 L 90.2498,-127.5 z
M 93.9166,-127.5 L 93.9166,-140.5 L 106.917,-140.5 L 106.917,-127.5 z
M 110.583,-127.5 L 110.583,-140.5 L 123.583,-140.5 L 123.583,-127.5 z
M 127.25,-127.5 L 127.25,-140.5 L 140.25,-140.5 L 140.25,-127.5 z
M 143.917,-127.5 L 143.917,-140.5 L 156.917,-140.5 L 156.917,-127.5 z
M 160.583,-127.5 L 160.583,-140.5 L 173.583,-140.5 L 173.583,-127.5 z
M 177.25,-127.5 L 177.25,-140.5 L 190.25,-140.5 L 190.25,-127.5 z
M 193.917,-127.5 L 193.917,-140.5 L 206.917,-140.5 L 206.917,-127.5 z
M 210.583,-127.5 L 210.583,-140.5 L 223.583,-140.5 L 223.583,-127.5 z
M 227.25,-127.5 L 227.25,-140.5 L 240.25,-140.5 L 240.25,-127.5 z
M 243.917,-127.5 L 243.917,-140.5 L 256.917,-140.5 L 256.917,-127.5 z
M 43.9165,-110.833 L 43.9165,-123.833 L 56.9165,-123.833 L 56.9165,-110.833 z
M 60.5831,-110.833 L 60.5831,-123.833 L 73.5831,-123.833 L 73.5831,-110.833 z
M 77.2498,-110.833 L 77.2498,-123.833 L 90.2498,-123.833 L 90.2498,-110.833 z
M 93.9166,-110.833 L 93.9166,-123.833 L 106.917,-123.833 L 106.917,-110.833 z
M 110.583,-110.833 L 110.583,-123.833 L 123.583,-123.833 L 123.583,-110.833 z
M 127.25,-110.833 L 127.25,-123.833 L 140.25,-123.833 L 140.25,-110.833 z
M 143.917,-110.833 L 143.917,-123.833 L 156.917,-123.833 L 156.917,-110.833 z
M 160.583,-110.833 L 160.583,-123.833 L 173.583,-123.833 L 173.583,-110.833 z
M 177.25,-110.833 L 177.25,-123.833 L 190.25,-123.833 L 190.25,-110.833 z
M 193.917,-110.833 L 193.917,-123.833 L 206.917,-123.833 L 206.917,-110.833 z
M 210.583,-110.833 L 210.583,-123.833 L 223.583,-123.833 L 223.583,-110.833 z
M 227.25,-110.833 L 227.25,-123.833 L 240.25,-123.833 L 240.25,-110.833 z
M 243.917,-110.833 L 243.917,-123.833 L 256.917,-123.833 L 256.917,-110.833 z
M 43.9165,-94.1666 L 43.9165,-107.167 L 56.9165,-107.167 L 56.9165,-94.1666 z
M 60.5831,-94.1666 L 60.5831,-107.167 L 73.5831,-107.167 L 73.5831,-94.1666 z
M 77.2498,-94.1666 L 77.2498,-107.167 L 90.2498,-107.167 L 90.2498,-94.1666 z
M 93.9166,-94.1666 L 93.9166,-107.167 L 106.917,-107.167 L 106.917,-94.1666 z
M 110.583,-94.1666 L 110.583,-107.167 L 123.583,-107.167 L 123.583,-94.1666 z
M 127.25,-94.1666 L 127.25,-107.167 L 140.25,-107.167 L 140.25,-94.1666 z
M 143.917,-94.1666 L 143.917,-107.167 L 156.917,-107.167 L 156.917,-94.1666 z
M 160.583,-94.1666 L 160.583,-107.167 L 173.583,-107.167 L 173.583,-94.1666 z
M 177.25,-94.1666 L 177.25,-107.167 L 190.25,-107.167 L 190.25,-94.1666 z
M 193.917,-94.1666 L 193.917,-107.167 L 206.917,-107.167 L 206.917,-94.1666 z
M 210.583,-94.1666 L 210.583,-107.167 L 223.583,-107.167 L 223.583,-94.1666 z
M 227.25,-94.1666 L 227.25,-107.167 L 240.25,-107.167 L 240.25,-94.1666 z
M 243.917,-94.1666 L 243.917,-107.167 L 256.917,-107.167 L 256.917,-94.1666 z
M 43.9165,-77.4998 L 43.9165,-90.4998 L 56.9165,-90.4998 L 56.9165,-77.4998 z
M 60.5831,-77.4998 L 60.5831,-90.4998 L 73.5831,-90.4998 L 73.5831,-77.4998 z
M 77.2498,-77.4998 L 77.2498,-90.4998 L 90.2498,-90.4998 L 90.2498,-77.4998 z
M 93.9166,-77.4998 L 93.9166,-90.4998 L 106.917,-90.4998 L 106.917,-77.4998 z
M 110.583,-77.4998 L 110.583,-90.4998 L 123.583,-90.4998 L 123.583,-77.4998 z
M 127.25,-77.4998 L 127.25,-90.4998 L 140.25,-90.4998 L 140.25,-77.4998 z
M 143.917,-77.4998 L 143.917,-90.4998 L 156.917,-90.4998 L 156.917,-77.4998 z
M 160.583,-77.4998 L 160.583,-90.4998 L 173.583,-90.4998 L 173.583,-77.4998 z
M 177.25,-77.4998 L 177.25,-90.4998 L 190.25,-90.4998 L 190.25,-77.4998 z
M 193.917,-77.4998 L 193.917,-90.4998 L 206.917,-90.4998 L 206.917,-77.4998 z
M 210.583,-77.4998 L 210.583,-90.4998 L 223.583,-90.4998 L 223.583,-77.4998 z
M 227.25,-77.4998 L 227.25,-90.4998 L 240.25,-90.4998 L 240.25,-77.4998 z
M 243.917,-77.4998 L 243.917,-90.4998 L 256.917,-90.4998 L 256.917,-77.4998 z
M 43.9165,-60.8331 L 43.9165,-73.8331 L 56.9165,-73.8331 L 56.9165,-60.8331 z
M 60.5831,-60.8331 L 60.5831,-73.8331 L 73.5831,-73.8331 L 73.5831,-60.8331 z
M 77.2498,-60.8331 L 77.2498,-73.8331 L 90.2498,-73.8331 L 90.2498,-60.8331 z
M 93.9166,-60.8331 L 93.9166,-73.8331 L 106.917,-73.8331 L 106.917,-60.8331 z
M 110.583,-60.8331 L 110.583,-73.8331 L 123.583,-73.8331 L 123.583,-60.8331 z
M 127.25,-60.8331 L 127.25,-73.8331 L 140.25,-73.8331 L 140.25,-60.8331 z
M 143.917,-60.8331 L 143.917,-73.8331 L 156.917,-73.8331 L 156.917,-60.8331 z
M 160.583,-60.8331 L 160.583,-73.8331 L 173.583,-73.8331 L 173.583,-60.8331 z
M 177.25,-60.8331 L 177.25,-73.8331 L 190.25,-73.8331 L 190.25,-60.8331 z
M 193.917,-60.8331 L 193.917,-73.8331 L 206.917,-73.8331 L 206.917,-60.8331 z
M 210.583,-60.8331 L 210.583,-73.8331 L 223.583,-73.8331 L 223.583,-60.8331 z
M 227.25,-60.8331 L 227.25,-73.8331 L 240.25,-73.8331 L 240.25,-60.8331 z
M 243.917,-60.8331 L 243.917,-73.8331 L 256.917,-73.8331 L 256.917,-60.8331 z
M 43.9165,-44.1665 L 43.9165,-57.1665 L 56.9165,-57.1665 L 56.9165,-44.1665 z
M 60.5831,-44.1665 L 60.5831,-57.1665 L 73.5831,-57.1665 L 73.5831,-44.1665 z
M 77.2498,-44.1665 L 77.2498,-57.1665 L 90.2498,-57.1665 L 90.2498,-44.1665 z
M 93.9166,-44.1665 L 93.9166,-57.1665 L 106.917,-57.1665 L 106.917,-44.1665 z
M 110.583,-44.1665 L 110.583,-57.1665 L 123.583,-57.1665 L 123.583,-44.1665 z
M 127.25,-44.1665 L 127.25,-57.1665 L 140.25,-57.1665 L 140.25,-44.1665 z
M 143.917,-44.1665 L 143.917,-57.1665 L 156.917,-57.1665 L 156.917,-44.1665 z
M 160.583,-44.1665 L 160.583,-57.1665 L 173.583,-57.1665 L 173.583,-44.1665 z
M 177.25,-44.1665 L 177.25,-57.1665 L 190.25,-57.1665 L 190.25,-44.1665 z
M 193.917,-44.1665 L 193.917,-57.1665 L 206.917,-57.1665 L 206.917,-44.1665 z
M 210.583,-44.1665 L 210.583,-57.1665 L 223.583,-57.1665 L 223.583,-44.1665 z
M 227.25,-44.1665 L 227.25,-57.1665 L 240.25,-57.1665 L 240.25,-44.1665 z
M 243.917,-44.1665 L 243.917,-57.1665 L 256.917,-57.1665 L 256.917,-44.1665 z
M 20.5,-20.5 L 20.5,-33.5 L 33.5,-33.5 L 33.5,-20.5 z
M 266.5,-20.5 L 266.5,-33.5 L 279.5,-33.5 L 279.5,-20.5 z
M 149.188,-28.5927 L 148.685,-29.0448 L 148.411,-29.6621 L 148.411,-30.3379 L 148.685,-30.9552 L 149.188,-31.4073
 L 149.83,-31.6161 L 150.502,-31.5455 L 151.087,-31.2076 L 151.485,-30.6609 L 151.625,-30 L 151.485,-29.3391
 L 151.087,-28.7924 L 150.502,-28.4545 L 149.83,-28.3839 z
M 13.6875,-13.0927 L 13.1853,-13.5448 L 12.9105,-14.1621 L 12.9105,-14.8379 L 13.1853,-15.4552 L 13.6875,-15.9073
 L 14.3301,-16.1161 L 15.0022,-16.0455 L 15.5873,-15.7076 L 15.9845,-15.1609 L 16.125,-14.5 L 15.9845,-13.8391
 L 15.5873,-13.2924 L 15.0022,-12.9545 L 14.3301,-12.8839 z
M 284.688,-13.0927 L 284.185,-13.5448 L 283.911,-14.1621 L 283.911,-14.8379 L 284.185,-15.4552 L 284.688,-15.9073
 L 285.33,-16.1161 L 286.002,-16.0455 L 286.587,-15.7076 L 286.985,-15.1609 L 287.125,-14.5 L 286.985,-13.8391
 L 286.587,-13.2924 L 286.002,-12.9545 L 285.33,-12.8839 z
" stroke="#000000" fill="none" stroke-width="0.25"/>
</svg>
