<?xml version="1.0" standalone="no"?>
<!DOCTYPE svg PUBLIC "-//W3C//DTD SVG 1.1//EN" "http://www.w3.org/Graphics/SVG/1.1/DTD/svg11.dtd">
<svg width="302mm" height="302mm" viewBox="-1 -301 302 302" xmlns="http://www.w3.org/2000/svg" version="1.1">
<title>OpenSCAD Model</title>
<path d="
M 300,-300 L 0,-300 L 0,-0 L 300,-0 z
M 13.6875,-284.093 L 13.1853,-284.545 L 12.9105,-285.162 L 12.9105,-285.838 L 13.1853,-286.455 L 13.6875,-286.907
 L 14.3301,-287.116 L 15.0022,-287.045 L 15.5873,-286.708 L 15.9845,-286.161 L 16.125,-285.5 L 15.9845,-284.839
 L 15.5873,-284.292 L 15.0022,-283.955 L 14.3301,-283.884 z
M 129.188,-284.093 L 128.685,-284.545 L 128.411,-285.162 L 128.411,-285.838 L 128.685,-286.455 L 129.188,-286.907
 L 129.83,-287.116 L 130.502,-287.045 L 131.087,-286.708 L 131.485,-286.161 L 131.625,-285.5 L 131.485,-284.839
 L 131.087,-284.292 L 130.502,-283.955 L 129.83,-283.884 z
M 169.188,-284.093 L 168.685,-284.545 L 168.411,-285.162 L 168.411,-285.838 L 168.685,-286.455 L 169.188,-286.907
 L 169.83,-287.116 L 170.502,-287.045 L 171.087,-286.708 L 171.485,-286.161 L 171.625,-285.5 L 171.485,-284.839
 L 171.087,-284.292 L 170.502,-283.955 L 169.83,-283.884 z
M 284.688,-284.093 L 284.185,-284.545 L 283.911,-285.162 L 283.911,-285.838 L 284.185,-286.455 L 284.688,-286.907
 L 285.33,-287.116 L 286.002,-287.045 L 286.587,-286.708 L 286.985,-286.161 L 287.125,-285.5 L 286.985,-284.839
 L 286.587,-284.292 L 286.002,-283.955 L 285.33,-283.884 z
M 149.188,-28.5927 L 148.685,-29.0448 L 148.411,-29.6621 L 148.411,-30.3379 L 148.685,-30.9552 L 149.188,-31.4073
 L 149.83,-31.6161 L 150.502,-31.5455 L 151.087,-31.2076 L 151.485,-30.6609 L 151.625,-30 L 151.485,-29.3391
 L 151.087,-28.7924 L 150.502,-28.4545 L 149.83,-28.3839 z
M 13.6875,-13.0927 L 13.1853,-13.5448 L 12.9105,-14.1621 L 12.9105,-14.8379 L 13.1853,-15.4552 L 13.6875,-15.9073
 L 14.3301,-16.1161 L 15.0022,-16.0455 L 15.5873,-15.7076 L 15.9845,-15.1609 L 16.125,-14.5 L 15.9845,-13.8391
 L 15.5873,-13.2924 L 15.0022,-12.9545 L 14.3301,-12.8839 z
M 284.688,-13.0927 L 284.185,-13.5448 L 283.911,-14.1621 L 283.911,-14.8379 L 284.185,-15.4552 L 284.688,-15.9073
 L 285.33,-16.1161 L 286.002,-16.0455 L 286.587,-15.7076 L 286.985,-15.1609 L 287.125,-14.5 L 286.985,-13.8391
 L 286.587,-13.2924 L 286.002,-12.9545 L 285.33,-12.8839 z
" stroke="#000000" fill="none" stroke-width="0.25"/>
</svg>
