<?xml version="1.0" standalone="no"?>
<!DOCTYPE svg PUBLIC "-//W3C//DTD SVG 1.1//EN" "http://www.w3.org/Graphics/SVG/1.1/DTD/svg11.dtd">
<svg width="302mm" height="302mm" viewBox="-1 -301 302 302" xmlns="http://www.w3.org/2000/svg" version="1.1">
<title>OpenSCAD Model</title>
<path d="
M 300,-300 L 0,-300 L 0,-0 L 300,-0 z
M 26.0729,-270.147 L 25.2366,-270.573 L 24.5729,-271.237 L 24.1468,-272.073 L 24,-273 L 24.1468,-273.927
 L 24.5729,-274.763 L 25.2366,-275.427 L 26.0729,-275.853 L 27,-276 L 27.9271,-275.853 L 28.7634,-275.427
 L 29.4271,-274.763 L 29.8532,-273.927 L 30,-273 L 29.8532,-272.073 L 29.4271,-271.237 L 28.7634,-270.573
 L 27.9271,-270.147 L 27,-270 z
M 272.073,-270.147 L 271.237,-270.573 L 270.573,-271.237 L 270.147,-272.073 L 270,-273 L 270.147,-273.927
 L 270.573,-274.763 L 271.237,-275.427 L 272.073,-275.853 L 273,-276 L 273.927,-275.853 L 274.763,-275.427
 L 275.427,-274.763 L 275.853,-273.927 L 276,-273 L 275.853,-272.073 L 275.427,-271.237 L 274.763,-270.573
 L 273.927,-270.147 L 273,-270 z
M 132.424,-245.013 L 131.454,-245.22 L 130.611,-245.566 L 129.895,-246.05 L 129.306,-246.672 L 128.844,-247.431
 L 128.509,-248.329 L 131.675,-248.898 L 131.815,-248.542 L 132.007,-248.241 L 132.249,-247.994 L 132.542,-247.802
 L 132.886,-247.665 L 133.28,-247.583 L 133.726,-247.556 L 134.066,-247.57 L 134.354,-247.611 L 134.59,-247.681
 L 134.774,-247.779 L 134.906,-247.904 L 134.985,-248.058 L 135.011,-248.239 L 135.005,-248.337 L 134.987,-248.43
 L 134.958,-248.516 L 134.916,-248.596 L 134.862,-248.67 L 134.796,-248.738 L 134.718,-248.801 L 134.622,-248.856
 L 134.508,-248.909 L 134.375,-248.96 L 134.223,-249.01 L 134.052,-249.058 L 133.862,-249.105 L 133.652,-249.151
 L 132.861,-249.318 L 132.155,-249.499 L 131.533,-249.695 L 130.997,-249.904 L 130.546,-250.127 L 130.181,-250.364
 L 129.901,-250.615 L 129.68,-250.88 L 129.494,-251.158 L 129.342,-251.448 L 129.223,-251.752 L 129.138,-252.068
 L 129.087,-252.397 L 129.071,-252.739 L 129.17,-253.6 L 129.465,-254.379 L 129.949,-255.056 L 130.62,-255.614
 L 131.47,-256.035 L 132.497,-256.301 L 133.693,-256.393 L 134.616,-256.338 L 135.445,-256.17 L 136.18,-255.892
 L 136.82,-255.502 L 137.367,-255.001 L 137.819,-254.39 L 138.177,-253.667 L 135.353,-252.813 L 135.209,-253.108
 L 135.028,-253.358 L 134.811,-253.563 L 134.556,-253.722 L 134.264,-253.836 L 133.936,-253.905 L 133.571,-253.928
 L 133.276,-253.914 L 133.026,-253.872 L 132.821,-253.802 L 132.662,-253.703 L 132.547,-253.576 L 132.479,-253.42
 L 132.456,-253.236 L 132.461,-253.151 L 132.476,-253.072 L 132.501,-252.997 L 132.537,-252.929 L 132.584,-252.865
 L 132.641,-252.808 L 132.708,-252.756 L 132.791,-252.707 L 132.893,-252.66 L 133.013,-252.613 L 133.153,-252.567
 L 133.311,-252.521 L 133.489,-252.476 L 133.685,-252.43 L 134.718,-252.205 L 135.557,-251.999 L 136.232,-251.792
 L 136.775,-251.566 L 137.216,-251.3 L 137.586,-250.976 L 137.917,-250.575 L 138.066,-250.343 L 138.192,-250.099
 L 138.295,-249.845 L 138.375,-249.58 L 138.432,-249.304 L 138.467,-249.017 L 138.478,-248.719 L 138.359,-247.803
 L 138.014,-246.988 L 137.46,-246.29 L 136.716,-245.722 L 135.8,-245.299 L 134.729,-245.035 L 133.522,-244.943
 z
M 215.518,-245.165 L 214.47,-245.599 L 213.572,-246.246 L 212.841,-247.09 L 212.296,-248.117 L 211.956,-249.31
 L 211.838,-250.655 L 211.947,-251.955 L 212.266,-253.132 L 212.787,-254.163 L 213.5,-255.027 L 214.396,-255.698
 L 215.464,-256.156 L 216.697,-256.376 L 216.697,-253.788 L 216.383,-253.615 L 216.116,-253.346 L 215.898,-252.981
 L 215.728,-252.521 L 215.606,-251.965 L 215.533,-251.313 L 215.509,-250.566 L 215.533,-249.852 L 215.606,-249.232
 L 215.728,-248.706 L 215.898,-248.272 L 216.116,-247.932 L 216.383,-247.685 L 216.697,-247.53 L 216.697,-244.959
 z
M 217.682,-247.563 L 217.803,-247.618 L 217.917,-247.686 L 218.022,-247.768 L 218.12,-247.862 L 218.21,-247.969
 L 218.291,-248.089 L 218.365,-248.222 L 218.465,-248.461 L 218.55,-248.751 L 218.618,-249.093 L 218.672,-249.486
 L 218.709,-249.931 L 218.732,-250.426 L 218.74,-250.973 L 218.718,-251.616 L 218.654,-252.178 L 218.546,-252.66
 L 218.395,-253.061 L 218.201,-253.382 L 217.963,-253.621 L 217.682,-253.78 L 217.682,-256.376 L 218.83,-256.161
 L 219.85,-255.727 L 220.725,-255.088 L 221.435,-254.26 L 221.965,-253.255 L 222.296,-252.09 L 222.41,-250.777
 L 222.295,-249.426 L 221.964,-248.221 L 221.433,-247.179 L 220.721,-246.317 L 219.847,-245.65 L 218.828,-245.194
 L 217.682,-244.967 z
M 45.7085,-245.11 L 45.7085,-256.219 L 49.1183,-256.219 L 49.1183,-252.133 L 51.7226,-252.133 L 51.7226,-256.219
 L 55.1324,-256.219 L 55.1324,-245.11 L 51.7226,-245.11 L 51.7226,-249.432 L 49.1183,-249.432 L 49.1183,-245.11
 z
M 63.1972,-245.11 L 63.1972,-256.219 L 71.5549,-256.219 L 71.5549,-253.655 L 66.542,-253.655 L 66.542,-252.044
 L 70.5947,-252.044 L 70.5947,-249.578 L 66.542,-249.578 L 66.542,-247.763 L 71.5549,-247.763 L 71.5549,-245.11
 z
M 82.1344,-245.11 L 82.1344,-253.558 L 79.8314,-253.558 L 79.8314,-256.219 L 87.6683,-256.219 L 87.6683,-253.558
 L 85.3652,-253.558 L 85.3652,-245.11 z
M 99.383,-248.854 L 98.5123,-256.219 L 102.37,-256.219 L 101.442,-248.854 z
M 115.378,-245.11 L 115.378,-256.219 L 118.788,-256.219 L 118.788,-245.11 z
M 144.818,-245.11 L 148.398,-250.864 L 144.964,-256.219 L 148.935,-256.219 L 150.661,-253.232 L 152.451,-256.219
 L 155.511,-256.219 L 152.288,-251.059 L 156.024,-245.11 L 152.061,-245.11 L 150.01,-248.602 L 147.943,-245.11
 z
M 163.197,-245.11 L 163.197,-256.219 L 171.555,-256.219 L 171.555,-253.655 L 166.542,-253.655 L 166.542,-252.044
 L 170.595,-252.044 L 170.595,-249.578 L 166.542,-249.578 L 166.542,-247.763 L 171.555,-247.763 L 171.555,-245.11
 z
M 179.864,-245.11 L 179.864,-256.219 L 188.222,-256.219 L 188.222,-253.655 L 183.209,-253.655 L 183.209,-252.044
 L 187.262,-252.044 L 187.262,-249.578 L 183.209,-249.578 L 183.209,-247.763 L 188.222,-247.763 L 188.222,-245.11
 z
M 195.668,-245.11 L 195.668,-256.219 L 198.891,-256.219 L 201.479,-252.15 L 201.691,-251.81 L 201.888,-251.482
 L 202.071,-251.165 L 202.238,-250.859 L 202.391,-250.566 L 202.528,-250.286 L 202.651,-250.018 L 202.582,-250.427
 L 202.524,-250.838 L 202.476,-251.251 L 202.439,-251.667 L 202.412,-252.086 L 202.396,-252.507 L 202.39,-252.931
 L 202.39,-256.219 L 205.165,-256.219 L 205.165,-245.11 L 202.39,-245.11 L 199.347,-250.018 L 199.179,-250.295
 L 199.012,-250.589 L 198.844,-250.899 L 198.675,-251.227 L 198.507,-251.572 L 198.337,-251.934 L 198.167,-252.313
 L 198.238,-252.012 L 198.298,-251.725 L 198.347,-251.451 L 198.386,-251.19 L 198.413,-250.943 L 198.43,-250.709
 L 198.435,-250.49 L 198.435,-245.11 z
M 229.453,-245.11 L 229.453,-256.219 L 232.595,-256.219 L 232.595,-251.963 L 234.173,-251.963 L 234.482,-251.991
 L 234.733,-252.07 L 234.931,-252.191 L 235.078,-252.344 L 235.179,-252.52 L 235.237,-252.711 L 235.256,-252.907
 L 235.232,-253.153 L 235.162,-253.361 L 235.046,-253.531 L 234.883,-253.664 L 234.673,-253.759 L 234.418,-253.815
 L 234.116,-253.834 L 233.571,-253.834 L 233.571,-256.219 L 235.093,-256.219 L 236.018,-256.137 L 236.786,-255.907
 L 237.403,-255.551 L 237.874,-255.091 L 238.204,-254.548 L 238.398,-253.946 L 238.462,-253.305 L 238.424,-252.84
 L 238.309,-252.399 L 238.118,-251.991 L 237.851,-251.626 L 237.509,-251.313 L 237.091,-251.062 L 236.598,-250.88
 L 237.171,-250.699 L 237.656,-250.455 L 238.052,-250.148 L 238.36,-249.778 L 238.579,-249.346 L 238.711,-248.85
 L 238.755,-248.292 L 238.707,-247.596 L 238.54,-246.939 L 238.221,-246.346 L 237.716,-245.843 L 236.99,-245.452
 L 236.011,-245.2 L 234.743,-245.11 L 233.571,-245.11 L 233.571,-247.584 L 234.255,-247.584 L 234.58,-247.612
 L 234.851,-247.691 L 235.071,-247.814 L 235.239,-247.971 L 235.358,-248.156 L 235.428,-248.361 L 235.451,-248.577
 L 235.431,-248.795 L 235.366,-249.005 L 235.25,-249.196 L 235.077,-249.36 L 234.838,-249.489 L 234.529,-249.573
 L 234.141,-249.603 L 232.595,-249.603 L 232.595,-245.11 z
M 244.378,-245.11 L 244.378,-256.219 L 248.83,-256.219 L 250.441,-250.319 L 251.979,-256.219 L 256.455,-256.219
 L 256.455,-245.11 L 253.29,-245.11 L 253.29,-253.053 L 251.231,-245.11 L 249.066,-245.11 L 246.934,-253.053
 L 246.934,-245.11 z
M 98.8459,-245.11 L 98.8459,-248.081 L 101.987,-248.081 L 101.987,-245.11 z
M 48.801,-228.444 L 48.801,-236.891 L 46.498,-236.891 L 46.498,-239.552 L 54.3349,-239.552 L 54.3349,-236.891
 L 52.0318,-236.891 L 52.0318,-228.444 z
M 62.652,-228.444 L 59.6978,-239.552 L 62.9042,-239.552 L 64.4586,-233.147 L 65.9722,-239.552 L 68.6578,-239.552
 L 70.3017,-233.147 L 71.8561,-239.552 L 74.4684,-239.552 L 71.5224,-228.444 L 68.6578,-228.444 L 67.1035,-234.572
 L 65.6387,-228.444 z
M 79.8639,-228.444 L 79.8639,-239.552 L 88.2216,-239.552 L 88.2216,-236.989 L 83.2087,-236.989 L 83.2087,-235.377
 L 87.2614,-235.377 L 87.2614,-232.911 L 83.2087,-232.911 L 83.2087,-231.097 L 88.2216,-231.097 L 88.2216,-228.444
 z
M 96.5306,-228.444 L 96.5306,-239.552 L 104.888,-239.552 L 104.888,-236.989 L 99.8754,-236.989 L 99.8754,-235.377
 L 103.928,-235.377 L 103.928,-232.911 L 99.8754,-232.911 L 99.8754,-231.097 L 104.888,-231.097 L 104.888,-228.444
 z
M 112.424,-228.444 L 112.424,-239.552 L 116.721,-239.552 L 118.207,-239.4 L 119.461,-238.97 L 120.487,-238.302
 L 121.283,-237.436 L 121.85,-236.412 L 122.191,-235.27 L 122.304,-234.051 L 122.173,-232.695 L 121.796,-231.487
 L 121.192,-230.45 L 120.383,-229.605 L 119.389,-228.974 L 118.232,-228.58 L 116.933,-228.444 L 116.819,-228.444
 L 116.819,-230.999 L 117.266,-231.093 L 117.671,-231.314 L 118.026,-231.654 L 118.319,-232.106 L 118.541,-232.663
 L 118.682,-233.316 L 118.731,-234.059 L 118.688,-234.733 L 118.561,-235.356 L 118.35,-235.908 L 118.059,-236.37
 L 117.689,-236.724 L 117.242,-236.95 L 116.721,-237.029 L 115.834,-237.029 L 115.834,-228.444 z
M 128.985,-228.444 L 128.985,-239.552 L 134.788,-239.552 L 135.798,-239.481 L 136.68,-239.268 L 137.425,-238.916
 L 138.022,-238.427 L 138.461,-237.803 L 138.731,-237.046 L 138.824,-236.158 L 138.777,-235.567 L 138.637,-235.028
 L 138.402,-234.54 L 138.075,-234.105 L 137.653,-233.723 L 137.138,-233.392 L 136.529,-233.115 L 138.979,-228.444
 L 135.756,-228.444 L 134.023,-232.692 L 133.38,-232.692 L 133.38,-235.068 L 133.624,-235.068 L 134.074,-235.087
 L 134.45,-235.147 L 134.752,-235.249 L 134.984,-235.397 L 135.148,-235.592 L 135.244,-235.837 L 135.276,-236.134
 L 135.26,-236.359 L 135.203,-236.575 L 135.088,-236.773 L 134.9,-236.942 L 134.623,-237.075 L 134.241,-237.161
 L 133.738,-237.192 L 132.395,-237.192 L 132.395,-228.444 z
M 148.712,-228.444 L 148.712,-239.552 L 152.121,-239.552 L 152.121,-228.444 z
M 163.197,-228.444 L 163.197,-239.552 L 171.555,-239.552 L 171.555,-236.989 L 166.542,-236.989 L 166.542,-235.377
 L 170.595,-235.377 L 170.595,-232.911 L 166.542,-232.911 L 166.542,-231.097 L 171.555,-231.097 L 171.555,-228.444
 z
M 179.254,-228.444 L 179.254,-239.552 L 182.468,-239.552 L 182.468,-234.962 L 185.536,-239.552 L 188.596,-239.552
 L 185.789,-235.491 L 189.272,-228.444 L 185.536,-228.444 L 183.616,-232.643 L 182.468,-231.007 L 182.468,-228.444
 z
M 198.753,-228.444 L 195.156,-239.552 L 198.753,-239.552 L 200.502,-233.497 L 200.553,-233.344 L 200.603,-233.192
 L 200.65,-233.041 L 200.695,-232.89 L 200.739,-232.74 L 200.78,-232.589 L 200.82,-232.439 L 202.87,-239.552
 L 205.678,-239.552 L 202.227,-228.444 z
M 215.378,-228.444 L 215.378,-239.552 L 218.788,-239.552 L 218.788,-228.444 z
M 229.864,-228.444 L 229.864,-239.552 L 238.222,-239.552 L 238.222,-236.989 L 233.209,-236.989 L 233.209,-235.377
 L 237.262,-235.377 L 237.262,-232.911 L 233.209,-232.911 L 233.209,-231.097 L 238.222,-231.097 L 238.222,-228.444
 z
M 245.652,-228.444 L 245.652,-239.552 L 251.454,-239.552 L 252.465,-239.481 L 253.347,-239.268 L 254.092,-238.916
 L 254.689,-238.427 L 255.128,-237.803 L 255.398,-237.046 L 255.491,-236.158 L 255.444,-235.567 L 255.304,-235.028
 L 255.069,-234.54 L 254.742,-234.105 L 254.32,-233.723 L 253.805,-233.392 L 253.196,-233.115 L 255.646,-228.444
 L 252.423,-228.444 L 250.69,-232.692 L 250.047,-232.692 L 250.047,-235.068 L 250.291,-235.068 L 250.741,-235.087
 L 251.116,-235.147 L 251.419,-235.249 L 251.651,-235.397 L 251.815,-235.592 L 251.911,-235.837 L 251.943,-236.134
 L 251.927,-236.359 L 251.87,-236.575 L 251.755,-236.773 L 251.567,-236.942 L 251.29,-237.075 L 250.908,-237.161
 L 250.405,-237.192 L 249.062,-237.192 L 249.062,-228.444 z
M 149.091,-211.679 L 148.121,-211.887 L 147.278,-212.233 L 146.562,-212.716 L 145.973,-213.338 L 145.511,-214.098
 L 145.176,-214.995 L 148.341,-215.565 L 148.482,-215.209 L 148.673,-214.907 L 148.915,-214.661 L 149.208,-214.469
 L 149.552,-214.332 L 149.947,-214.25 L 150.392,-214.222 L 150.733,-214.236 L 151.021,-214.278 L 151.257,-214.348
 L 151.441,-214.445 L 151.573,-214.571 L 151.652,-214.724 L 151.678,-214.906 L 151.672,-215.004 L 151.654,-215.096
 L 151.624,-215.182 L 151.582,-215.263 L 151.529,-215.337 L 151.463,-215.405 L 151.385,-215.467 L 151.289,-215.522
 L 151.174,-215.575 L 151.042,-215.626 L 150.89,-215.676 L 150.719,-215.724 L 150.529,-215.771 L 150.319,-215.817
 L 149.528,-215.985 L 148.821,-216.166 L 148.2,-216.361 L 147.664,-216.571 L 147.213,-216.794 L 146.847,-217.031
 L 146.567,-217.282 L 146.347,-217.547 L 146.161,-217.824 L 146.008,-218.115 L 145.89,-218.418 L 145.805,-218.735
 L 145.754,-219.064 L 145.737,-219.406 L 145.837,-220.267 L 146.131,-221.045 L 146.616,-221.722 L 147.287,-222.28
 L 148.137,-222.702 L 149.163,-222.967 L 150.36,-223.06 L 151.282,-223.004 L 152.111,-222.837 L 152.846,-222.559
 L 153.487,-222.169 L 154.034,-221.668 L 154.486,-221.056 L 154.844,-220.334 L 152.02,-219.479 L 151.876,-219.774
 L 151.695,-220.024 L 151.477,-220.229 L 151.223,-220.389 L 150.931,-220.503 L 150.603,-220.571 L 150.238,-220.594
 L 149.943,-220.58 L 149.693,-220.538 L 149.488,-220.468 L 149.328,-220.37 L 149.214,-220.243 L 149.146,-220.087
 L 149.123,-219.903 L 149.128,-219.818 L 149.143,-219.738 L 149.168,-219.664 L 149.204,-219.595 L 149.25,-219.532
 L 149.307,-219.474 L 149.375,-219.422 L 149.458,-219.374 L 149.559,-219.327 L 149.68,-219.28 L 149.819,-219.234
 L 149.978,-219.188 L 150.155,-219.142 L 150.352,-219.097 L 151.385,-218.872 L 152.223,-218.666 L 152.899,-218.459
 L 153.441,-218.232 L 153.882,-217.967 L 154.253,-217.643 L 154.583,-217.241 L 154.732,-217.009 L 154.858,-216.766
 L 154.962,-216.512 L 155.042,-216.247 L 155.099,-215.971 L 155.133,-215.684 L 155.145,-215.386 L 155.026,-214.47
 L 154.681,-213.655 L 154.127,-212.957 L 153.383,-212.389 L 152.467,-211.966 L 151.396,-211.701 L 150.189,-211.61
 z
M 82.3209,-211.7 L 81.9755,-211.716 L 81.6395,-211.744 L 81.3134,-211.782 L 80.9975,-211.831 L 80.6919,-211.892
 L 80.3969,-211.963 L 80.3969,-214.616 L 80.6003,-214.561 L 80.799,-214.515 L 80.9932,-214.478 L 81.1833,-214.449
 L 81.3695,-214.429 L 81.5522,-214.417 L 81.7316,-214.413 L 82.1139,-214.437 L 82.4265,-214.516 L 82.6733,-214.656
 L 82.8583,-214.865 L 82.9855,-215.149 L 83.0589,-215.517 L 83.0825,-215.975 L 83.0825,-222.974 L 86.3621,-222.974
 L 86.3621,-215.975 L 86.3422,-215.123 L 86.2764,-214.399 L 86.1559,-213.789 L 85.9715,-213.277 L 85.7144,-212.85
 L 85.3756,-212.493 L 84.9461,-212.191 L 84.6935,-212.058 L 84.417,-211.946 L 84.1166,-211.855 L 83.7922,-211.785
 L 83.4439,-211.734 L 83.0717,-211.704 L 82.6756,-211.694 z
M 48.7522,-211.777 L 45.1552,-222.885 L 48.7522,-222.885 L 50.5018,-216.831 L 50.5532,-216.678 L 50.6025,-216.526
 L 50.6499,-216.374 L 50.6952,-216.223 L 50.7385,-216.073 L 50.7799,-215.923 L 50.8192,-215.773 L 52.87,-222.885
 L 55.6777,-222.885 L 52.2272,-211.777 z
M 65.3782,-211.777 L 65.3782,-222.885 L 68.788,-222.885 L 68.788,-211.777 z
M 96.8277,-211.777 L 96.8277,-222.885 L 104.86,-222.885 L 104.86,-220.241 L 100.148,-220.241 L 100.148,-218.434
 L 103.769,-218.434 L 103.769,-215.935 L 100.148,-215.935 L 100.148,-211.777 z
M 112.461,-211.777 L 112.461,-213.901 L 117.384,-220.314 L 112.835,-220.314 L 112.835,-222.885 L 121.551,-222.885
 L 121.551,-220.729 L 116.774,-214.397 L 121.706,-214.397 L 121.706,-211.777 z
M 129.864,-211.777 L 129.864,-222.885 L 138.222,-222.885 L 138.222,-220.322 L 133.209,-220.322 L 133.209,-218.711
 L 137.262,-218.711 L 137.262,-216.245 L 133.209,-216.245 L 133.209,-214.43 L 138.222,-214.43 L 138.222,-211.777
 z
M 162.461,-211.777 L 162.461,-213.901 L 167.384,-220.314 L 162.835,-220.314 L 162.835,-222.885 L 171.551,-222.885
 L 171.551,-220.729 L 166.774,-214.397 L 171.706,-214.397 L 171.706,-211.777 z
M 179.864,-211.777 L 179.864,-222.885 L 188.222,-222.885 L 188.222,-220.322 L 183.209,-220.322 L 183.209,-218.711
 L 187.262,-218.711 L 187.262,-216.245 L 183.209,-216.245 L 183.209,-214.43 L 188.222,-214.43 L 188.222,-211.777
 z
M 198.753,-211.777 L 195.156,-222.885 L 198.753,-222.885 L 200.502,-216.831 L 200.553,-216.678 L 200.603,-216.526
 L 200.65,-216.374 L 200.695,-216.223 L 200.739,-216.073 L 200.78,-215.923 L 200.82,-215.773 L 202.87,-222.885
 L 205.678,-222.885 L 202.227,-211.777 z
M 213.197,-211.777 L 213.197,-222.885 L 221.555,-222.885 L 221.555,-220.322 L 216.542,-220.322 L 216.542,-218.711
 L 220.595,-218.711 L 220.595,-216.245 L 216.542,-216.245 L 216.542,-214.43 L 221.555,-214.43 L 221.555,-211.777
 z
M 229.002,-211.777 L 229.002,-222.885 L 232.224,-222.885 L 234.812,-218.816 L 235.024,-218.477 L 235.222,-218.148
 L 235.404,-217.831 L 235.571,-217.526 L 235.724,-217.233 L 235.861,-216.952 L 235.984,-216.684 L 235.916,-217.093
 L 235.858,-217.505 L 235.81,-217.918 L 235.772,-218.334 L 235.745,-218.752 L 235.729,-219.174 L 235.724,-219.598
 L 235.724,-222.885 L 238.499,-222.885 L 238.499,-211.777 L 235.724,-211.777 L 232.68,-216.684 L 232.513,-216.961
 L 232.345,-217.255 L 232.177,-217.566 L 232.009,-217.894 L 231.84,-218.239 L 231.67,-218.6 L 231.5,-218.979
 L 231.571,-218.679 L 231.632,-218.391 L 231.681,-218.117 L 231.719,-217.857 L 231.747,-217.609 L 231.763,-217.376
 L 231.769,-217.156 L 231.769,-211.777 z
M 246.035,-211.777 L 246.035,-222.885 L 250.779,-222.885 L 251.717,-222.852 L 252.514,-222.753 L 253.185,-222.586
 L 253.747,-222.352 L 254.217,-222.048 L 254.611,-221.676 L 254.946,-221.233 L 255.088,-220.989 L 255.209,-220.736
 L 255.307,-220.476 L 255.384,-220.207 L 255.439,-219.93 L 255.472,-219.646 L 255.483,-219.354 L 255.387,-218.491
 L 255.109,-217.726 L 254.661,-217.072 L 254.055,-216.541 L 253.305,-216.145 L 252.423,-215.898 L 251.422,-215.813
 L 250.429,-215.813 L 250.429,-218.198 L 250.584,-218.198 L 250.982,-218.22 L 251.32,-218.288 L 251.596,-218.4
 L 251.812,-218.558 L 251.966,-218.761 L 252.058,-219.01 L 252.089,-219.305 L 252.061,-219.58 L 251.976,-219.814
 L 251.834,-220.005 L 251.635,-220.154 L 251.379,-220.261 L 251.067,-220.325 L 250.698,-220.346 L 249.444,-220.346
 L 249.493,-211.777 z
M 66.1338,-195.071 L 65.0433,-195.445 L 64.1105,-196.053 L 63.3536,-196.882 L 62.7905,-197.921 L 62.4394,-199.156
 L 62.3183,-200.575 L 62.4298,-201.994 L 62.758,-203.251 L 63.2933,-204.327 L 64.0262,-205.2 L 64.9472,-205.849
 L 66.0467,-206.254 L 67.3151,-206.393 L 68.4914,-206.288 L 69.5017,-205.98 L 70.3454,-205.486 L 71.022,-204.82
 L 71.5309,-203.996 L 71.8715,-203.029 L 72.0433,-201.934 L 68.8613,-201.763 L 68.8225,-202.349 L 68.7126,-202.832
 L 68.541,-203.218 L 68.3173,-203.51 L 68.0511,-203.713 L 67.7518,-203.832 L 67.429,-203.871 L 67.0015,-203.804
 L 66.6398,-203.606 L 66.3439,-203.275 L 66.1137,-202.812 L 65.9493,-202.217 L 65.8506,-201.49 L 65.8177,-200.632
 L 65.8262,-200.136 L 65.8518,-199.688 L 65.8946,-199.288 L 65.9548,-198.936 L 66.0325,-198.631 L 66.1278,-198.375
 L 66.2409,-198.166 L 66.3664,-197.994 L 66.506,-197.848 L 66.6594,-197.729 L 66.8268,-197.635 L 67.0082,-197.568
 L 67.2035,-197.528 L 67.4128,-197.515 L 67.7755,-197.552 L 68.0894,-197.664 L 68.3544,-197.852 L 68.5707,-198.114
 L 68.7381,-198.452 L 68.8567,-198.865 L 68.9265,-199.354 L 72.0433,-199.167 L 71.8234,-198.074 L 71.4259,-197.137
 L 70.8678,-196.36 L 70.1657,-195.747 L 69.3365,-195.304 L 68.397,-195.034 L 67.3639,-194.943 z
M 198.933,-195.072 L 197.88,-195.449 L 196.97,-196.058 L 196.225,-196.884 L 195.665,-197.911 L 195.314,-199.125
 L 195.192,-200.51 L 195.302,-201.881 L 195.631,-203.128 L 196.177,-204.219 L 196.94,-205.123 L 197.918,-205.808
 L 199.11,-206.242 L 200.514,-206.393 L 201.586,-206.309 L 202.532,-206.058 L 203.351,-205.648 L 204.037,-205.083
 L 204.59,-204.37 L 205.007,-203.513 L 205.283,-202.52 L 201.979,-202.194 L 201.889,-202.654 L 201.756,-203.043
 L 201.581,-203.362 L 201.364,-203.609 L 201.104,-203.786 L 200.802,-203.892 L 200.457,-203.928 L 200.014,-203.862
 L 199.638,-203.667 L 199.33,-203.341 L 199.09,-202.885 L 198.918,-202.299 L 198.815,-201.583 L 198.781,-200.737
 L 198.792,-200.213 L 198.825,-199.743 L 198.88,-199.326 L 198.956,-198.964 L 199.055,-198.655 L 199.176,-198.4
 L 199.318,-198.198 L 199.476,-198.034 L 199.643,-197.894 L 199.819,-197.781 L 200.005,-197.693 L 200.2,-197.63
 L 200.405,-197.592 L 200.62,-197.58 L 200.961,-197.612 L 201.275,-197.705 L 201.552,-197.857 L 201.784,-198.063
 L 201.961,-198.321 L 202.075,-198.628 L 202.118,-198.98 L 200.278,-198.98 L 200.278,-201.34 L 205.283,-201.34
 L 205.283,-195.114 L 203.615,-195.114 L 203.555,-195.308 L 203.494,-195.492 L 203.432,-195.667 L 203.368,-195.833
 L 203.303,-195.99 L 203.236,-196.138 L 203.167,-196.278 L 202.851,-195.925 L 202.495,-195.625 L 202.098,-195.38
 L 201.661,-195.189 L 201.184,-195.053 L 200.666,-194.971 L 200.108,-194.943 z
M 45.1105,-195.11 L 48.5448,-206.219 L 52.1498,-206.219 L 53.8914,-200.669 L 50.6688,-200.669 L 50.0258,-202.947
 L 49.1226,-199.725 L 50.2212,-199.725 L 50.2212,-199.684 L 54.1924,-199.684 L 55.6248,-195.11 L 52.1498,-195.11
 L 51.5233,-197.299 L 48.5448,-197.299 L 47.8774,-195.11 z
M 79.0419,-195.11 L 79.0419,-206.219 L 82.4517,-206.219 L 82.4517,-202.133 L 85.056,-202.133 L 85.056,-206.219
 L 88.4658,-206.219 L 88.4658,-195.11 L 85.056,-195.11 L 85.056,-199.432 L 82.4517,-199.432 L 82.4517,-195.11
 z
M 98.8011,-195.11 L 98.8011,-203.558 L 96.4981,-203.558 L 96.4981,-206.219 L 104.335,-206.219 L 104.335,-203.558
 L 102.032,-203.558 L 102.032,-195.11 z
M 112.424,-195.11 L 112.424,-206.219 L 116.721,-206.219 L 118.207,-206.066 L 119.461,-205.636 L 120.487,-204.968
 L 121.283,-204.102 L 121.85,-203.079 L 122.191,-201.937 L 122.304,-200.717 L 122.173,-199.361 L 121.796,-198.154
 L 121.192,-197.117 L 120.383,-196.272 L 119.389,-195.641 L 118.232,-195.247 L 116.933,-195.11 L 116.819,-195.11
 L 116.819,-197.666 L 117.266,-197.76 L 117.671,-197.98 L 118.026,-198.321 L 118.319,-198.773 L 118.541,-199.33
 L 118.682,-199.983 L 118.731,-200.726 L 118.688,-201.4 L 118.561,-202.023 L 118.35,-202.575 L 118.059,-203.037
 L 117.689,-203.39 L 117.242,-203.616 L 116.721,-203.696 L 115.834,-203.696 L 115.834,-195.11 z
M 128.151,-195.11 L 131.732,-200.864 L 128.298,-206.219 L 132.269,-206.219 L 133.994,-203.232 L 135.784,-206.219
 L 138.844,-206.219 L 135.622,-201.059 L 139.357,-195.11 L 135.394,-195.11 L 133.343,-198.601 L 131.276,-195.11
 z
M 145.985,-195.11 L 143.031,-206.219 L 146.238,-206.219 L 147.792,-199.814 L 149.306,-206.219 L 151.991,-206.219
 L 153.635,-199.814 L 155.19,-206.219 L 157.802,-206.219 L 154.856,-195.11 L 151.991,-195.11 L 150.437,-201.238
 L 148.972,-195.11 z
M 162.335,-195.11 L 162.335,-206.219 L 165.557,-206.219 L 168.145,-202.15 L 168.358,-201.81 L 168.555,-201.481
 L 168.737,-201.164 L 168.905,-200.859 L 169.057,-200.566 L 169.195,-200.286 L 169.317,-200.018 L 169.249,-200.427
 L 169.191,-200.838 L 169.143,-201.251 L 169.105,-201.667 L 169.079,-202.086 L 169.062,-202.507 L 169.057,-202.931
 L 169.057,-206.219 L 171.832,-206.219 L 171.832,-195.11 L 169.057,-195.11 L 166.013,-200.018 L 165.846,-200.295
 L 165.678,-200.588 L 165.51,-200.899 L 165.342,-201.227 L 165.173,-201.572 L 165.004,-201.934 L 164.833,-202.312
 L 164.904,-202.012 L 164.965,-201.725 L 165.014,-201.451 L 165.052,-201.19 L 165.08,-200.943 L 165.096,-200.709
 L 165.102,-200.49 L 165.102,-195.11 z
M 179.864,-195.11 L 179.864,-206.219 L 188.222,-206.219 L 188.222,-203.655 L 183.209,-203.655 L 183.209,-202.044
 L 187.262,-202.044 L 187.262,-199.578 L 183.209,-199.578 L 183.209,-197.763 L 188.222,-197.763 L 188.222,-195.11
 z
M 213.197,-195.11 L 213.197,-206.219 L 221.555,-206.219 L 221.555,-203.655 L 216.542,-203.655 L 216.542,-202.044
 L 220.595,-202.044 L 220.595,-199.578 L 216.542,-199.578 L 216.542,-197.763 L 221.555,-197.763 L 221.555,-195.11
 z
M 229.002,-195.11 L 229.002,-206.219 L 232.224,-206.219 L 234.812,-202.15 L 235.024,-201.81 L 235.222,-201.481
 L 235.404,-201.164 L 235.571,-200.859 L 235.724,-200.566 L 235.861,-200.286 L 235.984,-200.018 L 235.916,-200.427
 L 235.858,-200.838 L 235.81,-201.251 L 235.772,-201.667 L 235.745,-202.086 L 235.729,-202.507 L 235.724,-202.931
 L 235.724,-206.219 L 238.499,-206.219 L 238.499,-195.11 L 235.724,-195.11 L 232.68,-200.018 L 232.513,-200.295
 L 232.345,-200.588 L 232.177,-200.899 L 232.009,-201.227 L 231.84,-201.572 L 231.67,-201.934 L 231.5,-202.312
 L 231.571,-202.012 L 231.632,-201.725 L 231.681,-201.451 L 231.719,-201.19 L 231.747,-200.943 L 231.763,-200.709
 L 231.769,-200.49 L 231.769,-195.11 z
M 248.891,-195.11 L 248.891,-199.814 L 245.156,-206.219 L 248.891,-206.219 L 250.836,-202.565 L 252.7,-206.219
 L 255.678,-206.219 L 252.203,-199.814 L 252.203,-195.11 z
M 48.801,-178.444 L 48.801,-186.891 L 46.498,-186.891 L 46.498,-189.552 L 54.3349,-189.552 L 54.3349,-186.891
 L 52.0318,-186.891 L 52.0318,-178.444 z
M 65.3782,-178.444 L 65.3782,-189.552 L 68.788,-189.552 L 68.788,-178.444 z
M 79.8639,-178.444 L 79.8639,-189.552 L 88.2216,-189.552 L 88.2216,-186.989 L 83.2087,-186.989 L 83.2087,-185.377
 L 87.2614,-185.377 L 87.2614,-182.911 L 83.2087,-182.911 L 83.2087,-181.097 L 88.2216,-181.097 L 88.2216,-178.444
 z
M 95.668,-178.444 L 95.668,-189.552 L 98.8907,-189.552 L 101.478,-185.483 L 101.691,-185.143 L 101.888,-184.815
 L 102.07,-184.498 L 102.238,-184.193 L 102.39,-183.9 L 102.528,-183.619 L 102.65,-183.351 L 102.582,-183.76
 L 102.524,-184.171 L 102.476,-184.585 L 102.439,-185 L 102.412,-185.419 L 102.395,-185.84 L 102.39,-186.264
 L 102.39,-189.552 L 105.165,-189.552 L 105.165,-178.444 L 102.39,-178.444 L 99.3463,-183.351 L 99.1789,-183.628
 L 99.0113,-183.922 L 98.8435,-184.233 L 98.6752,-184.561 L 98.5064,-184.905 L 98.3368,-185.267 L 98.1664,-185.646
 L 98.2376,-185.345 L 98.2979,-185.058 L 98.3472,-184.784 L 98.3856,-184.523 L 98.413,-184.276 L 98.4294,-184.043
 L 98.4349,-183.823 L 98.4349,-178.444 z
M 113.197,-178.444 L 113.197,-189.552 L 121.555,-189.552 L 121.555,-186.989 L 116.542,-186.989 L 116.542,-185.377
 L 120.595,-185.377 L 120.595,-182.911 L 116.542,-182.911 L 116.542,-181.097 L 121.555,-181.097 L 121.555,-178.444
 z
M 130.23,-178.444 L 130.23,-189.552 L 133.64,-189.552 L 133.64,-181.17 L 138.018,-181.17 L 138.018,-178.444
 z
M 146.828,-178.444 L 146.828,-189.552 L 154.86,-189.552 L 154.86,-186.907 L 150.148,-186.907 L 150.148,-185.1
 L 153.77,-185.1 L 153.77,-182.602 L 150.148,-182.602 L 150.148,-178.444 z
M 165.468,-178.444 L 165.468,-186.891 L 163.165,-186.891 L 163.165,-189.552 L 171.002,-189.552 L 171.002,-186.891
 L 168.699,-186.891 L 168.699,-178.444 z
M 179.319,-178.444 L 176.365,-189.552 L 179.571,-189.552 L 181.125,-183.147 L 182.639,-189.552 L 185.325,-189.552
 L 186.969,-183.147 L 188.523,-189.552 L 191.135,-189.552 L 188.189,-178.444 L 185.325,-178.444 L 183.77,-184.571
 L 182.306,-178.444 z
M 195.111,-178.444 L 198.545,-189.552 L 202.15,-189.552 L 203.892,-184.002 L 200.669,-184.002 L 200.026,-186.281
 L 199.123,-183.058 L 200.221,-183.058 L 200.221,-183.017 L 204.193,-183.017 L 205.625,-178.444 L 202.15,-178.444
 L 201.524,-180.633 L 198.545,-180.633 L 197.878,-178.444 z
M 211.777,-178.444 L 215.212,-189.552 L 218.817,-189.552 L 220.558,-184.002 L 217.336,-184.002 L 216.693,-186.281
 L 215.79,-183.058 L 216.888,-183.058 L 216.888,-183.017 L 220.859,-183.017 L 222.292,-178.444 L 218.817,-178.444
 L 218.19,-180.633 L 215.212,-180.633 L 214.544,-178.444 z
M 230.23,-178.444 L 230.23,-189.552 L 233.64,-189.552 L 233.64,-181.17 L 238.019,-181.17 L 238.019,-178.444
 z
M 246.828,-178.444 L 246.828,-189.552 L 254.86,-189.552 L 254.86,-186.907 L 250.148,-186.907 L 250.148,-185.1
 L 253.77,-185.1 L 253.77,-182.602 L 250.148,-182.602 L 250.148,-178.444 z
M 45.9202,-161.777 L 45.9202,-172.885 L 49.1347,-172.885 L 49.1347,-168.295 L 52.2028,-172.885 L 55.2626,-172.885
 L 52.455,-168.824 L 55.9381,-161.777 L 52.2028,-161.777 L 50.2822,-165.976 L 49.1347,-164.34 L 49.1347,-161.777
 z
M 62.652,-161.777 L 59.6978,-172.885 L 62.9042,-172.885 L 64.4586,-166.481 L 65.9722,-172.885 L 68.6578,-172.885
 L 70.3017,-166.481 L 71.8561,-172.885 L 74.4684,-172.885 L 71.5224,-161.777 L 68.6578,-161.777 L 67.1035,-167.905
 L 65.6387,-161.777 z
M 78.4439,-161.777 L 81.8782,-172.885 L 85.4832,-172.885 L 87.2247,-167.335 L 84.0021,-167.335 L 83.3592,-169.614
 L 82.4559,-166.391 L 83.5545,-166.391 L 83.5545,-166.35 L 87.5258,-166.35 L 88.9581,-161.777 L 85.4832,-161.777
 L 84.8567,-163.966 L 81.8782,-163.966 L 81.2108,-161.777 z
M 95.6518,-161.777 L 95.6518,-172.885 L 101.454,-172.885 L 102.464,-172.814 L 103.347,-172.601 L 104.092,-172.249
 L 104.689,-171.76 L 105.127,-171.136 L 105.398,-170.379 L 105.491,-169.492 L 105.444,-168.9 L 105.303,-168.361
 L 105.069,-167.874 L 104.741,-167.438 L 104.32,-167.056 L 103.805,-166.726 L 103.196,-166.448 L 105.645,-161.777
 L 102.423,-161.777 L 100.689,-166.025 L 100.046,-166.025 L 100.046,-168.401 L 100.29,-168.401 L 100.741,-168.421
 L 101.116,-168.48 L 101.419,-168.583 L 101.651,-168.73 L 101.814,-168.925 L 101.911,-169.17 L 101.942,-169.467
 L 101.927,-169.692 L 101.87,-169.908 L 101.755,-170.106 L 101.567,-170.275 L 101.289,-170.408 L 100.907,-170.494
 L 100.404,-170.525 L 99.0616,-170.525 L 99.0616,-161.777 z
M 115.468,-161.777 L 115.468,-170.224 L 113.165,-170.224 L 113.165,-172.885 L 121.002,-172.885 L 121.002,-170.224
 L 118.699,-170.224 L 118.699,-161.777 z
M 130.23,-161.777 L 130.23,-172.885 L 133.64,-172.885 L 133.64,-164.503 L 138.018,-164.503 L 138.018,-161.777
 z
M 145.758,-161.777 L 145.758,-172.885 L 150.055,-172.885 L 151.54,-172.733 L 152.795,-172.303 L 153.82,-171.635
 L 154.616,-170.769 L 155.184,-169.745 L 155.524,-168.603 L 155.637,-167.384 L 155.507,-166.028 L 155.129,-164.82
 L 154.525,-163.783 L 153.716,-162.938 L 152.722,-162.308 L 151.566,-161.913 L 150.266,-161.777 L 150.152,-161.777
 L 150.152,-164.332 L 150.599,-164.426 L 151.005,-164.647 L 151.359,-164.987 L 151.653,-165.44 L 151.875,-165.996
 L 152.016,-166.65 L 152.065,-167.392 L 152.022,-168.067 L 151.894,-168.689 L 151.684,-169.241 L 151.392,-169.703
 L 151.022,-170.057 L 150.576,-170.283 L 150.055,-170.363 L 149.168,-170.363 L 149.168,-161.777 z
M 163.197,-161.777 L 163.197,-172.885 L 171.555,-172.885 L 171.555,-170.322 L 166.542,-170.322 L 166.542,-168.71
 L 170.595,-168.71 L 170.595,-166.245 L 166.542,-166.245 L 166.542,-164.43 L 171.555,-164.43 L 171.555,-161.777
 z
M 178.985,-161.777 L 178.985,-172.885 L 184.788,-172.885 L 185.798,-172.814 L 186.68,-172.601 L 187.425,-172.249
 L 188.022,-171.76 L 188.461,-171.136 L 188.732,-170.379 L 188.824,-169.492 L 188.777,-168.9 L 188.637,-168.361
 L 188.403,-167.874 L 188.075,-167.438 L 187.653,-167.056 L 187.138,-166.726 L 186.529,-166.448 L 188.979,-161.777
 L 185.756,-161.777 L 184.023,-166.025 L 183.38,-166.025 L 183.38,-168.401 L 183.624,-168.401 L 184.074,-168.421
 L 184.45,-168.48 L 184.752,-168.583 L 184.984,-168.73 L 185.148,-168.925 L 185.244,-169.17 L 185.276,-169.467
 L 185.26,-169.692 L 185.203,-169.908 L 185.088,-170.106 L 184.9,-170.275 L 184.623,-170.408 L 184.241,-170.494
 L 183.738,-170.525 L 182.395,-170.525 L 182.395,-161.777 z
M 198.801,-161.777 L 198.801,-170.224 L 196.498,-170.224 L 196.498,-172.885 L 204.335,-172.885 L 204.335,-170.224
 L 202.032,-170.224 L 202.032,-161.777 z
M 215.378,-161.777 L 215.378,-172.885 L 218.788,-172.885 L 218.788,-161.777 z
M 229.864,-161.777 L 229.864,-172.885 L 238.222,-172.885 L 238.222,-170.322 L 233.209,-170.322 L 233.209,-168.71
 L 237.262,-168.71 L 237.262,-166.245 L 233.209,-166.245 L 233.209,-164.43 L 238.222,-164.43 L 238.222,-161.777
 z
M 245.668,-161.777 L 245.668,-172.885 L 248.891,-172.885 L 251.479,-168.816 L 251.691,-168.477 L 251.888,-168.148
 L 252.071,-167.831 L 252.238,-167.526 L 252.391,-167.233 L 252.528,-166.952 L 252.651,-166.684 L 252.582,-167.093
 L 252.524,-167.504 L 252.476,-167.918 L 252.439,-168.334 L 252.412,-168.752 L 252.396,-169.173 L 252.39,-169.598
 L 252.39,-172.885 L 255.165,-172.885 L 255.165,-161.777 L 252.39,-161.777 L 249.347,-166.684 L 249.179,-166.961
 L 249.012,-167.255 L 248.844,-167.566 L 248.676,-167.894 L 248.507,-168.239 L 248.337,-168.6 L 248.167,-168.979
 L 248.238,-168.679 L 248.298,-168.391 L 248.348,-168.117 L 248.386,-167.857 L 248.413,-167.609 L 248.43,-167.376
 L 248.435,-167.156 L 248.435,-161.777 z
M 215.518,-145.165 L 214.47,-145.599 L 213.572,-146.246 L 212.841,-147.09 L 212.296,-148.116 L 211.956,-149.31
 L 211.838,-150.655 L 211.947,-151.955 L 212.266,-153.132 L 212.787,-154.163 L 213.5,-155.026 L 214.396,-155.698
 L 215.464,-156.156 L 216.697,-156.376 L 216.697,-153.788 L 216.383,-153.615 L 216.116,-153.346 L 215.898,-152.981
 L 215.728,-152.521 L 215.606,-151.965 L 215.533,-151.313 L 215.509,-150.566 L 215.533,-149.852 L 215.606,-149.232
 L 215.728,-148.705 L 215.898,-148.272 L 216.116,-147.932 L 216.383,-147.685 L 216.697,-147.53 L 216.697,-144.958
 z
M 217.682,-147.563 L 217.803,-147.618 L 217.917,-147.686 L 218.022,-147.767 L 218.12,-147.862 L 218.21,-147.969
 L 218.291,-148.089 L 218.365,-148.222 L 218.465,-148.46 L 218.55,-148.751 L 218.618,-149.093 L 218.672,-149.486
 L 218.709,-149.93 L 218.732,-150.426 L 218.74,-150.973 L 218.718,-151.616 L 218.654,-152.178 L 218.546,-152.66
 L 218.395,-153.061 L 218.201,-153.382 L 217.963,-153.621 L 217.682,-153.78 L 217.682,-156.376 L 218.83,-156.161
 L 219.85,-155.727 L 220.725,-155.088 L 221.435,-154.259 L 221.965,-153.255 L 222.296,-152.09 L 222.41,-150.777
 L 222.295,-149.426 L 221.964,-148.221 L 221.433,-147.179 L 220.721,-146.317 L 219.847,-145.649 L 218.828,-145.194
 L 217.682,-144.967 z
M 232.185,-145.165 L 231.137,-145.599 L 230.238,-146.246 L 229.508,-147.09 L 228.963,-148.116 L 228.623,-149.31
 L 228.505,-150.655 L 228.614,-151.955 L 228.933,-153.132 L 229.454,-154.163 L 230.167,-155.026 L 231.062,-155.698
 L 232.131,-156.156 L 233.364,-156.376 L 233.364,-153.788 L 233.049,-153.615 L 232.783,-153.346 L 232.565,-152.981
 L 232.395,-152.521 L 232.273,-151.965 L 232.2,-151.313 L 232.175,-150.566 L 232.2,-149.852 L 232.273,-149.232
 L 232.395,-148.705 L 232.565,-148.272 L 232.783,-147.932 L 233.049,-147.685 L 233.364,-147.53 L 233.364,-144.958
 z
M 234.348,-147.563 L 234.47,-147.618 L 234.583,-147.686 L 234.689,-147.767 L 234.787,-147.862 L 234.876,-147.969
 L 234.958,-148.089 L 235.032,-148.222 L 235.132,-148.46 L 235.216,-148.751 L 235.285,-149.093 L 235.338,-149.486
 L 235.376,-149.93 L 235.399,-150.426 L 235.406,-150.973 L 235.385,-151.616 L 235.32,-152.178 L 235.213,-152.66
 L 235.062,-153.061 L 234.868,-153.382 L 234.63,-153.621 L 234.348,-153.78 L 234.348,-156.376 L 235.497,-156.161
 L 236.517,-155.727 L 237.391,-155.088 L 238.102,-154.259 L 238.632,-153.255 L 238.962,-152.09 L 239.077,-150.777
 L 238.962,-149.426 L 238.63,-148.221 L 238.1,-147.179 L 237.388,-146.317 L 236.513,-145.649 L 235.494,-145.194
 L 234.348,-144.967 z
M 48.7522,-145.11 L 45.1552,-156.219 L 48.7522,-156.219 L 50.5018,-150.164 L 50.5532,-150.011 L 50.6025,-149.859
 L 50.6499,-149.707 L 50.6952,-149.556 L 50.7385,-149.406 L 50.7799,-149.256 L 50.8192,-149.106 L 52.87,-156.219
 L 55.6777,-156.219 L 52.2272,-145.11 z
M 63.1972,-145.11 L 63.1972,-156.219 L 71.5549,-156.219 L 71.5549,-153.655 L 66.542,-153.655 L 66.542,-152.044
 L 70.5947,-152.044 L 70.5947,-149.578 L 66.542,-149.578 L 66.542,-147.763 L 71.5549,-147.763 L 71.5549,-145.11
 z
M 79.8639,-145.11 L 79.8639,-156.219 L 88.2216,-156.219 L 88.2216,-153.655 L 83.2087,-153.655 L 83.2087,-152.044
 L 87.2614,-152.044 L 87.2614,-149.578 L 83.2087,-149.578 L 83.2087,-147.763 L 88.2216,-147.763 L 88.2216,-145.11
 z
M 95.6518,-145.11 L 95.6518,-156.219 L 101.454,-156.219 L 102.464,-156.147 L 103.347,-155.934 L 104.092,-155.582
 L 104.689,-155.093 L 105.127,-154.469 L 105.398,-153.712 L 105.491,-152.825 L 105.444,-152.234 L 105.303,-151.694
 L 105.069,-151.207 L 104.741,-150.772 L 104.32,-150.389 L 103.805,-150.059 L 103.196,-149.781 L 105.645,-145.11
 L 102.423,-145.11 L 100.689,-149.358 L 100.046,-149.358 L 100.046,-151.735 L 100.29,-151.735 L 100.741,-151.754
 L 101.116,-151.813 L 101.419,-151.916 L 101.651,-152.063 L 101.814,-152.258 L 101.911,-152.503 L 101.942,-152.801
 L 101.927,-153.026 L 101.87,-153.242 L 101.755,-153.439 L 101.567,-153.609 L 101.289,-153.741 L 100.907,-153.828
 L 100.404,-153.859 L 99.0616,-153.859 L 99.0616,-145.11 z
M 115.468,-145.11 L 115.468,-153.557 L 113.165,-153.557 L 113.165,-156.219 L 121.002,-156.219 L 121.002,-153.557
 L 118.699,-153.557 L 118.699,-145.11 z
M 132.045,-145.11 L 132.045,-156.219 L 135.455,-156.219 L 135.455,-145.11 z
M 146.531,-145.11 L 146.531,-156.219 L 154.888,-156.219 L 154.888,-153.655 L 149.875,-153.655 L 149.875,-152.044
 L 153.928,-152.044 L 153.928,-149.578 L 149.875,-149.578 L 149.875,-147.763 L 154.888,-147.763 L 154.888,-145.11
 z
M 162.335,-145.11 L 162.335,-156.219 L 165.557,-156.219 L 168.145,-152.15 L 168.358,-151.81 L 168.555,-151.481
 L 168.737,-151.164 L 168.905,-150.859 L 169.057,-150.566 L 169.195,-150.285 L 169.317,-150.017 L 169.249,-150.427
 L 169.191,-150.838 L 169.143,-151.251 L 169.105,-151.667 L 169.079,-152.086 L 169.062,-152.507 L 169.057,-152.931
 L 169.057,-156.219 L 171.832,-156.219 L 171.832,-145.11 L 169.057,-145.11 L 166.013,-150.017 L 165.846,-150.294
 L 165.678,-150.588 L 165.51,-150.899 L 165.342,-151.227 L 165.173,-151.572 L 165.004,-151.934 L 164.833,-152.312
 L 164.904,-152.012 L 164.965,-151.725 L 165.014,-151.451 L 165.052,-151.19 L 165.08,-150.943 L 165.096,-150.709
 L 165.102,-150.489 L 165.102,-145.11 z
M 177.712,-145.11 L 177.712,-156.219 L 182.163,-156.219 L 183.774,-150.319 L 185.313,-156.219 L 189.788,-156.219
 L 189.788,-145.11 L 186.623,-145.11 L 186.623,-153.053 L 184.564,-145.11 L 182.399,-145.11 L 180.267,-153.053
 L 180.267,-145.11 z
M 198.753,-145.11 L 195.156,-156.219 L 198.753,-156.219 L 200.502,-150.164 L 200.553,-150.011 L 200.603,-149.859
 L 200.65,-149.707 L 200.695,-149.556 L 200.739,-149.406 L 200.78,-149.256 L 200.82,-149.106 L 202.87,-156.219
 L 205.678,-156.219 L 202.227,-145.11 z
M 245.652,-145.11 L 245.652,-156.219 L 251.454,-156.219 L 252.465,-156.147 L 253.347,-155.934 L 254.092,-155.582
 L 254.689,-155.093 L 255.128,-154.469 L 255.398,-153.712 L 255.491,-152.825 L 255.444,-152.234 L 255.304,-151.694
 L 255.069,-151.207 L 254.742,-150.772 L 254.32,-150.389 L 253.805,-150.059 L 253.196,-149.781 L 255.646,-145.11
 L 252.423,-145.11 L 250.69,-149.358 L 250.047,-149.358 L 250.047,-151.735 L 250.291,-151.735 L 250.741,-151.754
 L 251.116,-151.813 L 251.419,-151.916 L 251.651,-152.063 L 251.815,-152.258 L 251.911,-152.503 L 251.943,-152.801
 L 251.927,-153.026 L 251.87,-153.242 L 251.755,-153.439 L 251.567,-153.609 L 251.29,-153.741 L 250.908,-153.828
 L 250.405,-153.859 L 249.062,-153.859 L 249.062,-145.11 z
M 48.8511,-128.498 L 47.8033,-128.932 L 46.9048,-129.579 L 46.174,-130.423 L 45.6293,-131.45 L 45.2889,-132.643
 L 45.1714,-133.988 L 45.28,-135.288 L 45.5994,-136.465 L 46.1202,-137.497 L 46.833,-138.36 L 47.7285,-139.031
 L 48.7973,-139.489 L 50.0299,-139.709 L 50.0299,-137.122 L 49.7155,-136.948 L 49.4491,-136.679 L 49.2308,-136.314
 L 49.0608,-135.854 L 48.9392,-135.298 L 48.8661,-134.646 L 48.8418,-133.899 L 48.8661,-133.185 L 48.9392,-132.565
 L 49.0608,-132.039 L 49.2308,-131.605 L 49.4491,-131.265 L 49.7155,-131.018 L 50.0299,-130.863 L 50.0299,-128.292
 z
M 51.0146,-130.896 L 51.1361,-130.951 L 51.2497,-131.02 L 51.3554,-131.101 L 51.453,-131.195 L 51.5427,-131.302
 L 51.6245,-131.422 L 51.6982,-131.555 L 51.7984,-131.794 L 51.8827,-132.084 L 51.9514,-132.426 L 52.0046,-132.819
 L 52.0424,-133.264 L 52.065,-133.759 L 52.0725,-134.306 L 52.0511,-134.949 L 51.9866,-135.512 L 51.8791,-135.993
 L 51.7282,-136.394 L 51.5339,-136.715 L 51.2961,-136.954 L 51.0146,-137.113 L 51.0146,-139.709 L 52.1631,-139.494
 L 53.1834,-139.06 L 54.0577,-138.421 L 54.7685,-137.593 L 55.298,-136.588 L 55.6287,-135.423 L 55.7428,-134.11
 L 55.6283,-132.759 L 55.2966,-131.554 L 54.7659,-130.512 L 54.0543,-129.65 L 53.1798,-128.983 L 52.1605,-128.527
 L 51.0146,-128.3 z
M 65.4189,-128.443 L 61.8219,-139.552 L 65.4189,-139.552 L 67.1685,-133.497 L 67.2199,-133.344 L 67.2692,-133.192
 L 67.3166,-133.041 L 67.3619,-132.89 L 67.4052,-132.739 L 67.4466,-132.589 L 67.4859,-132.439 L 69.5367,-139.552
 L 72.3444,-139.552 L 68.8939,-128.443 z
M 79.8639,-128.443 L 79.8639,-139.552 L 88.2216,-139.552 L 88.2216,-136.988 L 83.2087,-136.988 L 83.2087,-135.377
 L 87.2614,-135.377 L 87.2614,-132.911 L 83.2087,-132.911 L 83.2087,-131.096 L 88.2216,-131.096 L 88.2216,-128.443
 z
M 95.6518,-128.443 L 95.6518,-139.552 L 101.454,-139.552 L 102.464,-139.48 L 103.347,-139.268 L 104.092,-138.916
 L 104.689,-138.427 L 105.127,-137.803 L 105.398,-137.046 L 105.491,-136.158 L 105.444,-135.567 L 105.303,-135.027
 L 105.069,-134.54 L 104.741,-134.105 L 104.32,-133.722 L 103.805,-133.392 L 103.196,-133.115 L 105.645,-128.443
 L 102.423,-128.443 L 100.689,-132.691 L 100.046,-132.691 L 100.046,-135.068 L 100.29,-135.068 L 100.741,-135.087
 L 101.116,-135.147 L 101.419,-135.249 L 101.651,-135.397 L 101.814,-135.592 L 101.911,-135.837 L 101.942,-136.134
 L 101.927,-136.359 L 101.87,-136.575 L 101.755,-136.772 L 101.567,-136.942 L 101.289,-137.075 L 100.907,-137.161
 L 100.404,-137.192 L 99.0616,-137.192 L 99.0616,-128.443 z
M 111.045,-128.443 L 111.045,-139.552 L 115.496,-139.552 L 117.108,-133.652 L 118.646,-139.552 L 123.122,-139.552
 L 123.122,-128.443 L 119.956,-128.443 L 119.956,-136.386 L 117.897,-128.443 L 115.732,-128.443 L 113.6,-136.386
 L 113.6,-128.443 z
M 129.042,-128.443 L 129.042,-139.552 L 132.452,-139.552 L 132.452,-135.467 L 135.056,-135.467 L 135.056,-139.552
 L 138.466,-139.552 L 138.466,-128.443 L 135.056,-128.443 L 135.056,-132.765 L 132.452,-132.765 L 132.452,-128.443
 z
M 145.111,-128.443 L 148.545,-139.552 L 152.15,-139.552 L 153.892,-134.002 L 150.669,-134.002 L 150.026,-136.28
 L 149.123,-133.058 L 150.221,-133.058 L 150.221,-133.017 L 154.193,-133.017 L 155.625,-128.443 L 152.15,-128.443
 L 151.523,-130.633 L 148.545,-130.633 L 147.878,-128.443 z
M 163.564,-128.443 L 163.564,-139.552 L 166.973,-139.552 L 166.973,-131.17 L 171.352,-131.17 L 171.352,-128.443
 z
M 180.161,-128.443 L 180.161,-139.552 L 188.193,-139.552 L 188.193,-136.907 L 183.482,-136.907 L 183.482,-135.1
 L 187.103,-135.1 L 187.103,-132.602 L 183.482,-132.602 L 183.482,-128.443 z
M 195.758,-128.443 L 195.758,-139.552 L 200.055,-139.552 L 201.54,-139.4 L 202.795,-138.969 L 203.82,-138.301
 L 204.616,-137.435 L 205.184,-136.412 L 205.524,-135.27 L 205.637,-134.051 L 205.507,-132.695 L 205.129,-131.487
 L 204.525,-130.45 L 203.716,-129.605 L 202.723,-128.974 L 201.566,-128.58 L 200.266,-128.443 L 200.152,-128.443
 L 200.152,-130.999 L 200.599,-131.093 L 201.005,-131.314 L 201.359,-131.654 L 201.653,-132.106 L 201.875,-132.663
 L 202.016,-133.316 L 202.065,-134.059 L 202.022,-134.733 L 201.894,-135.356 L 201.684,-135.908 L 201.392,-136.37
 L 201.023,-136.724 L 200.576,-136.95 L 200.055,-137.029 L 199.168,-137.029 L 199.168,-128.443 z
M 213.197,-128.443 L 213.197,-139.552 L 221.555,-139.552 L 221.555,-136.988 L 216.542,-136.988 L 216.542,-135.377
 L 220.595,-135.377 L 220.595,-132.911 L 216.542,-132.911 L 216.542,-131.096 L 221.555,-131.096 L 221.555,-128.443
 z
M 229.864,-128.443 L 229.864,-139.552 L 238.222,-139.552 L 238.222,-136.988 L 233.209,-136.988 L 233.209,-135.377
 L 237.262,-135.377 L 237.262,-132.911 L 233.209,-132.911 L 233.209,-131.096 L 238.222,-131.096 L 238.222,-128.443
 z
M 245.668,-128.443 L 245.668,-139.552 L 248.891,-139.552 L 251.479,-135.483 L 251.691,-135.143 L 251.888,-134.815
 L 252.071,-134.498 L 252.238,-134.192 L 252.391,-133.899 L 252.528,-133.619 L 252.651,-133.351 L 252.582,-133.76
 L 252.524,-134.171 L 252.476,-134.584 L 252.439,-135 L 252.412,-135.419 L 252.396,-135.84 L 252.39,-136.264
 L 252.39,-139.552 L 255.165,-139.552 L 255.165,-128.443 L 252.39,-128.443 L 249.347,-133.351 L 249.179,-133.628
 L 249.012,-133.922 L 248.844,-134.233 L 248.676,-134.56 L 248.507,-134.905 L 248.337,-135.267 L 248.167,-135.646
 L 248.238,-135.345 L 248.298,-135.058 L 248.348,-134.784 L 248.386,-134.523 L 248.413,-134.276 L 248.43,-134.042
 L 248.435,-133.823 L 248.435,-128.443 z
M 48.801,-111.777 L 48.801,-120.224 L 46.498,-120.224 L 46.498,-122.885 L 54.3349,-122.885 L 54.3349,-120.224
 L 52.0318,-120.224 L 52.0318,-111.777 z
M 62.652,-111.777 L 59.6978,-122.885 L 62.9042,-122.885 L 64.4586,-116.481 L 65.9722,-122.885 L 68.6578,-122.885
 L 70.3017,-116.481 L 71.8561,-122.885 L 74.4684,-122.885 L 71.5224,-111.777 L 68.6578,-111.777 L 67.1035,-117.905
 L 65.6387,-111.777 z
M 79.8639,-111.777 L 79.8639,-122.885 L 88.2216,-122.885 L 88.2216,-120.322 L 83.2087,-120.322 L 83.2087,-118.71
 L 87.2614,-118.71 L 87.2614,-116.244 L 83.2087,-116.244 L 83.2087,-114.43 L 88.2216,-114.43 L 88.2216,-111.777
 z
M 96.5306,-111.777 L 96.5306,-122.885 L 104.888,-122.885 L 104.888,-120.322 L 99.8754,-120.322 L 99.8754,-118.71
 L 103.928,-118.71 L 103.928,-116.244 L 99.8754,-116.244 L 99.8754,-114.43 L 104.888,-114.43 L 104.888,-111.777
 z
M 112.786,-111.777 L 112.786,-122.885 L 115.928,-122.885 L 115.928,-118.629 L 117.506,-118.629 L 117.815,-118.657
 L 118.066,-118.736 L 118.264,-118.857 L 118.411,-119.01 L 118.512,-119.187 L 118.57,-119.377 L 118.589,-119.573
 L 118.565,-119.819 L 118.495,-120.027 L 118.379,-120.198 L 118.216,-120.33 L 118.006,-120.425 L 117.751,-120.482
 L 117.449,-120.501 L 116.904,-120.501 L 116.904,-122.885 L 118.426,-122.885 L 119.351,-122.804 L 120.119,-122.574
 L 120.736,-122.218 L 121.207,-121.757 L 121.537,-121.215 L 121.731,-120.612 L 121.795,-119.972 L 121.757,-119.506
 L 121.642,-119.065 L 121.451,-118.658 L 121.184,-118.293 L 120.842,-117.98 L 120.424,-117.728 L 119.932,-117.547
 L 120.505,-117.365 L 120.989,-117.121 L 121.385,-116.814 L 121.693,-116.444 L 121.913,-116.012 L 122.044,-115.517
 L 122.088,-114.959 L 122.04,-114.262 L 121.874,-113.605 L 121.555,-113.013 L 121.049,-112.509 L 120.323,-112.119
 L 119.344,-111.866 L 118.076,-111.777 L 116.904,-111.777 L 116.904,-114.251 L 117.588,-114.251 L 117.913,-114.279
 L 118.184,-114.358 L 118.404,-114.48 L 118.572,-114.638 L 118.691,-114.823 L 118.761,-115.027 L 118.784,-115.244
 L 118.764,-115.462 L 118.699,-115.671 L 118.584,-115.862 L 118.41,-116.027 L 118.171,-116.155 L 117.862,-116.239
 L 117.474,-116.269 L 115.928,-116.269 L 115.928,-111.777 z
M 129.091,-111.777 L 129.091,-122.885 L 133.388,-122.885 L 134.873,-122.733 L 136.128,-122.303 L 137.153,-121.635
 L 137.949,-120.769 L 138.517,-119.745 L 138.857,-118.603 L 138.97,-117.384 L 138.84,-116.028 L 138.462,-114.82
 L 137.858,-113.783 L 137.049,-112.938 L 136.056,-112.308 L 134.899,-111.913 L 133.599,-111.777 L 133.486,-111.777
 L 133.486,-114.332 L 133.932,-114.426 L 134.338,-114.647 L 134.693,-114.987 L 134.986,-115.439 L 135.208,-115.996
 L 135.349,-116.649 L 135.398,-117.392 L 135.355,-118.066 L 135.227,-118.689 L 135.017,-119.241 L 134.726,-119.703
 L 134.356,-120.057 L 133.909,-120.283 L 133.388,-120.362 L 132.501,-120.362 L 132.501,-111.777 z
M 145.652,-111.777 L 145.652,-122.885 L 151.454,-122.885 L 152.464,-122.814 L 153.347,-122.601 L 154.092,-122.249
 L 154.689,-121.76 L 155.127,-121.136 L 155.398,-120.379 L 155.491,-119.492 L 155.444,-118.9 L 155.303,-118.361
 L 155.069,-117.873 L 154.741,-117.438 L 154.32,-117.056 L 153.805,-116.726 L 153.196,-116.448 L 155.645,-111.777
 L 152.423,-111.777 L 150.689,-116.025 L 150.046,-116.025 L 150.046,-118.401 L 150.29,-118.401 L 150.741,-118.42
 L 151.116,-118.48 L 151.419,-118.582 L 151.651,-118.73 L 151.814,-118.925 L 151.911,-119.17 L 151.943,-119.467
 L 151.927,-119.692 L 151.87,-119.908 L 151.755,-120.106 L 151.567,-120.275 L 151.289,-120.408 L 150.907,-120.494
 L 150.404,-120.525 L 149.062,-120.525 L 149.062,-111.777 z
M 165.378,-111.777 L 165.378,-122.885 L 168.788,-122.885 L 168.788,-111.777 z
M 179.864,-111.777 L 179.864,-122.885 L 188.222,-122.885 L 188.222,-120.322 L 183.209,-120.322 L 183.209,-118.71
 L 187.262,-118.71 L 187.262,-116.244 L 183.209,-116.244 L 183.209,-114.43 L 188.222,-114.43 L 188.222,-111.777
 z
M 198.753,-111.777 L 195.156,-122.885 L 198.753,-122.885 L 200.502,-116.83 L 200.553,-116.677 L 200.603,-116.525
 L 200.65,-116.374 L 200.695,-116.223 L 200.739,-116.073 L 200.78,-115.923 L 200.82,-115.773 L 202.87,-122.885
 L 205.678,-122.885 L 202.227,-111.777 z
M 215.378,-111.777 L 215.378,-122.885 L 218.788,-122.885 L 218.788,-111.777 z
M 229.864,-111.777 L 229.864,-122.885 L 238.222,-122.885 L 238.222,-120.322 L 233.209,-120.322 L 233.209,-118.71
 L 237.262,-118.71 L 237.262,-116.244 L 233.209,-116.244 L 233.209,-114.43 L 238.222,-114.43 L 238.222,-111.777
 z
M 245.652,-111.777 L 245.652,-122.885 L 251.454,-122.885 L 252.465,-122.814 L 253.347,-122.601 L 254.092,-122.249
 L 254.689,-121.76 L 255.128,-121.136 L 255.398,-120.379 L 255.491,-119.492 L 255.444,-118.9 L 255.304,-118.361
 L 255.069,-117.873 L 254.742,-117.438 L 254.32,-117.056 L 253.805,-116.726 L 253.196,-116.448 L 255.646,-111.777
 L 252.423,-111.777 L 250.69,-116.025 L 250.047,-116.025 L 250.047,-118.401 L 250.291,-118.401 L 250.741,-118.42
 L 251.116,-118.48 L 251.419,-118.582 L 251.651,-118.73 L 251.815,-118.925 L 251.911,-119.17 L 251.943,-119.467
 L 251.927,-119.692 L 251.87,-119.908 L 251.755,-120.106 L 251.567,-120.275 L 251.29,-120.408 L 250.908,-120.494
 L 250.405,-120.525 L 249.062,-120.525 L 249.062,-111.777 z
M 149.091,-95.0123 L 148.121,-95.2199 L 147.278,-95.5657 L 146.562,-96.0496 L 145.973,-96.6714 L 145.511,-97.4311
 L 145.176,-98.3285 L 148.341,-98.8981 L 148.482,-98.5419 L 148.673,-98.2404 L 148.915,-97.9938 L 149.208,-97.8019
 L 149.552,-97.6649 L 149.947,-97.5827 L 150.392,-97.5553 L 150.733,-97.5693 L 151.021,-97.6111 L 151.257,-97.6809
 L 151.441,-97.7785 L 151.573,-97.9041 L 151.652,-98.0576 L 151.678,-98.239 L 151.672,-98.3371 L 151.654,-98.4292
 L 151.624,-98.5154 L 151.582,-98.5956 L 151.529,-98.6699 L 151.463,-98.7381 L 151.385,-98.8004 L 151.289,-98.8553
 L 151.174,-98.9082 L 151.042,-98.9595 L 150.89,-99.0092 L 150.719,-99.0575 L 150.529,-99.1045 L 150.319,-99.1504
 L 149.528,-99.3178 L 148.821,-99.4992 L 148.2,-99.6945 L 147.664,-99.9037 L 147.213,-100.127 L 146.847,-100.364
 L 146.567,-100.615 L 146.347,-100.88 L 146.161,-101.157 L 146.008,-101.448 L 145.89,-101.751 L 145.805,-102.068
 L 145.754,-102.397 L 145.737,-102.739 L 145.837,-103.6 L 146.131,-104.378 L 146.616,-105.055 L 147.287,-105.614
 L 148.137,-106.035 L 149.163,-106.301 L 150.36,-106.393 L 151.282,-106.337 L 152.111,-106.17 L 152.846,-105.892
 L 153.487,-105.502 L 154.034,-105.001 L 154.486,-104.389 L 154.844,-103.667 L 152.02,-102.813 L 151.876,-103.107
 L 151.695,-103.357 L 151.477,-103.562 L 151.223,-103.722 L 150.931,-103.836 L 150.603,-103.905 L 150.238,-103.927
 L 149.943,-103.913 L 149.693,-103.871 L 149.488,-103.801 L 149.328,-103.703 L 149.214,-103.576 L 149.146,-103.42
 L 149.123,-103.236 L 149.128,-103.151 L 149.143,-103.071 L 149.168,-102.997 L 149.204,-102.928 L 149.25,-102.865
 L 149.307,-102.807 L 149.375,-102.756 L 149.458,-102.707 L 149.559,-102.66 L 149.68,-102.613 L 149.819,-102.567
 L 149.978,-102.521 L 150.155,-102.475 L 150.352,-102.43 L 151.385,-102.205 L 152.223,-101.999 L 152.899,-101.792
 L 153.441,-101.565 L 153.882,-101.3 L 154.253,-100.976 L 154.583,-100.575 L 154.732,-100.342 L 154.858,-100.099
 L 154.962,-99.8451 L 155.042,-99.58 L 155.099,-99.304 L 155.133,-99.017 L 155.145,-98.7191 L 155.026,-97.8027
 L 154.681,-96.9882 L 154.127,-96.2899 L 153.383,-95.722 L 152.467,-95.2987 L 151.396,-95.0343 L 150.189,-94.943
 z
M 82.3209,-95.033 L 81.9755,-95.0494 L 81.6395,-95.0768 L 81.3134,-95.1152 L 80.9975,-95.1645 L 80.6919,-95.2248
 L 80.3969,-95.2961 L 80.3969,-97.949 L 80.6003,-97.8942 L 80.799,-97.8482 L 80.9932,-97.8109 L 81.1833,-97.7821
 L 81.3695,-97.7618 L 81.5522,-97.7496 L 81.7316,-97.7456 L 82.1139,-97.7703 L 82.4265,-97.849 L 82.6733,-97.989
 L 82.8583,-98.1977 L 82.9855,-98.4823 L 83.0589,-98.85 L 83.0825,-99.3082 L 83.0825,-106.307 L 86.3621,-106.307
 L 86.3621,-99.3082 L 86.3422,-98.4562 L 86.2764,-97.7322 L 86.1559,-97.1217 L 85.9715,-96.6102 L 85.7144,-96.183
 L 85.3756,-95.8258 L 84.9461,-95.524 L 84.6935,-95.3914 L 84.417,-95.2796 L 84.1166,-95.1885 L 83.7922,-95.1178
 L 83.4439,-95.0676 L 83.0717,-95.0375 L 82.6756,-95.0275 z
M 48.7522,-95.1101 L 45.1552,-106.218 L 48.7522,-106.218 L 50.5018,-100.164 L 50.5532,-100.011 L 50.6025,-99.8586
 L 50.6499,-99.7072 L 50.6952,-99.5564 L 50.7385,-99.406 L 50.7799,-99.2558 L 50.8192,-99.1058 L 52.87,-106.218
 L 55.6777,-106.218 L 52.2272,-95.1101 z
M 65.3782,-95.1101 L 65.3782,-106.218 L 68.788,-106.218 L 68.788,-95.1101 z
M 96.8277,-95.1101 L 96.8277,-106.218 L 104.86,-106.218 L 104.86,-103.574 L 100.148,-103.574 L 100.148,-101.767
 L 103.769,-101.767 L 103.769,-99.2686 L 100.148,-99.2686 L 100.148,-95.1101 z
M 112.461,-95.1101 L 112.461,-97.2341 L 117.384,-103.647 L 112.835,-103.647 L 112.835,-106.218 L 121.551,-106.218
 L 121.551,-104.062 L 116.774,-97.7305 L 121.706,-97.7305 L 121.706,-95.1101 z
M 129.864,-95.1101 L 129.864,-106.218 L 138.222,-106.218 L 138.222,-103.655 L 133.209,-103.655 L 133.209,-102.044
 L 137.262,-102.044 L 137.262,-99.5778 L 133.209,-99.5778 L 133.209,-97.763 L 138.222,-97.763 L 138.222,-95.1101
 z
M 162.461,-95.1101 L 162.461,-97.2341 L 167.384,-103.647 L 162.835,-103.647 L 162.835,-106.218 L 171.551,-106.218
 L 171.551,-104.062 L 166.774,-97.7305 L 171.706,-97.7305 L 171.706,-95.1101 z
M 179.864,-95.1101 L 179.864,-106.218 L 188.222,-106.218 L 188.222,-103.655 L 183.209,-103.655 L 183.209,-102.044
 L 187.262,-102.044 L 187.262,-99.5778 L 183.209,-99.5778 L 183.209,-97.763 L 188.222,-97.763 L 188.222,-95.1101
 z
M 198.753,-95.1101 L 195.156,-106.218 L 198.753,-106.218 L 200.502,-100.164 L 200.553,-100.011 L 200.603,-99.8586
 L 200.65,-99.7072 L 200.695,-99.5564 L 200.739,-99.406 L 200.78,-99.2558 L 200.82,-99.1058 L 202.87,-106.218
 L 205.678,-106.218 L 202.227,-95.1101 z
M 213.197,-95.1101 L 213.197,-106.218 L 221.555,-106.218 L 221.555,-103.655 L 216.542,-103.655 L 216.542,-102.044
 L 220.595,-102.044 L 220.595,-99.5778 L 216.542,-99.5778 L 216.542,-97.763 L 221.555,-97.763 L 221.555,-95.1101
 z
M 229.002,-95.1101 L 229.002,-106.218 L 232.224,-106.218 L 234.812,-102.15 L 235.024,-101.81 L 235.222,-101.481
 L 235.404,-101.164 L 235.571,-100.859 L 235.724,-100.566 L 235.861,-100.285 L 235.984,-100.017 L 235.916,-100.426
 L 235.858,-100.838 L 235.81,-101.251 L 235.772,-101.667 L 235.745,-102.085 L 235.729,-102.507 L 235.724,-102.931
 L 235.724,-106.218 L 238.499,-106.218 L 238.499,-95.1101 L 235.724,-95.1101 L 232.68,-100.017 L 232.513,-100.294
 L 232.345,-100.588 L 232.177,-100.899 L 232.009,-101.227 L 231.84,-101.572 L 231.67,-101.934 L 231.5,-102.312
 L 231.571,-102.012 L 231.632,-101.724 L 231.681,-101.45 L 231.719,-101.19 L 231.747,-100.943 L 231.763,-100.709
 L 231.769,-100.489 L 231.769,-95.1101 z
M 246.897,-95.1101 L 246.897,-106.218 L 250.307,-106.218 L 250.307,-97.8364 L 254.685,-97.8364 L 254.685,-95.1101
 z
M 66.1338,-78.4038 L 65.0433,-78.7778 L 64.1105,-79.3858 L 63.3536,-80.2154 L 62.7905,-81.2539 L 62.4394,-82.4889
 L 62.3183,-83.9078 L 62.4298,-85.3269 L 62.758,-86.5846 L 63.2933,-87.6603 L 64.0262,-88.5331 L 64.9472,-89.1822
 L 66.0467,-89.587 L 67.3151,-89.7265 L 68.4914,-89.6208 L 69.5017,-89.3136 L 70.3454,-88.8194 L 71.022,-88.153
 L 71.5309,-87.329 L 71.8715,-86.3621 L 72.0433,-85.2669 L 68.8613,-85.0959 L 68.8225,-85.6816 L 68.7126,-86.1651
 L 68.541,-86.5508 L 68.3173,-86.8431 L 68.0511,-87.0464 L 67.7518,-87.1651 L 67.429,-87.2037 L 67.0015,-87.1375
 L 66.6398,-86.9388 L 66.3439,-86.608 L 66.1137,-86.145 L 65.9493,-85.55 L 65.8506,-84.8232 L 65.8177,-83.9648
 L 65.8262,-83.469 L 65.8518,-83.0211 L 65.8946,-82.621 L 65.9548,-82.2688 L 66.0325,-81.9643 L 66.1278,-81.7077
 L 66.2409,-81.4989 L 66.3664,-81.3271 L 66.506,-81.1813 L 66.6594,-81.0616 L 66.8268,-80.9684 L 67.0082,-80.9015
 L 67.2035,-80.8614 L 67.4128,-80.8479 L 67.7755,-80.8853 L 68.0894,-80.9976 L 68.3544,-81.1849 L 68.5707,-81.4473
 L 68.7381,-81.7851 L 68.8567,-82.1983 L 68.9265,-82.6872 L 72.0433,-82.5 L 71.8234,-81.4076 L 71.4259,-80.4704
 L 70.8678,-79.693 L 70.1657,-79.0803 L 69.3365,-78.6368 L 68.397,-78.3672 L 67.3639,-78.2763 z
M 148.933,-78.4053 L 147.88,-78.782 L 146.97,-79.391 L 146.225,-80.217 L 145.665,-81.2445 L 145.314,-82.4582
 L 145.192,-83.8428 L 145.302,-85.2141 L 145.631,-86.4612 L 146.177,-87.5525 L 146.94,-88.4562 L 147.918,-89.1408
 L 149.11,-89.5748 L 150.514,-89.7265 L 151.586,-89.6417 L 152.532,-89.3913 L 153.35,-88.9808 L 154.037,-88.4161
 L 154.59,-87.7027 L 155.007,-86.8463 L 155.283,-85.8528 L 151.979,-85.5273 L 151.888,-85.9872 L 151.756,-86.3763
 L 151.581,-86.6947 L 151.364,-86.9424 L 151.104,-87.1192 L 150.802,-87.2254 L 150.457,-87.2607 L 150.013,-87.1955
 L 149.637,-86.9998 L 149.329,-86.6739 L 149.09,-86.2179 L 148.918,-85.6319 L 148.815,-84.9161 L 148.781,-84.0705
 L 148.792,-83.5464 L 148.825,-83.076 L 148.88,-82.6595 L 148.956,-82.2968 L 149.055,-81.9879 L 149.176,-81.7328
 L 149.318,-81.5316 L 149.476,-81.3666 L 149.643,-81.2274 L 149.819,-81.1139 L 150.005,-81.0258 L 150.2,-80.9631
 L 150.405,-80.9256 L 150.62,-80.9131 L 150.961,-80.9449 L 151.275,-81.0383 L 151.552,-81.1898 L 151.784,-81.3963
 L 151.961,-81.6545 L 152.075,-81.9611 L 152.118,-82.3128 L 150.278,-82.3128 L 150.278,-84.6728 L 155.283,-84.6728
 L 155.283,-78.4472 L 153.615,-78.4472 L 153.555,-78.6411 L 153.494,-78.8253 L 153.432,-79.0001 L 153.368,-79.1658
 L 153.303,-79.3226 L 153.236,-79.4709 L 153.167,-79.611 L 152.851,-79.2577 L 152.494,-78.9585 L 152.098,-78.7133
 L 151.661,-78.5223 L 151.184,-78.3858 L 150.666,-78.3037 L 150.107,-78.2763 z
M 45.1105,-78.4434 L 48.5448,-89.5518 L 52.1498,-89.5518 L 53.8914,-84.0016 L 50.6688,-84.0016 L 50.0258,-86.2803
 L 49.1226,-83.0576 L 50.2212,-83.0576 L 50.2212,-83.0169 L 54.1924,-83.0169 L 55.6248,-78.4434 L 52.1498,-78.4434
 L 51.5233,-80.6325 L 48.5448,-80.6325 L 47.8774,-78.4434 z
M 79.0419,-78.4434 L 79.0419,-89.5518 L 82.4517,-89.5518 L 82.4517,-85.4665 L 85.056,-85.4665 L 85.056,-89.5518
 L 88.4658,-89.5518 L 88.4658,-78.4434 L 85.056,-78.4434 L 85.056,-82.7647 L 82.4517,-82.7647 L 82.4517,-78.4434
 z
M 98.8011,-78.4434 L 98.8011,-86.8906 L 96.4981,-86.8906 L 96.4981,-89.5518 L 104.335,-89.5518 L 104.335,-86.8906
 L 102.032,-86.8906 L 102.032,-78.4434 z
M 112.335,-78.4434 L 112.335,-89.5518 L 115.557,-89.5518 L 118.145,-85.4828 L 118.357,-85.143 L 118.555,-84.8145
 L 118.737,-84.4975 L 118.905,-84.1924 L 119.057,-83.8993 L 119.195,-83.6186 L 119.317,-83.3506 L 119.249,-83.7597
 L 119.191,-84.1709 L 119.143,-84.5844 L 119.105,-85.0003 L 119.078,-85.4188 L 119.062,-85.84 L 119.057,-86.264
 L 119.057,-89.5518 L 121.832,-89.5518 L 121.832,-78.4434 L 119.057,-78.4434 L 116.013,-83.3506 L 115.846,-83.6276
 L 115.678,-83.9216 L 115.51,-84.2325 L 115.342,-84.5603 L 115.173,-84.9051 L 115.003,-85.2668 L 114.833,-85.6455
 L 114.904,-85.3451 L 114.965,-85.0578 L 115.014,-84.7837 L 115.052,-84.523 L 115.08,-84.2758 L 115.096,-84.0423
 L 115.102,-83.8226 L 115.102,-78.4434 z
M 129.864,-78.4434 L 129.864,-89.5518 L 138.222,-89.5518 L 138.222,-86.9883 L 133.209,-86.9883 L 133.209,-85.377
 L 137.262,-85.377 L 137.262,-82.9111 L 133.209,-82.9111 L 133.209,-81.0963 L 138.222,-81.0963 L 138.222,-78.4434
 z
M 163.197,-78.4434 L 163.197,-89.5518 L 171.555,-89.5518 L 171.555,-86.9883 L 166.542,-86.9883 L 166.542,-85.377
 L 170.595,-85.377 L 170.595,-82.9111 L 166.542,-82.9111 L 166.542,-81.0963 L 171.555,-81.0963 L 171.555,-78.4434
 z
M 179.001,-78.4434 L 179.001,-89.5518 L 182.224,-89.5518 L 184.812,-85.4828 L 185.024,-85.143 L 185.222,-84.8145
 L 185.404,-84.4975 L 185.571,-84.1924 L 185.724,-83.8993 L 185.861,-83.6186 L 185.984,-83.3506 L 185.916,-83.7597
 L 185.858,-84.1709 L 185.81,-84.5844 L 185.772,-85.0003 L 185.745,-85.4188 L 185.729,-85.84 L 185.724,-86.264
 L 185.724,-89.5518 L 188.499,-89.5518 L 188.499,-78.4434 L 185.724,-78.4434 L 182.68,-83.3506 L 182.512,-83.6276
 L 182.345,-83.9216 L 182.177,-84.2325 L 182.009,-84.5603 L 181.84,-84.9051 L 181.67,-85.2668 L 181.5,-85.6455
 L 181.571,-85.3451 L 181.631,-85.0578 L 181.681,-84.7837 L 181.719,-84.523 L 181.747,-84.2758 L 181.763,-84.0423
 L 181.768,-83.8226 L 181.768,-78.4434 z
M 198.801,-78.4434 L 198.801,-86.8906 L 196.498,-86.8906 L 196.498,-89.5518 L 204.335,-89.5518 L 204.335,-86.8906
 L 202.032,-86.8906 L 202.032,-78.4434 z
M 215.378,-78.4434 L 215.378,-89.5518 L 218.788,-89.5518 L 218.788,-78.4434 z
M 229.864,-78.4434 L 229.864,-89.5518 L 238.222,-89.5518 L 238.222,-86.9883 L 233.209,-86.9883 L 233.209,-85.377
 L 237.262,-85.377 L 237.262,-82.9111 L 233.209,-82.9111 L 233.209,-81.0963 L 238.222,-81.0963 L 238.222,-78.4434
 z
M 245.668,-78.4434 L 245.668,-89.5518 L 248.891,-89.5518 L 251.479,-85.4828 L 251.691,-85.143 L 251.888,-84.8145
 L 252.071,-84.4975 L 252.238,-84.1924 L 252.391,-83.8993 L 252.528,-83.6186 L 252.651,-83.3506 L 252.582,-83.7597
 L 252.524,-84.1709 L 252.476,-84.5844 L 252.439,-85.0003 L 252.412,-85.4188 L 252.396,-85.84 L 252.39,-86.264
 L 252.39,-89.5518 L 255.165,-89.5518 L 255.165,-78.4434 L 252.39,-78.4434 L 249.347,-83.3506 L 249.179,-83.6276
 L 249.012,-83.9216 L 248.844,-84.2325 L 248.676,-84.5603 L 248.507,-84.9051 L 248.337,-85.2668 L 248.167,-85.6455
 L 248.238,-85.3451 L 248.298,-85.0578 L 248.348,-84.7837 L 248.386,-84.523 L 248.413,-84.2758 L 248.43,-84.0423
 L 248.435,-83.8226 L 248.435,-78.4434 z
M 216.03,-61.7627 L 215.023,-61.9736 L 214.165,-62.3347 L 213.47,-62.8538 L 212.954,-63.5388 L 212.633,-64.3975
 L 212.522,-65.4376 L 212.522,-72.9734 L 215.989,-72.9734 L 215.989,-65.8364 L 216.016,-65.416 L 216.097,-65.0669
 L 216.236,-64.7866 L 216.434,-64.5729 L 216.694,-64.4232 L 217.016,-64.3352 L 217.405,-64.3064 L 217.741,-64.3307
 L 218.041,-64.3991 L 218.303,-64.505 L 218.522,-64.6416 L 218.696,-64.8023 L 218.821,-64.9803 L 218.894,-65.1691
 L 218.914,-65.2766 L 218.93,-65.4108 L 218.943,-65.5714 L 218.954,-65.7579 L 218.961,-65.9703 L 218.966,-66.2081
 L 218.967,-66.4711 L 218.967,-72.9734 L 221.645,-72.9734 L 221.645,-65.6167 L 221.537,-64.5204 L 221.223,-63.6183
 L 220.721,-62.9009 L 220.048,-62.359 L 219.22,-61.9835 L 218.255,-61.7649 L 217.169,-61.6941 z
M 232.697,-61.7627 L 231.69,-61.9736 L 230.831,-62.3347 L 230.136,-62.8538 L 229.62,-63.5388 L 229.299,-64.3975
 L 229.189,-65.4376 L 229.189,-72.9734 L 232.656,-72.9734 L 232.656,-65.8364 L 232.682,-65.416 L 232.764,-65.0669
 L 232.903,-64.7866 L 233.101,-64.5729 L 233.36,-64.4232 L 233.683,-64.3352 L 234.072,-64.3064 L 234.407,-64.3307
 L 234.708,-64.3991 L 234.97,-64.505 L 235.189,-64.6416 L 235.363,-64.8023 L 235.488,-64.9803 L 235.561,-65.1691
 L 235.58,-65.2766 L 235.597,-65.4108 L 235.61,-65.5714 L 235.621,-65.7579 L 235.628,-65.9703 L 235.633,-66.2081
 L 235.634,-66.4711 L 235.634,-72.9734 L 238.312,-72.9734 L 238.312,-65.6167 L 238.203,-64.5204 L 237.89,-63.6183
 L 237.388,-62.9009 L 236.714,-62.359 L 235.887,-61.9835 L 234.921,-61.7649 L 233.836,-61.6941 z
M 46.5305,-61.7767 L 46.5305,-72.8851 L 54.8883,-72.8851 L 54.8883,-70.3216 L 49.8753,-70.3216 L 49.8753,-68.7103
 L 53.928,-68.7103 L 53.928,-66.2444 L 49.8753,-66.2444 L 49.8753,-64.4296 L 54.8883,-64.4296 L 54.8883,-61.7767
 z
M 63.5634,-61.7767 L 63.5634,-72.8851 L 66.9732,-72.8851 L 66.9732,-64.5029 L 71.3515,-64.5029 L 71.3515,-61.7767
 z
M 80.1609,-61.7767 L 80.1609,-72.8851 L 88.1931,-72.8851 L 88.1931,-70.2403 L 83.4813,-70.2403 L 83.4813,-68.4336
 L 87.1027,-68.4336 L 87.1027,-65.9351 L 83.4813,-65.9351 L 83.4813,-61.7767 z
M 98.8011,-61.7767 L 98.8011,-70.2239 L 96.4981,-70.2239 L 96.4981,-72.8851 L 104.335,-72.8851 L 104.335,-70.2239
 L 102.032,-70.2239 L 102.032,-61.7767 z
M 112.652,-61.7767 L 109.698,-72.8851 L 112.904,-72.8851 L 114.459,-66.4804 L 115.972,-72.8851 L 118.658,-72.8851
 L 120.302,-66.4804 L 121.856,-72.8851 L 124.468,-72.8851 L 121.522,-61.7767 L 118.658,-61.7767 L 117.104,-67.9046
 L 115.639,-61.7767 z
M 128.444,-61.7767 L 131.878,-72.8851 L 135.483,-72.8851 L 137.225,-67.335 L 134.002,-67.335 L 133.359,-69.6136
 L 132.456,-66.3909 L 133.555,-66.3909 L 133.555,-66.3502 L 137.526,-66.3502 L 138.958,-61.7767 L 135.483,-61.7767
 L 134.857,-63.9658 L 131.878,-63.9658 L 131.211,-61.7767 z
M 145.111,-61.7767 L 148.545,-72.8851 L 152.15,-72.8851 L 153.892,-67.335 L 150.669,-67.335 L 150.026,-69.6136
 L 149.123,-66.3909 L 150.221,-66.3909 L 150.221,-66.3502 L 154.193,-66.3502 L 155.625,-61.7767 L 152.15,-61.7767
 L 151.523,-63.9658 L 148.545,-63.9658 L 147.878,-61.7767 z
M 163.564,-61.7767 L 163.564,-72.8851 L 166.973,-72.8851 L 166.973,-64.5029 L 171.352,-64.5029 L 171.352,-61.7767
 z
M 180.161,-61.7767 L 180.161,-72.8851 L 188.193,-72.8851 L 188.193,-70.2403 L 183.482,-70.2403 L 183.482,-68.4336
 L 187.103,-68.4336 L 187.103,-65.9351 L 183.482,-65.9351 L 183.482,-61.7767 z
M 198.891,-61.7767 L 198.891,-66.4804 L 195.156,-72.8851 L 198.891,-72.8851 L 200.836,-69.2311 L 202.7,-72.8851
 L 205.678,-72.8851 L 202.203,-66.4804 L 202.203,-61.7767 z
M 245.652,-61.7767 L 245.652,-72.8851 L 251.454,-72.8851 L 252.465,-72.8137 L 253.347,-72.6009 L 254.092,-72.2489
 L 254.689,-71.7599 L 255.128,-71.1358 L 255.398,-70.379 L 255.491,-69.4915 L 255.444,-68.9001 L 255.304,-68.3607
 L 255.069,-67.8734 L 254.742,-67.4383 L 254.32,-67.0556 L 253.805,-66.7254 L 253.196,-66.4479 L 255.646,-61.7767
 L 252.423,-61.7767 L 250.69,-66.0247 L 250.047,-66.0247 L 250.047,-68.401 L 250.291,-68.401 L 250.741,-68.4204
 L 251.116,-68.48 L 251.419,-68.5823 L 251.651,-68.7298 L 251.815,-68.9248 L 251.911,-69.1698 L 251.943,-69.4671
 L 251.927,-69.6923 L 251.87,-69.9082 L 251.755,-70.1056 L 251.567,-70.2752 L 251.29,-70.4078 L 250.908,-70.4942
 L 250.405,-70.525 L 249.062,-70.525 L 249.062,-61.7767 z
M 48.207,-48.4558 L 48.207,-52.8747 L 52.626,-52.8747 L 52.626,-48.4558 z
M 64.8736,-48.4558 L 64.8736,-52.8747 L 69.2926,-52.8747 L 69.2926,-48.4558 z
M 81.5403,-48.4558 L 81.5403,-52.8747 L 85.9593,-52.8747 L 85.9593,-48.4558 z
M 98.2071,-48.4558 L 98.2071,-52.8747 L 102.626,-52.8747 L 102.626,-48.4558 z
M 114.874,-48.4558 L 114.874,-52.8747 L 119.293,-52.8747 L 119.293,-48.4558 z
M 131.54,-48.4558 L 131.54,-52.8747 L 135.959,-52.8747 L 135.959,-48.4558 z
M 148.207,-48.4558 L 148.207,-52.8747 L 152.626,-52.8747 L 152.626,-48.4558 z
M 164.874,-48.4558 L 164.874,-52.8747 L 169.293,-52.8747 L 169.293,-48.4558 z
M 181.541,-48.4558 L 181.541,-52.8747 L 185.96,-52.8747 L 185.96,-48.4558 z
M 198.207,-48.4558 L 198.207,-52.8747 L 202.626,-52.8747 L 202.626,-48.4558 z
M 214.874,-48.4558 L 214.874,-52.8747 L 219.293,-52.8747 L 219.293,-48.4558 z
M 231.541,-48.4558 L 231.541,-52.8747 L 235.96,-52.8747 L 235.96,-48.4558 z
M 248.207,-48.4558 L 248.207,-52.8747 L 252.626,-52.8747 L 252.626,-48.4558 z
M 26.0729,-24.1468 L 25.2366,-24.5729 L 24.5729,-25.2366 L 24.1468,-26.0729 L 24,-27 L 24.1468,-27.9271
 L 24.5729,-28.7634 L 25.2366,-29.4271 L 26.0729,-29.8532 L 27,-30 L 27.9271,-29.8532 L 28.7634,-29.4271
 L 29.4271,-28.7634 L 29.8532,-27.9271 L 30,-27 L 29.8532,-26.0729 L 29.4271,-25.2366 L 28.7634,-24.5729
 L 27.9271,-24.1468 L 27,-24 z
M 272.073,-24.1468 L 271.237,-24.5729 L 270.573,-25.2366 L 270.147,-26.0729 L 270,-27 L 270.147,-27.9271
 L 270.573,-28.7634 L 271.237,-29.4271 L 272.073,-29.8532 L 273,-30 L 273.927,-29.8532 L 274.763,-29.4271
 L 275.427,-28.7634 L 275.853,-27.9271 L 276,-27 L 275.853,-26.0729 L 275.427,-25.2366 L 274.763,-24.5729
 L 273.927,-24.1468 L 273,-24 z
" stroke="#000000" fill="none" stroke-width="0.25"/>
</svg>
