<?xml version="1.0" standalone="no"?>
<!DOCTYPE svg PUBLIC "-//W3C//DTD SVG 1.1//EN" "http://www.w3.org/Graphics/SVG/1.1/DTD/svg11.dtd">
<svg width="302mm" height="302mm" viewBox="-1 -301 302 302" xmlns="http://www.w3.org/2000/svg" version="1.1">
<title>OpenSCAD Model</title>
<path d="
M 27.05,-26.95 L 149.95,-26.95 L 149.95,-0 L 150.05,-0 L 150.05,-26.95 L 272.95,-26.95
 L 272.95,-0 L 273.05,-0 L 273.05,-26.95 L 300,-26.95 L 300,-27.05 L 273.05,-27.05
 L 273.05,-272.95 L 300,-272.95 L 300,-273.05 L 273.05,-273.05 L 273.05,-300 L 272.95,-300
 L 272.95,-273.05 L 150.05,-273.05 L 150.05,-300 L 149.95,-300 L 149.95,-273.05 L 27.05,-273.05
 L 27.05,-300 L 26.95,-300 L 26.95,-273.05 L 0,-273.05 L 0,-272.95 L 26.95,-272.95
 L 26.95,-27.05 L 0,-27.05 L 0,-26.95 L 26.95,-26.95 L 26.95,-0 L 27.05,-0
 z
M 27.05,-27.05 L 27.05,-272.95 L 149.95,-272.95 L 149.95,-27.05 z
M 150.05,-27.05 L 150.05,-272.95 L 272.95,-272.95 L 272.95,-27.05 z
M 61.2161,-12.0047 L 61.6333,-12.1625 L 61.9916,-12.3908 L 62.2834,-12.6803 L 62.5012,-13.0217 L 62.6373,-13.4057
 L 62.6844,-13.8229 L 62.6434,-14.2377 L 62.5246,-14.6088 L 62.3347,-14.9289 L 62.0799,-15.1906 L 61.7668,-15.3866
 L 61.4019,-15.5096 L 60.9917,-15.5522 L 60.7745,-15.5418 L 60.5763,-15.5104 L 60.3971,-15.4581 L 60.2371,-15.3848
 L 60.0963,-15.2907 L 59.9748,-15.1756 L 59.8727,-15.0395 L 59.8916,-15.4232 L 59.938,-15.7477 L 60.0117,-16.0129
 L 60.1129,-16.2192 L 60.2414,-16.3664 L 60.3974,-16.4546 L 60.5808,-16.484 L 60.658,-16.4793 L 60.7293,-16.4651
 L 60.7948,-16.4415 L 60.8545,-16.4083 L 60.9086,-16.3657 L 60.957,-16.3137 L 60.9999,-16.2521 L 62.4891,-16.2521
 L 62.3575,-16.6111 L 62.1684,-16.9195 L 61.9272,-17.1756 L 61.6392,-17.3779 L 61.3099,-17.5244 L 60.9444,-17.6136
 L 60.5482,-17.6437 L 59.9555,-17.5692 L 59.4456,-17.3545 L 59.0216,-17.013 L 58.6865,-16.558 L 58.4433,-16.0028
 L 58.2952,-15.3606 L 58.2451,-14.6449 L 58.2506,-14.4276 L 58.2672,-14.2154 L 58.2948,-14.0081 L 58.3336,-13.8058
 L 58.3836,-13.6085 L 58.445,-13.4162 L 58.5177,-13.2289 L 58.6742,-12.921 L 58.8661,-12.6534 L 59.0905,-12.4266
 L 59.3446,-12.2409 L 59.6253,-12.0968 L 59.9298,-11.9946 L 60.2552,-11.9349 L 60.2552,-13.0987 L 60.1629,-13.15
 L 60.0821,-13.2156 L 60.0138,-13.2941 L 59.9589,-13.3839 L 59.9185,-13.4833 L 59.8935,-13.5908 L 59.8849,-13.7049
 L 59.9007,-13.8606 L 59.946,-14.0041 L 60.0182,-14.1311 L 60.1144,-14.2373 L 60.2319,-14.3185 L 60.3679,-14.3703
 L 60.5197,-14.3885 L 60.6656,-14.3699 L 60.7949,-14.3172 L 60.9054,-14.2351 L 60.9951,-14.1285 L 61.0619,-14.0021
 L 61.1035,-13.8607 L 61.1178,-13.709 L 61.1095,-13.5917 L 61.085,-13.4816 L 61.0451,-13.3804 L 60.9907,-13.2897
 L 60.9224,-13.2115 L 60.8411,-13.1472 L 60.7476,-13.0987 L 60.7476,-11.9267 z
M 47.8732,-13.3631 L 45.7085,-13.3631 L 46.115,-13.6371 L 46.4731,-13.8906 L 46.7826,-14.1233 L 47.0433,-14.3352
 L 47.2551,-14.526 L 47.4178,-14.6958 L 47.5314,-14.8442 L 47.6139,-14.9832 L 47.6835,-15.1247 L 47.7403,-15.2684
 L 47.7843,-15.4145 L 47.8157,-15.5627 L 47.8344,-15.7131 L 47.8407,-15.8656 L 47.7905,-16.3021 L 47.6456,-16.6871
 L 47.4143,-17.0148 L 47.1052,-17.2796 L 46.7264,-17.4758 L 46.2866,-17.5977 L 45.7939,-17.6396 L 45.3324,-17.6009
 L 44.9056,-17.4841 L 44.5217,-17.2886 L 44.189,-17.0135 L 43.9157,-16.658 L 43.7101,-16.2214 L 43.5804,-15.7028
 L 44.9842,-15.4302 L 45.0161,-15.6845 L 45.0699,-15.8999 L 45.1456,-16.0763 L 45.2433,-16.2136 L 45.3629,-16.3118
 L 45.5044,-16.3708 L 45.6678,-16.3904 L 45.8005,-16.3766 L 45.9183,-16.3362 L 46.0191,-16.2713 L 46.1009,-16.1838
 L 46.1619,-16.0755 L 46.1999,-15.9485 L 46.213,-15.8045 L 46.2096,-15.7263 L 46.1991,-15.6488 L 46.1817,-15.572
 L 46.1573,-15.4961 L 46.1259,-15.4214 L 46.0875,-15.3478 L 46.0422,-15.2756 L 45.8996,-15.1053 L 45.6882,-14.8967
 L 45.4345,-14.6687 L 45.1649,-14.4402 L 44.9057,-14.2301 L 44.6834,-14.0574 L 44.5244,-13.9409 L 43.5804,-13.2777
 L 43.5804,-12 L 47.8122,-12 z
M 57.647,-13.3631 L 55.4823,-13.3631 L 55.8888,-13.6371 L 56.2469,-13.8906 L 56.5563,-14.1233 L 56.817,-14.3352
 L 57.0288,-14.526 L 57.1916,-14.6958 L 57.3052,-14.8442 L 57.3877,-14.9832 L 57.4572,-15.1247 L 57.514,-15.2684
 L 57.5581,-15.4145 L 57.5894,-15.5627 L 57.6082,-15.7131 L 57.6144,-15.8656 L 57.5643,-16.3021 L 57.4193,-16.6871
 L 57.1881,-17.0148 L 56.8789,-17.2796 L 56.5002,-17.4758 L 56.0603,-17.5977 L 55.5677,-17.6396 L 55.1062,-17.6009
 L 54.6794,-17.4841 L 54.2955,-17.2886 L 53.9627,-17.0135 L 53.6894,-16.658 L 53.4838,-16.2214 L 53.3542,-15.7028
 L 54.758,-15.4302 L 54.7899,-15.6845 L 54.8437,-15.8999 L 54.9194,-16.0763 L 55.0171,-16.2136 L 55.1366,-16.3118
 L 55.2781,-16.3708 L 55.4416,-16.3904 L 55.5743,-16.3766 L 55.692,-16.3362 L 55.7928,-16.2713 L 55.8747,-16.1838
 L 55.9356,-16.0755 L 55.9737,-15.9485 L 55.9868,-15.8045 L 55.9833,-15.7263 L 55.9729,-15.6488 L 55.9554,-15.572
 L 55.931,-15.4961 L 55.8996,-15.4214 L 55.8613,-15.3478 L 55.8159,-15.2756 L 55.6733,-15.1053 L 55.462,-14.8967
 L 55.2083,-14.6687 L 54.9387,-14.4402 L 54.6795,-14.2301 L 54.4572,-14.0574 L 54.2982,-13.9409 L 53.3542,-13.2777
 L 53.3542,-12 L 57.5859,-12 z
M 50.4448,-13.1353 L 50.408,-13.1639 L 50.374,-13.1974 L 50.3429,-13.2358 L 50.3145,-13.279 L 50.2889,-13.3268
 L 50.2659,-13.3793 L 50.2455,-13.4363 L 50.2116,-13.5559 L 50.1831,-13.7019 L 50.1599,-13.8743 L 50.142,-14.0731
 L 50.1293,-14.2983 L 50.1218,-14.5499 L 50.1193,-14.828 L 50.1218,-15.036 L 50.1293,-15.231 L 50.142,-15.4131
 L 50.1599,-15.5823 L 50.1831,-15.7385 L 50.2116,-15.8817 L 50.2455,-16.012 L 50.2659,-16.0773 L 50.2889,-16.1372
 L 50.3145,-16.1917 L 50.3429,-16.241 L 50.374,-16.2851 L 50.408,-16.324 L 50.4448,-16.3579 L 50.4448,-17.5949
 L 49.9615,-17.483 L 49.537,-17.2632 L 49.1772,-16.9413 L 48.8875,-16.5234 L 48.6736,-16.0157 L 48.5412,-15.4241
 L 48.4958,-14.7547 L 48.5406,-14.0928 L 48.6715,-13.5008 L 48.8837,-12.9874 L 49.1721,-12.5614 L 49.5317,-12.2314
 L 49.9576,-12.0061 L 50.4448,-11.8942 z
M 51.4163,-12.0118 L 51.838,-12.2325 L 52.1965,-12.5536 L 52.4857,-12.9684 L 52.6997,-13.4699 L 52.8325,-14.0513
 L 52.8781,-14.7059 L 52.8363,-15.3615 L 52.7125,-15.9541 L 52.5088,-16.4729 L 52.2272,-16.9071 L 51.87,-17.246
 L 51.4393,-17.4788 L 50.9372,-17.5949 L 50.9372,-16.3579 L 50.9663,-16.332 L 50.9945,-16.3031 L 51.0216,-16.2712
 L 51.0478,-16.2363 L 51.073,-16.1985 L 51.0971,-16.1576 L 51.1203,-16.1138 L 51.1609,-16.0062 L 51.1954,-15.8682
 L 51.2238,-15.7001 L 51.2461,-15.5017 L 51.262,-15.2732 L 51.2717,-15.0147 L 51.2749,-14.7262 L 51.2724,-14.5117
 L 51.265,-14.311 L 51.2528,-14.124 L 51.2358,-13.9505 L 51.2141,-13.7903 L 51.1878,-13.6434 L 51.1569,-13.5096
 L 51.1358,-13.4378 L 51.1109,-13.3725 L 51.0824,-13.3135 L 51.0506,-13.2607 L 51.0156,-13.2142 L 50.9778,-13.1737
 L 50.9372,-13.1393 L 50.9372,-11.8983 z
M 34.1475,-11.1662 L 33.909,-11.6449 L 33.714,-12.13 L 33.5622,-12.6213 L 33.4539,-13.1188 L 33.3888,-13.6225
 L 33.3672,-14.1322 L 33.3888,-14.658 L 33.4539,-15.1718 L 33.5622,-15.6733 L 33.714,-16.1625 L 33.909,-16.6391
 L 34.1475,-17.1031 L 34.4292,-17.5542 L 33.3306,-17.5542 L 32.989,-17.1155 L 32.7002,-16.6608 L 32.4641,-16.1902
 L 32.2805,-15.7037 L 32.1495,-15.2012 L 32.0709,-14.6828 L 32.0448,-14.1484 L 32.0709,-13.6355 L 32.1495,-13.129
 L 32.2805,-12.629 L 32.4641,-12.1355 L 32.7002,-11.6485 L 32.989,-11.1679 L 33.3306,-10.6939 L 34.4292,-10.6939
 z
M 40.2599,-11.1341 L 40.5487,-11.5898 L 40.7848,-12.0611 L 40.9684,-12.5481 L 41.0994,-13.0508 L 41.1779,-13.5693
 L 41.2041,-14.1037 L 41.1779,-14.6151 L 41.0994,-15.1205 L 40.9684,-15.6198 L 40.7848,-16.1128 L 40.5487,-16.5996
 L 40.2599,-17.0801 L 39.9183,-17.5542 L 38.8197,-17.5542 L 39.1014,-17.0821 L 39.3398,-16.6039 L 39.5349,-16.1197
 L 39.6866,-15.6292 L 39.795,-15.1325 L 39.86,-14.6294 L 39.8817,-14.12 L 39.86,-13.5926 L 39.795,-13.0777
 L 39.6866,-12.5755 L 39.5349,-12.0859 L 39.3398,-11.609 L 39.1014,-11.145 L 38.8197,-10.6939 L 39.9183,-10.6939
 z
M 69.3413,-13.3631 L 67.1521,-13.3631 L 67.1521,-17.5542 L 65.4472,-17.5542 L 65.4472,-12 L 69.3413,-12
 z
M 92.3923,-17.5542 L 90.7932,-17.5542 L 90.7932,-12 L 92.3923,-12 z
M 72.4716,-11.9573 L 72.9141,-12.0675 L 73.2924,-12.2405 L 73.6054,-12.4677 L 73.8521,-12.7404 L 74.0315,-13.0499
 L 74.1427,-13.3876 L 72.6291,-13.4893 L 72.5939,-13.3547 L 72.5409,-13.2407 L 72.4699,-13.1473 L 72.3809,-13.0745
 L 72.2741,-13.0224 L 72.1492,-12.9911 L 72.0065,-12.9806 L 71.8197,-12.9957 L 71.6718,-13.0411 L 71.5585,-13.1174
 L 71.476,-13.2251 L 71.42,-13.3647 L 71.3866,-13.5367 L 71.3718,-13.7416 L 71.3718,-14.5635 L 71.3677,-14.5635
 L 71.3794,-14.7513 L 71.4146,-14.9103 L 71.4734,-15.0403 L 71.5558,-15.1414 L 71.6619,-15.2137 L 71.7918,-15.257
 L 71.9455,-15.2715 L 72.0798,-15.2615 L 72.2017,-15.2287 L 72.3083,-15.1684 L 72.3966,-15.0762 L 72.4639,-14.9476
 L 72.5071,-14.7782 L 72.5233,-14.5635 L 71.86,-14.5635 L 71.86,-13.7497 L 74.1427,-13.7497 L 74.1443,-13.7918
 L 74.1453,-13.831 L 74.1461,-13.8673 L 74.1465,-13.9009 L 74.1467,-13.9318 L 74.1468,-13.96 L 74.1468,-13.9857
 L 74.0934,-14.5455 L 73.9385,-15.0352 L 73.6904,-15.4489 L 73.3572,-15.7809 L 72.9471,-16.0252 L 72.4684,-16.1761
 L 71.9292,-16.2277 L 71.3738,-16.1705 L 70.8844,-16.0069 L 70.468,-15.7492 L 70.1317,-15.4096 L 69.8827,-15.0005
 L 69.7281,-14.5339 L 69.675,-14.0223 L 69.7286,-13.5304 L 69.885,-13.0839 L 70.1372,-12.6938 L 70.4782,-12.3712
 L 70.9013,-12.1271 L 71.3995,-11.9726 L 71.9658,-11.9186 z
M 37.2421,-11.9546 L 37.6449,-12.0702 L 37.9909,-12.2547 L 38.2772,-12.5016 L 38.5011,-12.8043 L 38.6598,-13.156
 L 38.7505,-13.5503 L 37.3671,-13.6683 L 37.3369,-13.5049 L 37.292,-13.3668 L 37.2324,-13.2539 L 37.1583,-13.1663
 L 37.0698,-13.1038 L 36.9671,-13.0664 L 36.8503,-13.0539 L 36.6963,-13.0735 L 36.5712,-13.1327 L 36.4732,-13.2323
 L 36.4003,-13.3731 L 36.3506,-13.556 L 36.3222,-13.7816 L 36.3132,-14.0508 L 36.3157,-14.2127 L 36.3231,-14.3602
 L 36.3356,-14.4932 L 36.353,-14.6118 L 36.3754,-14.7159 L 36.4028,-14.8056 L 36.4352,-14.8808 L 36.4713,-14.9439
 L 36.5134,-14.997 L 36.5615,-15.0404 L 36.6156,-15.0739 L 36.6756,-15.0978 L 36.7416,-15.1121 L 36.8136,-15.1169
 L 36.9238,-15.1034 L 37.0206,-15.0632 L 37.1043,-14.9961 L 37.1749,-14.9024 L 37.2326,-14.782 L 37.2777,-14.6351
 L 37.3101,-14.4617 L 38.7301,-14.5798 L 38.6478,-14.9693 L 38.4912,-15.3203 L 38.2653,-15.6248 L 37.9751,-15.8751
 L 37.6257,-16.0636 L 37.2219,-16.1823 L 36.7689,-16.2236 L 36.2571,-16.1692 L 35.8013,-16.0125 L 35.41,-15.7634
 L 35.0912,-15.4316 L 34.8533,-15.0269 L 34.7045,-14.5593 L 34.653,-14.0386 L 34.7047,-13.5301 L 34.8544,-13.0747
 L 35.0938,-12.6816 L 35.4147,-12.3598 L 35.8091,-12.1186 L 36.2686,-11.9671 L 36.7852,-11.9146 z
M 76.3278,-14.5879 L 76.3357,-14.7192 L 76.3598,-14.8305 L 76.3998,-14.9217 L 76.4561,-14.9927 L 76.5286,-15.0435
 L 76.6174,-15.0741 L 76.7225,-15.0843 L 76.8244,-15.0741 L 76.9104,-15.0435 L 76.9806,-14.9927 L 77.0351,-14.9217
 L 77.074,-14.8305 L 77.0972,-14.7192 L 77.1049,-14.5879 L 77.1049,-12 L 78.6634,-12 L 78.6634,-14.3926
 L 78.6726,-14.5689 L 78.7004,-14.718 L 78.7467,-14.8398 L 78.8116,-14.9344 L 78.8953,-15.0019 L 78.9978,-15.0423
 L 79.1191,-15.0558 L 79.2188,-15.048 L 79.299,-15.0235 L 79.3613,-14.9805 L 79.4071,-14.9173 L 79.438,-14.8319
 L 79.4554,-14.7227 L 79.4609,-14.5879 L 79.4609,-12 L 81.0357,-12 L 81.0357,-14.8157 L 81.0329,-14.967
 L 81.0247,-15.1066 L 81.011,-15.2347 L 80.9918,-15.3511 L 80.9671,-15.4558 L 80.937,-15.5486 L 80.9014,-15.6296
 L 80.8084,-15.7727 L 80.6879,-15.9004 L 80.5423,-16.0103 L 80.3741,-16.1 L 80.1857,-16.1671 L 79.9795,-16.2091
 L 79.758,-16.2236 L 79.528,-16.2104 L 79.3159,-16.1709 L 79.1216,-16.1051 L 78.9451,-16.0132 L 78.7862,-15.895
 L 78.6448,-15.7509 L 78.521,-15.5807 L 78.4089,-15.7509 L 78.2785,-15.895 L 78.13,-16.0132 L 77.9635,-16.1051
 L 77.7791,-16.1709 L 77.5769,-16.2104 L 77.3572,-16.2236 L 77.1517,-16.2104 L 76.9606,-16.1709 L 76.784,-16.1051
 L 76.6218,-16.0132 L 76.4741,-15.895 L 76.3408,-15.7509 L 76.222,-15.5807 L 76.222,-16.1382 L 74.7653,-16.1382
 L 74.7653,-12 L 76.3278,-12 z
M 87.3805,-11.928 L 87.6074,-11.9685 L 87.816,-12.036 L 88.0061,-12.1306 L 88.1777,-12.2524 L 88.3309,-12.4014
 L 88.4657,-12.5778 L 88.4669,-12.4896 L 88.4706,-12.4031 L 88.4766,-12.3183 L 88.4849,-12.2355 L 88.4953,-12.1548
 L 88.508,-12.0762 L 88.5226,-12 L 90.0688,-12 L 90.035,-12.0987 L 90.0065,-12.2028 L 89.9833,-12.3124
 L 89.9655,-12.4275 L 89.9528,-12.5481 L 89.9452,-12.6741 L 89.9427,-12.8057 L 89.9427,-14.4577 L 89.937,-14.7999
 L 89.9182,-15.0687 L 89.8835,-15.2784 L 89.8302,-15.4433 L 89.7556,-15.5778 L 89.657,-15.6962 L 89.5318,-15.8126
 L 89.3766,-15.9238 L 89.1923,-16.0169 L 88.9822,-16.0923 L 88.7496,-16.1503 L 88.4976,-16.1913 L 88.2296,-16.2156
 L 87.9489,-16.2236 L 87.4534,-16.1972 L 87.0202,-16.1179 L 86.6492,-15.9856 L 86.3406,-15.8004 L 86.0942,-15.562
 L 85.9101,-15.2704 L 85.7883,-14.9256 L 87.2694,-14.7873 L 87.2985,-14.9071 L 87.3477,-15.0085 L 87.4169,-15.0915
 L 87.5063,-15.156 L 87.6159,-15.2021 L 87.7458,-15.2297 L 87.896,-15.2389 L 88.0243,-15.2329 L 88.1334,-15.2127
 L 88.2231,-15.1752 L 88.2933,-15.1171 L 88.3437,-15.0352 L 88.3741,-14.9263 L 88.3843,-14.7873 L 88.3843,-13.7375
 L 88.3677,-13.4694 L 88.3206,-13.2634 L 88.2466,-13.112 L 88.1495,-13.0075 L 88.0331,-12.9423 L 87.9013,-12.9088
 L 87.7576,-12.8993 L 87.649,-12.907 L 87.557,-12.9301 L 87.4815,-12.9685 L 87.4226,-13.0221 L 87.3805,-13.0909
 L 87.3552,-13.1747 L 87.3467,-13.2736 L 87.3579,-13.3838 L 87.3914,-13.4841 L 87.4473,-13.5747 L 87.5253,-13.6558
 L 87.6255,-13.7275 L 87.7477,-13.7899 L 87.8919,-13.8433 L 87.8919,-14.657 L 87.5823,-14.6209 L 87.2986,-14.5755
 L 87.041,-14.5206 L 86.8095,-14.4566 L 86.6042,-14.3833 L 86.4252,-14.3009 L 86.2725,-14.2095 L 86.1138,-14.0877
 L 85.9795,-13.9559 L 85.8696,-13.8141 L 85.7842,-13.6624 L 85.7231,-13.5007 L 85.6865,-13.3291 L 85.6743,-13.1474
 L 85.704,-12.8754 L 85.7931,-12.6201 L 85.9418,-12.3906 L 86.1502,-12.1961 L 86.4184,-12.0458 L 86.7467,-11.9489
 L 87.1351,-11.9146 z
M 85.6336,-16.1382 L 84.4699,-16.1382 L 83.8596,-14.2949 L 83.8479,-14.2575 L 83.8373,-14.2255 L 83.8281,-14.1986
 L 83.8202,-14.1768 L 83.8139,-14.1599 L 83.8094,-14.1478 L 83.8066,-14.1403 L 83.7949,-14.1082 L 83.7842,-14.0779
 L 83.7745,-14.0495 L 83.7658,-14.023 L 83.7581,-13.9981 L 83.7513,-13.9748 L 83.7456,-13.9531 L 83.7294,-14.0142
 L 83.7123,-14.0752 L 83.6943,-14.1362 L 83.6756,-14.1973 L 83.6562,-14.2583 L 83.6361,-14.3193 L 83.6154,-14.3804
 L 83.0254,-16.1382 L 81.3571,-16.1382 L 82.9033,-12 L 84.1159,-12 z
" stroke="#000000" fill="none" stroke-width="0.25"/>
</svg>
