<?xml version="1.0" standalone="no"?>
<!DOCTYPE svg PUBLIC "-//W3C//DTD SVG 1.1//EN" "http://www.w3.org/Graphics/SVG/1.1/DTD/svg11.dtd">
<svg width="302mm" height="302mm" viewBox="-1 -301 302 302" xmlns="http://www.w3.org/2000/svg" version="1.1">
<title>OpenSCAD Model</title>
<path d="
M 300,-300 L 0,-300 L 0,-0 L 300,-0 z
M 26.0729,-270.147 L 25.2366,-270.573 L 24.5729,-271.237 L 24.1468,-272.073 L 24,-273 L 24.1468,-273.927
 L 24.5729,-274.763 L 25.2366,-275.427 L 26.0729,-275.853 L 27,-276 L 27.9271,-275.853 L 28.7634,-275.427
 L 29.4271,-274.763 L 29.8532,-273.927 L 30,-273 L 29.8532,-272.073 L 29.4271,-271.237 L 28.7634,-270.573
 L 27.9271,-270.147 L 27,-270 z
M 272.073,-270.147 L 271.237,-270.573 L 270.573,-271.237 L 270.147,-272.073 L 270,-273 L 270.147,-273.927
 L 270.573,-274.763 L 271.237,-275.427 L 272.073,-275.853 L 273,-276 L 273.927,-275.853 L 274.763,-275.427
 L 275.427,-274.763 L 275.853,-273.927 L 276,-273 L 275.853,-272.073 L 275.427,-271.237 L 274.763,-270.573
 L 273.927,-270.147 L 273,-270 z
M 115.758,-245.013 L 114.787,-245.22 L 113.944,-245.566 L 113.229,-246.05 L 112.64,-246.672 L 112.178,-247.431
 L 111.842,-248.329 L 115.008,-248.898 L 115.149,-248.542 L 115.34,-248.241 L 115.582,-247.994 L 115.875,-247.802
 L 116.219,-247.665 L 116.613,-247.583 L 117.059,-247.556 L 117.399,-247.57 L 117.687,-247.611 L 117.924,-247.681
 L 118.108,-247.779 L 118.239,-247.904 L 118.318,-248.058 L 118.345,-248.239 L 118.339,-248.337 L 118.321,-248.43
 L 118.291,-248.516 L 118.249,-248.596 L 118.195,-248.67 L 118.129,-248.738 L 118.052,-248.801 L 117.955,-248.856
 L 117.841,-248.909 L 117.708,-248.96 L 117.556,-249.01 L 117.386,-249.058 L 117.195,-249.105 L 116.986,-249.151
 L 116.194,-249.318 L 115.488,-249.499 L 114.867,-249.695 L 114.33,-249.904 L 113.88,-250.127 L 113.514,-250.364
 L 113.234,-250.615 L 113.014,-250.88 L 112.827,-251.158 L 112.675,-251.448 L 112.556,-251.752 L 112.472,-252.068
 L 112.421,-252.397 L 112.404,-252.739 L 112.503,-253.6 L 112.798,-254.379 L 113.283,-255.056 L 113.953,-255.614
 L 114.804,-256.035 L 115.83,-256.301 L 117.026,-256.393 L 117.949,-256.338 L 118.778,-256.17 L 119.513,-255.892
 L 120.154,-255.502 L 120.7,-255.001 L 121.153,-254.39 L 121.51,-253.667 L 118.686,-252.813 L 118.542,-253.108
 L 118.362,-253.358 L 118.144,-253.563 L 117.889,-253.722 L 117.598,-253.836 L 117.269,-253.905 L 116.904,-253.928
 L 116.609,-253.914 L 116.359,-253.872 L 116.155,-253.802 L 115.995,-253.703 L 115.881,-253.576 L 115.812,-253.42
 L 115.789,-253.236 L 115.794,-253.151 L 115.809,-253.072 L 115.835,-252.997 L 115.871,-252.929 L 115.917,-252.865
 L 115.974,-252.808 L 116.042,-252.756 L 116.124,-252.707 L 116.226,-252.66 L 116.347,-252.613 L 116.486,-252.567
 L 116.644,-252.521 L 116.822,-252.476 L 117.018,-252.43 L 118.051,-252.205 L 118.89,-251.999 L 119.565,-251.792
 L 120.108,-251.566 L 120.549,-251.3 L 120.919,-250.976 L 121.25,-250.575 L 121.399,-250.343 L 121.525,-250.099
 L 121.628,-249.845 L 121.708,-249.58 L 121.766,-249.304 L 121.8,-249.017 L 121.811,-248.719 L 121.692,-247.803
 L 121.347,-246.988 L 120.794,-246.29 L 120.05,-245.722 L 119.133,-245.299 L 118.063,-245.035 L 116.855,-244.943
 z
M 148.851,-245.165 L 147.803,-245.599 L 146.905,-246.246 L 146.174,-247.09 L 145.629,-248.117 L 145.289,-249.31
 L 145.172,-250.655 L 145.28,-251.955 L 145.6,-253.132 L 146.12,-254.163 L 146.833,-255.027 L 147.729,-255.698
 L 148.797,-256.156 L 150.03,-256.376 L 150.03,-253.788 L 149.716,-253.615 L 149.449,-253.346 L 149.231,-252.981
 L 149.061,-252.521 L 148.939,-251.965 L 148.866,-251.313 L 148.842,-250.566 L 148.866,-249.852 L 148.939,-249.232
 L 149.061,-248.706 L 149.231,-248.272 L 149.449,-247.932 L 149.716,-247.685 L 150.03,-247.53 L 150.03,-244.959
 z
M 151.015,-247.563 L 151.136,-247.618 L 151.25,-247.686 L 151.356,-247.768 L 151.453,-247.862 L 151.543,-247.969
 L 151.625,-248.089 L 151.698,-248.222 L 151.799,-248.461 L 151.883,-248.751 L 151.952,-249.093 L 152.005,-249.486
 L 152.043,-249.931 L 152.065,-250.426 L 152.073,-250.973 L 152.051,-251.616 L 151.987,-252.178 L 151.879,-252.66
 L 151.728,-253.061 L 151.534,-253.382 L 151.296,-253.621 L 151.015,-253.78 L 151.015,-256.376 L 152.163,-256.161
 L 153.184,-255.727 L 154.058,-255.088 L 154.769,-254.26 L 155.298,-253.255 L 155.629,-252.09 L 155.743,-250.777
 L 155.628,-249.426 L 155.297,-248.221 L 154.766,-247.179 L 154.054,-246.317 L 153.18,-245.65 L 152.161,-245.194
 L 151.015,-244.967 z
M 248.851,-245.165 L 247.804,-245.599 L 246.905,-246.246 L 246.174,-247.09 L 245.63,-248.117 L 245.289,-249.31
 L 245.172,-250.655 L 245.28,-251.955 L 245.6,-253.132 L 246.121,-254.163 L 246.833,-255.027 L 247.729,-255.698
 L 248.798,-256.156 L 250.03,-256.376 L 250.03,-253.788 L 249.716,-253.615 L 249.45,-253.346 L 249.231,-252.981
 L 249.061,-252.521 L 248.94,-251.965 L 248.867,-251.313 L 248.842,-250.566 L 248.867,-249.852 L 248.94,-249.232
 L 249.061,-248.706 L 249.231,-248.272 L 249.45,-247.932 L 249.716,-247.685 L 250.03,-247.53 L 250.03,-244.959
 z
M 251.015,-247.563 L 251.137,-247.618 L 251.25,-247.686 L 251.356,-247.768 L 251.453,-247.862 L 251.543,-247.969
 L 251.625,-248.089 L 251.699,-248.222 L 251.799,-248.461 L 251.883,-248.751 L 251.952,-249.093 L 252.005,-249.486
 L 252.043,-249.931 L 252.065,-250.426 L 252.073,-250.973 L 252.051,-251.616 L 251.987,-252.178 L 251.879,-252.66
 L 251.729,-253.061 L 251.534,-253.382 L 251.297,-253.621 L 251.015,-253.78 L 251.015,-256.376 L 252.164,-256.161
 L 253.184,-255.727 L 254.058,-255.088 L 254.769,-254.26 L 255.298,-253.255 L 255.629,-252.09 L 255.743,-250.777
 L 255.629,-249.426 L 255.297,-248.221 L 254.766,-247.179 L 254.055,-246.317 L 253.18,-245.65 L 252.161,-245.194
 L 251.015,-244.967 z
M 48.7115,-245.11 L 48.7115,-256.219 L 52.1213,-256.219 L 52.1213,-245.11 z
M 65.4677,-245.11 L 65.4677,-253.558 L 63.1647,-253.558 L 63.1647,-256.219 L 71.0016,-256.219 L 71.0016,-253.558
 L 68.6985,-253.558 L 68.6985,-245.11 z
M 82.7163,-248.854 L 81.8456,-256.219 L 85.703,-256.219 L 84.7752,-248.854 z
M 98.7116,-245.11 L 98.7116,-256.219 L 102.121,-256.219 L 102.121,-245.11 z
M 128.151,-245.11 L 131.732,-250.864 L 128.298,-256.219 L 132.269,-256.219 L 133.994,-253.232 L 135.784,-256.219
 L 138.844,-256.219 L 135.622,-251.059 L 139.357,-245.11 L 135.394,-245.11 L 133.343,-248.602 L 131.276,-245.11
 z
M 162.335,-245.11 L 162.335,-256.219 L 165.557,-256.219 L 168.145,-252.15 L 168.358,-251.81 L 168.555,-251.482
 L 168.737,-251.165 L 168.905,-250.859 L 169.057,-250.566 L 169.195,-250.286 L 169.317,-250.018 L 169.249,-250.427
 L 169.191,-250.838 L 169.143,-251.251 L 169.105,-251.667 L 169.079,-252.086 L 169.062,-252.507 L 169.057,-252.931
 L 169.057,-256.219 L 171.832,-256.219 L 171.832,-245.11 L 169.057,-245.11 L 166.013,-250.018 L 165.846,-250.295
 L 165.678,-250.589 L 165.51,-250.899 L 165.342,-251.227 L 165.173,-251.572 L 165.004,-251.934 L 164.833,-252.313
 L 164.904,-252.012 L 164.965,-251.725 L 165.014,-251.451 L 165.052,-251.19 L 165.08,-250.943 L 165.096,-250.709
 L 165.102,-250.49 L 165.102,-245.11 z
M 179.864,-245.11 L 179.864,-256.219 L 188.222,-256.219 L 188.222,-253.655 L 183.209,-253.655 L 183.209,-252.044
 L 187.262,-252.044 L 187.262,-249.578 L 183.209,-249.578 L 183.209,-247.763 L 188.222,-247.763 L 188.222,-245.11
 z
M 195.111,-245.11 L 198.545,-256.219 L 202.15,-256.219 L 203.892,-250.669 L 200.669,-250.669 L 200.026,-252.947
 L 199.123,-249.725 L 200.221,-249.725 L 200.221,-249.684 L 204.193,-249.684 L 205.625,-245.11 L 202.15,-245.11
 L 201.524,-247.3 L 198.545,-247.3 L 197.878,-245.11 z
M 215.468,-245.11 L 215.468,-253.558 L 213.165,-253.558 L 213.165,-256.219 L 221.002,-256.219 L 221.002,-253.558
 L 218.699,-253.558 L 218.699,-245.11 z
M 229.319,-245.11 L 226.365,-256.219 L 229.571,-256.219 L 231.126,-249.814 L 232.639,-256.219 L 235.325,-256.219
 L 236.969,-249.814 L 238.523,-256.219 L 241.135,-256.219 L 238.189,-245.11 L 235.325,-245.11 L 233.77,-251.238
 L 232.306,-245.11 z
M 82.1792,-245.11 L 82.1792,-248.081 L 85.3205,-248.081 L 85.3205,-245.11 z
M 148.851,-228.498 L 147.803,-228.932 L 146.905,-229.579 L 146.174,-230.423 L 145.629,-231.45 L 145.289,-232.643
 L 145.172,-233.989 L 145.28,-235.288 L 145.6,-236.465 L 146.12,-237.497 L 146.833,-238.36 L 147.729,-239.032
 L 148.797,-239.489 L 150.03,-239.71 L 150.03,-237.122 L 149.716,-236.948 L 149.449,-236.679 L 149.231,-236.315
 L 149.061,-235.854 L 148.939,-235.298 L 148.866,-234.646 L 148.842,-233.899 L 148.866,-233.186 L 148.939,-232.566
 L 149.061,-232.039 L 149.231,-231.606 L 149.449,-231.265 L 149.716,-231.018 L 150.03,-230.864 L 150.03,-228.292
 z
M 151.015,-230.896 L 151.136,-230.951 L 151.25,-231.02 L 151.356,-231.101 L 151.453,-231.195 L 151.543,-231.302
 L 151.625,-231.422 L 151.698,-231.555 L 151.799,-231.794 L 151.883,-232.084 L 151.952,-232.426 L 152.005,-232.819
 L 152.043,-233.264 L 152.065,-233.759 L 152.073,-234.306 L 152.051,-234.949 L 151.987,-235.512 L 151.879,-235.994
 L 151.728,-236.395 L 151.534,-236.715 L 151.296,-236.955 L 151.015,-237.114 L 151.015,-239.71 L 152.163,-239.494
 L 153.184,-239.06 L 154.058,-238.422 L 154.769,-237.593 L 155.298,-236.589 L 155.629,-235.423 L 155.743,-234.111
 L 155.628,-232.759 L 155.297,-231.554 L 154.766,-230.513 L 154.054,-229.65 L 153.18,-228.983 L 152.161,-228.528
 L 151.015,-228.3 z
M 166.03,-228.43 L 165.023,-228.641 L 164.165,-229.002 L 163.469,-229.521 L 162.954,-230.206 L 162.633,-231.064
 L 162.522,-232.105 L 162.522,-239.64 L 165.989,-239.64 L 165.989,-232.503 L 166.016,-232.083 L 166.097,-231.734
 L 166.236,-231.454 L 166.434,-231.24 L 166.693,-231.09 L 167.016,-231.002 L 167.405,-230.973 L 167.741,-230.998
 L 168.041,-231.066 L 168.303,-231.172 L 168.522,-231.309 L 168.696,-231.469 L 168.821,-231.647 L 168.894,-231.836
 L 168.913,-231.944 L 168.93,-232.078 L 168.943,-232.238 L 168.954,-232.425 L 168.961,-232.637 L 168.966,-232.875
 L 168.967,-233.138 L 168.967,-239.64 L 171.645,-239.64 L 171.645,-232.284 L 171.536,-231.187 L 171.223,-230.285
 L 170.721,-229.568 L 170.048,-229.026 L 169.22,-228.65 L 168.255,-228.432 L 167.169,-228.361 z
M 48.801,-228.444 L 48.801,-236.891 L 46.498,-236.891 L 46.498,-239.552 L 54.3349,-239.552 L 54.3349,-236.891
 L 52.0318,-236.891 L 52.0318,-228.444 z
M 62.3752,-228.444 L 62.3752,-239.552 L 65.785,-239.552 L 65.785,-235.467 L 68.3893,-235.467 L 68.3893,-239.552
 L 71.7991,-239.552 L 71.7991,-228.444 L 68.3893,-228.444 L 68.3893,-232.765 L 65.785,-232.765 L 65.785,-228.444
 z
M 78.9851,-228.444 L 78.9851,-239.552 L 84.7874,-239.552 L 85.7977,-239.481 L 86.6803,-239.268 L 87.425,-238.916
 L 88.0219,-238.427 L 88.4607,-237.803 L 88.7314,-237.046 L 88.8239,-236.158 L 88.777,-235.567 L 88.6365,-235.028
 L 88.4024,-234.54 L 88.0746,-234.105 L 87.653,-233.723 L 87.1379,-233.392 L 86.529,-233.115 L 88.9785,-228.444
 L 85.7559,-228.444 L 84.0225,-232.692 L 83.3796,-232.692 L 83.3796,-235.068 L 83.6237,-235.068 L 84.0739,-235.087
 L 84.4495,-235.147 L 84.7522,-235.249 L 84.9843,-235.397 L 85.1475,-235.592 L 85.244,-235.837 L 85.2757,-236.134
 L 85.2601,-236.359 L 85.2028,-236.575 L 85.088,-236.773 L 84.8999,-236.942 L 84.6227,-237.075 L 84.2405,-237.161
 L 83.7377,-237.192 L 82.3949,-237.192 L 82.3949,-228.444 z
M 96.5306,-228.444 L 96.5306,-239.552 L 104.888,-239.552 L 104.888,-236.989 L 99.8754,-236.989 L 99.8754,-235.377
 L 103.928,-235.377 L 103.928,-232.911 L 99.8754,-232.911 L 99.8754,-231.097 L 104.888,-231.097 L 104.888,-228.444
 z
M 113.197,-228.444 L 113.197,-239.552 L 121.555,-239.552 L 121.555,-236.989 L 116.542,-236.989 L 116.542,-235.377
 L 120.595,-235.377 L 120.595,-232.911 L 116.542,-232.911 L 116.542,-231.097 L 121.555,-231.097 L 121.555,-228.444
 z
M 130.161,-228.444 L 130.161,-239.552 L 138.193,-239.552 L 138.193,-236.907 L 133.481,-236.907 L 133.481,-235.101
 L 137.103,-235.101 L 137.103,-232.602 L 133.481,-232.602 L 133.481,-228.444 z
M 178.985,-228.444 L 178.985,-239.552 L 184.788,-239.552 L 185.798,-239.481 L 186.68,-239.268 L 187.425,-238.916
 L 188.022,-238.427 L 188.461,-237.803 L 188.732,-237.046 L 188.824,-236.158 L 188.777,-235.567 L 188.637,-235.028
 L 188.403,-234.54 L 188.075,-234.105 L 187.653,-233.723 L 187.138,-233.392 L 186.529,-233.115 L 188.979,-228.444
 L 185.756,-228.444 L 184.023,-232.692 L 183.38,-232.692 L 183.38,-235.068 L 183.624,-235.068 L 184.074,-235.087
 L 184.45,-235.147 L 184.752,-235.249 L 184.984,-235.397 L 185.148,-235.592 L 185.244,-235.837 L 185.276,-236.134
 L 185.26,-236.359 L 185.203,-236.575 L 185.088,-236.773 L 184.9,-236.942 L 184.623,-237.075 L 184.241,-237.161
 L 183.738,-237.192 L 182.395,-237.192 L 182.395,-228.444 z
M 196.828,-228.444 L 196.828,-239.552 L 204.86,-239.552 L 204.86,-236.907 L 200.148,-236.907 L 200.148,-235.101
 L 203.77,-235.101 L 203.77,-232.602 L 200.148,-232.602 L 200.148,-228.444 z
M 215.378,-228.444 L 215.378,-239.552 L 218.788,-239.552 L 218.788,-228.444 z
M 232.086,-228.444 L 228.489,-239.552 L 232.086,-239.552 L 233.836,-233.497 L 233.887,-233.344 L 233.936,-233.192
 L 233.984,-233.041 L 234.029,-232.89 L 234.072,-232.74 L 234.114,-232.589 L 234.153,-232.439 L 236.204,-239.552
 L 239.011,-239.552 L 235.561,-228.444 z
M 246.531,-228.444 L 246.531,-239.552 L 254.889,-239.552 L 254.889,-236.989 L 249.876,-236.989 L 249.876,-235.377
 L 253.928,-235.377 L 253.928,-232.911 L 249.876,-232.911 L 249.876,-231.097 L 254.889,-231.097 L 254.889,-228.444
 z
M 49.0909,-211.679 L 48.1207,-211.887 L 47.2777,-212.233 L 46.5618,-212.716 L 45.973,-213.338 L 45.5109,-214.098
 L 45.1756,-214.995 L 48.3413,-215.565 L 48.4818,-215.209 L 48.6731,-214.907 L 48.9153,-214.661 L 49.2082,-214.469
 L 49.552,-214.332 L 49.9466,-214.25 L 50.3921,-214.222 L 50.7323,-214.236 L 51.0206,-214.278 L 51.2569,-214.348
 L 51.4408,-214.445 L 51.5724,-214.571 L 51.6515,-214.724 L 51.6779,-214.906 L 51.6719,-215.004 L 51.654,-215.096
 L 51.6241,-215.182 L 51.5822,-215.263 L 51.5284,-215.337 L 51.4626,-215.405 L 51.3849,-215.467 L 51.2887,-215.522
 L 51.1742,-215.575 L 51.0413,-215.626 L 50.8896,-215.676 L 50.7188,-215.724 L 50.5286,-215.771 L 50.3188,-215.817
 L 49.5276,-215.985 L 48.8212,-216.166 L 48.1999,-216.361 L 47.6637,-216.571 L 47.2127,-216.794 L 46.8472,-217.031
 L 46.5672,-217.282 L 46.347,-217.547 L 46.1606,-217.824 L 46.0081,-218.115 L 45.8895,-218.418 L 45.8048,-218.735
 L 45.754,-219.064 L 45.7371,-219.406 L 45.8364,-220.267 L 46.131,-221.045 L 46.616,-221.722 L 47.2863,-222.28
 L 48.137,-222.702 L 49.163,-222.967 L 50.3595,-223.06 L 51.2822,-223.004 L 52.1111,-222.837 L 52.8461,-222.559
 L 53.4869,-222.169 L 54.0336,-221.668 L 54.4858,-221.056 L 54.8435,-220.334 L 52.0197,-219.479 L 51.8757,-219.774
 L 51.6948,-220.024 L 51.4771,-220.229 L 51.2225,-220.389 L 50.931,-220.503 L 50.6026,-220.571 L 50.2374,-220.594
 L 49.9425,-220.58 L 49.6925,-220.538 L 49.4877,-220.468 L 49.3281,-220.37 L 49.214,-220.243 L 49.1454,-220.087
 L 49.1225,-219.903 L 49.1275,-219.818 L 49.1426,-219.738 L 49.168,-219.664 L 49.2037,-219.595 L 49.25,-219.532
 L 49.307,-219.474 L 49.3749,-219.422 L 49.4575,-219.374 L 49.5592,-219.327 L 49.6797,-219.28 L 49.8192,-219.234
 L 49.9777,-219.188 L 50.1551,-219.142 L 50.3514,-219.097 L 51.3844,-218.872 L 52.2231,-218.666 L 52.8984,-218.459
 L 53.4411,-218.232 L 53.8822,-217.967 L 54.2526,-217.643 L 54.5831,-217.241 L 54.7321,-217.009 L 54.8582,-216.766
 L 54.9613,-216.512 L 55.0415,-216.247 L 55.0988,-215.971 L 55.1332,-215.684 L 55.1447,-215.386 L 55.0256,-214.47
 L 54.6803,-213.655 L 54.1268,-212.957 L 53.3829,-212.389 L 52.4666,-211.966 L 51.3958,-211.701 L 50.1886,-211.61
 z
M 99.091,-211.679 L 98.1208,-211.887 L 97.2778,-212.233 L 96.5619,-212.716 L 95.9731,-213.338 L 95.511,-214.098
 L 95.1757,-214.995 L 98.3414,-215.565 L 98.4819,-215.209 L 98.6732,-214.907 L 98.9154,-214.661 L 99.2083,-214.469
 L 99.5521,-214.332 L 99.9467,-214.25 L 100.392,-214.222 L 100.732,-214.236 L 101.021,-214.278 L 101.257,-214.348
 L 101.441,-214.445 L 101.573,-214.571 L 101.652,-214.724 L 101.678,-214.906 L 101.672,-215.004 L 101.654,-215.096
 L 101.624,-215.182 L 101.582,-215.263 L 101.528,-215.337 L 101.463,-215.405 L 101.385,-215.467 L 101.289,-215.522
 L 101.174,-215.575 L 101.041,-215.626 L 100.89,-215.676 L 100.719,-215.724 L 100.529,-215.771 L 100.319,-215.817
 L 99.5277,-215.985 L 98.8213,-216.166 L 98.2,-216.361 L 97.6638,-216.571 L 97.2128,-216.794 L 96.8473,-217.031
 L 96.5673,-217.282 L 96.3471,-217.547 L 96.1607,-217.824 L 96.0082,-218.115 L 95.8896,-218.418 L 95.8049,-218.735
 L 95.7541,-219.064 L 95.7372,-219.406 L 95.8365,-220.267 L 96.1311,-221.045 L 96.6161,-221.722 L 97.2864,-222.28
 L 98.1371,-222.702 L 99.1631,-222.967 L 100.36,-223.06 L 101.282,-223.004 L 102.111,-222.837 L 102.846,-222.559
 L 103.487,-222.169 L 104.034,-221.668 L 104.486,-221.056 L 104.844,-220.334 L 102.02,-219.479 L 101.876,-219.774
 L 101.695,-220.024 L 101.477,-220.229 L 101.223,-220.389 L 100.931,-220.503 L 100.603,-220.571 L 100.238,-220.594
 L 99.9426,-220.58 L 99.6926,-220.538 L 99.4878,-220.468 L 99.3282,-220.37 L 99.2141,-220.243 L 99.1455,-220.087
 L 99.1226,-219.903 L 99.1276,-219.818 L 99.1427,-219.738 L 99.1681,-219.664 L 99.2038,-219.595 L 99.2501,-219.532
 L 99.3071,-219.474 L 99.375,-219.422 L 99.4576,-219.374 L 99.5593,-219.327 L 99.6798,-219.28 L 99.8193,-219.234
 L 99.9778,-219.188 L 100.155,-219.142 L 100.352,-219.097 L 101.385,-218.872 L 102.223,-218.666 L 102.899,-218.459
 L 103.441,-218.232 L 103.882,-217.967 L 104.253,-217.643 L 104.583,-217.241 L 104.732,-217.009 L 104.858,-216.766
 L 104.961,-216.512 L 105.042,-216.247 L 105.099,-215.971 L 105.133,-215.684 L 105.145,-215.386 L 105.026,-214.47
 L 104.68,-213.655 L 104.127,-212.957 L 103.383,-212.389 L 102.467,-211.966 L 101.396,-211.701 L 100.189,-211.61
 z
M 215.6,-211.739 L 214.547,-212.116 L 213.637,-212.725 L 212.891,-213.551 L 212.332,-214.578 L 211.981,-215.792
 L 211.859,-217.176 L 211.969,-218.548 L 212.298,-219.795 L 212.844,-220.886 L 213.607,-221.79 L 214.585,-222.474
 L 215.777,-222.908 L 217.181,-223.06 L 218.253,-222.975 L 219.199,-222.725 L 220.017,-222.314 L 220.704,-221.75
 L 221.257,-221.036 L 221.673,-220.18 L 221.95,-219.186 L 218.646,-218.861 L 218.555,-219.321 L 218.423,-219.71
 L 218.248,-220.028 L 218.031,-220.276 L 217.771,-220.453 L 217.469,-220.559 L 217.124,-220.594 L 216.68,-220.529
 L 216.304,-220.333 L 215.996,-220.008 L 215.756,-219.552 L 215.585,-218.966 L 215.482,-218.25 L 215.448,-217.404
 L 215.459,-216.88 L 215.492,-216.41 L 215.546,-215.993 L 215.623,-215.63 L 215.722,-215.322 L 215.842,-215.066
 L 215.985,-214.865 L 216.143,-214.7 L 216.31,-214.561 L 216.486,-214.447 L 216.672,-214.359 L 216.867,-214.297
 L 217.072,-214.259 L 217.287,-214.247 L 217.628,-214.279 L 217.942,-214.372 L 218.219,-214.523 L 218.45,-214.73
 L 218.628,-214.988 L 218.742,-215.295 L 218.784,-215.646 L 216.945,-215.646 L 216.945,-218.006 L 221.95,-218.006
 L 221.95,-211.781 L 220.282,-211.781 L 220.222,-211.975 L 220.161,-212.159 L 220.099,-212.334 L 220.035,-212.499
 L 219.97,-212.656 L 219.903,-212.805 L 219.834,-212.945 L 219.518,-212.591 L 219.161,-212.292 L 218.765,-212.047
 L 218.328,-211.856 L 217.851,-211.719 L 217.333,-211.637 L 216.774,-211.61 z
M 65.3782,-211.777 L 65.3782,-222.885 L 68.788,-222.885 L 68.788,-211.777 z
M 78.1509,-211.777 L 81.7316,-217.531 L 78.2974,-222.885 L 82.2687,-222.885 L 83.9939,-219.899 L 85.7843,-222.885
 L 88.8442,-222.885 L 85.6216,-217.726 L 89.357,-211.777 L 85.3937,-211.777 L 83.3429,-215.268 L 81.2759,-211.777
 z
M 113.197,-211.777 L 113.197,-222.885 L 121.555,-222.885 L 121.555,-220.322 L 116.542,-220.322 L 116.542,-218.711
 L 120.595,-218.711 L 120.595,-216.245 L 116.542,-216.245 L 116.542,-214.43 L 121.555,-214.43 L 121.555,-211.777
 z
M 132.086,-211.777 L 128.489,-222.885 L 132.086,-222.885 L 133.835,-216.831 L 133.887,-216.678 L 133.936,-216.526
 L 133.983,-216.374 L 134.029,-216.223 L 134.072,-216.073 L 134.113,-215.923 L 134.153,-215.773 L 136.204,-222.885
 L 139.011,-222.885 L 135.561,-211.777 z
M 146.531,-211.777 L 146.531,-222.885 L 154.888,-222.885 L 154.888,-220.322 L 149.875,-220.322 L 149.875,-218.711
 L 153.928,-218.711 L 153.928,-216.245 L 149.875,-216.245 L 149.875,-214.43 L 154.888,-214.43 L 154.888,-211.777
 z
M 162.335,-211.777 L 162.335,-222.885 L 165.557,-222.885 L 168.145,-218.816 L 168.358,-218.477 L 168.555,-218.148
 L 168.737,-217.831 L 168.905,-217.526 L 169.057,-217.233 L 169.195,-216.952 L 169.317,-216.684 L 169.249,-217.093
 L 169.191,-217.505 L 169.143,-217.918 L 169.105,-218.334 L 169.079,-218.752 L 169.062,-219.174 L 169.057,-219.598
 L 169.057,-222.885 L 171.832,-222.885 L 171.832,-211.777 L 169.057,-211.777 L 166.013,-216.684 L 165.846,-216.961
 L 165.678,-217.255 L 165.51,-217.566 L 165.342,-217.894 L 165.173,-218.239 L 165.004,-218.6 L 164.833,-218.979
 L 164.904,-218.679 L 164.965,-218.391 L 165.014,-218.117 L 165.052,-217.857 L 165.08,-217.609 L 165.096,-217.376
 L 165.102,-217.156 L 165.102,-211.777 z
M 179.864,-211.777 L 179.864,-222.885 L 188.222,-222.885 L 188.222,-220.322 L 183.209,-220.322 L 183.209,-218.711
 L 187.262,-218.711 L 187.262,-216.245 L 183.209,-216.245 L 183.209,-214.43 L 188.222,-214.43 L 188.222,-211.777
 z
M 198.712,-211.777 L 198.712,-222.885 L 202.122,-222.885 L 202.122,-211.777 z
M 229.042,-211.777 L 229.042,-222.885 L 232.452,-222.885 L 232.452,-218.8 L 235.056,-218.8 L 235.056,-222.885
 L 238.466,-222.885 L 238.466,-211.777 L 235.056,-211.777 L 235.056,-216.098 L 232.452,-216.098 L 232.452,-211.777
 z
M 248.801,-211.777 L 248.801,-220.224 L 246.498,-220.224 L 246.498,-222.885 L 254.335,-222.885 L 254.335,-220.224
 L 252.032,-220.224 L 252.032,-211.777 z
M 45.6679,-195.11 L 45.6679,-206.219 L 48.8906,-206.219 L 51.4784,-202.15 L 51.6907,-201.81 L 51.888,-201.481
 L 52.0703,-201.164 L 52.2378,-200.859 L 52.3902,-200.566 L 52.5277,-200.286 L 52.6503,-200.018 L 52.5821,-200.427
 L 52.524,-200.838 L 52.4761,-201.251 L 52.4386,-201.667 L 52.4116,-202.086 L 52.3954,-202.507 L 52.3899,-202.931
 L 52.3899,-206.219 L 55.165,-206.219 L 55.165,-195.11 L 52.3899,-195.11 L 49.3462,-200.018 L 49.1788,-200.295
 L 49.0112,-200.588 L 48.8434,-200.899 L 48.6751,-201.227 L 48.5063,-201.572 L 48.3367,-201.934 L 48.1663,-202.312
 L 48.2375,-202.012 L 48.2978,-201.725 L 48.3471,-201.451 L 48.3855,-201.19 L 48.4129,-200.943 L 48.4293,-200.709
 L 48.4348,-200.49 L 48.4348,-195.11 z
M 65.3782,-195.11 L 65.3782,-206.219 L 68.788,-206.219 L 68.788,-195.11 z
M 79.0013,-195.11 L 79.0013,-206.219 L 82.224,-206.219 L 84.8118,-202.15 L 85.0241,-201.81 L 85.2214,-201.481
 L 85.4037,-201.164 L 85.5712,-200.859 L 85.7236,-200.566 L 85.8611,-200.286 L 85.9837,-200.018 L 85.9155,-200.427
 L 85.8574,-200.838 L 85.8095,-201.251 L 85.772,-201.667 L 85.745,-202.086 L 85.7288,-202.507 L 85.7233,-202.931
 L 85.7233,-206.219 L 88.4984,-206.219 L 88.4984,-195.11 L 85.7233,-195.11 L 82.6796,-200.018 L 82.5122,-200.295
 L 82.3446,-200.588 L 82.1768,-200.899 L 82.0085,-201.227 L 81.8397,-201.572 L 81.6701,-201.934 L 81.4997,-202.312
 L 81.5709,-202.012 L 81.6312,-201.725 L 81.6805,-201.451 L 81.7189,-201.19 L 81.7463,-200.943 L 81.7627,-200.709
 L 81.7682,-200.49 L 81.7682,-195.11 z
M 96.5306,-195.11 L 96.5306,-206.219 L 104.888,-206.219 L 104.888,-203.655 L 99.8754,-203.655 L 99.8754,-202.044
 L 103.928,-202.044 L 103.928,-199.578 L 99.8754,-199.578 L 99.8754,-197.763 L 104.888,-197.763 L 104.888,-195.11
 z
M 115.468,-195.11 L 115.468,-203.558 L 113.165,-203.558 L 113.165,-206.219 L 121.002,-206.219 L 121.002,-203.558
 L 118.699,-203.558 L 118.699,-195.11 z
M 129.864,-195.11 L 129.864,-206.219 L 138.222,-206.219 L 138.222,-203.655 L 133.209,-203.655 L 133.209,-202.044
 L 137.262,-202.044 L 137.262,-199.578 L 133.209,-199.578 L 133.209,-197.763 L 138.222,-197.763 L 138.222,-195.11
 z
M 145.668,-195.11 L 145.668,-206.219 L 148.891,-206.219 L 151.479,-202.15 L 151.691,-201.81 L 151.888,-201.481
 L 152.071,-201.164 L 152.238,-200.859 L 152.39,-200.566 L 152.528,-200.286 L 152.651,-200.018 L 152.582,-200.427
 L 152.524,-200.838 L 152.476,-201.251 L 152.439,-201.667 L 152.412,-202.086 L 152.396,-202.507 L 152.39,-202.931
 L 152.39,-206.219 L 155.165,-206.219 L 155.165,-195.11 L 152.39,-195.11 L 149.346,-200.018 L 149.179,-200.295
 L 149.011,-200.588 L 148.844,-200.899 L 148.675,-201.227 L 148.506,-201.572 L 148.337,-201.934 L 148.166,-202.312
 L 148.238,-202.012 L 148.298,-201.725 L 148.347,-201.451 L 148.386,-201.19 L 148.413,-200.943 L 148.43,-200.709
 L 148.435,-200.49 L 148.435,-195.11 z
M 163.197,-195.11 L 163.197,-206.219 L 171.555,-206.219 L 171.555,-203.655 L 166.542,-203.655 L 166.542,-202.044
 L 170.595,-202.044 L 170.595,-199.578 L 166.542,-199.578 L 166.542,-197.763 L 171.555,-197.763 L 171.555,-195.11
 z
M 180.23,-195.11 L 180.23,-206.219 L 183.64,-206.219 L 183.64,-197.837 L 188.018,-197.837 L 188.018,-195.11
 z
M 196.531,-195.11 L 196.531,-206.219 L 204.889,-206.219 L 204.889,-203.655 L 199.876,-203.655 L 199.876,-202.044
 L 203.928,-202.044 L 203.928,-199.578 L 199.876,-199.578 L 199.876,-197.763 L 204.889,-197.763 L 204.889,-195.11
 z
M 215.419,-195.11 L 211.822,-206.219 L 215.419,-206.219 L 217.169,-200.164 L 217.22,-200.011 L 217.27,-199.859
 L 217.317,-199.707 L 217.362,-199.557 L 217.406,-199.406 L 217.447,-199.256 L 217.486,-199.106 L 219.537,-206.219
 L 222.345,-206.219 L 218.894,-195.11 z
M 229.864,-195.11 L 229.864,-206.219 L 238.222,-206.219 L 238.222,-203.655 L 233.209,-203.655 L 233.209,-202.044
 L 237.262,-202.044 L 237.262,-199.578 L 233.209,-199.578 L 233.209,-197.763 L 238.222,-197.763 L 238.222,-195.11
 z
M 245.668,-195.11 L 245.668,-206.219 L 248.891,-206.219 L 251.479,-202.15 L 251.691,-201.81 L 251.888,-201.481
 L 252.071,-201.164 L 252.238,-200.859 L 252.391,-200.566 L 252.528,-200.286 L 252.651,-200.018 L 252.582,-200.427
 L 252.524,-200.838 L 252.476,-201.251 L 252.439,-201.667 L 252.412,-202.086 L 252.396,-202.507 L 252.39,-202.931
 L 252.39,-206.219 L 255.165,-206.219 L 255.165,-195.11 L 252.39,-195.11 L 249.347,-200.018 L 249.179,-200.295
 L 249.012,-200.588 L 248.844,-200.899 L 248.676,-201.227 L 248.507,-201.572 L 248.337,-201.934 L 248.167,-202.312
 L 248.238,-202.012 L 248.298,-201.725 L 248.348,-201.451 L 248.386,-201.19 L 248.413,-200.943 L 248.43,-200.709
 L 248.435,-200.49 L 248.435,-195.11 z
M 153.756,-177.373 L 153.28,-177.456 L 152.842,-177.615 L 152.448,-177.866 L 152.102,-178.226 L 151.813,-178.71
 L 151.584,-179.335 L 151.49,-179.318 L 151.396,-179.302 L 151.302,-179.287 L 151.208,-179.274 L 151.114,-179.263
 L 151.019,-179.253 L 150.925,-179.245 L 150.925,-181.817 L 151.06,-181.873 L 151.186,-181.942 L 151.303,-182.026
 L 151.41,-182.124 L 151.508,-182.235 L 151.596,-182.361 L 151.674,-182.5 L 151.774,-182.739 L 151.858,-183.029
 L 151.927,-183.371 L 151.98,-183.764 L 152.018,-184.209 L 152.041,-184.704 L 152.048,-185.251 L 152.025,-185.91
 L 151.957,-186.484 L 151.842,-186.973 L 151.682,-187.377 L 151.475,-187.697 L 151.223,-187.933 L 150.925,-188.083
 L 150.925,-190.655 L 152.088,-190.45 L 153.121,-190.022 L 154.008,-189.385 L 154.729,-188.555 L 155.267,-187.547
 L 155.603,-186.375 L 155.719,-185.056 L 155.678,-184.2 L 155.555,-183.404 L 155.351,-182.668 L 155.066,-181.992
 L 154.7,-181.377 L 154.253,-180.822 L 153.725,-180.327 L 153.785,-180.201 L 153.875,-180.093 L 153.994,-180.005
 L 154.142,-179.936 L 154.319,-179.887 L 154.525,-179.857 L 154.758,-179.847 L 154.873,-179.849 L 154.993,-179.855
 L 155.119,-179.866 L 155.251,-179.881 L 155.388,-179.9 L 155.53,-179.924 L 155.678,-179.953 L 155.678,-177.438
 L 155.428,-177.416 L 155.194,-177.396 L 154.975,-177.379 L 154.773,-177.366 L 154.587,-177.357 L 154.416,-177.351
 L 154.262,-177.349 z
M 148.76,-179.467 L 147.72,-179.918 L 146.834,-180.577 L 146.119,-181.427 L 145.589,-182.446 L 145.26,-183.616
 L 145.147,-184.917 L 145.254,-186.222 L 145.569,-187.4 L 146.083,-188.43 L 146.786,-189.292 L 147.67,-189.963
 L 148.724,-190.421 L 149.941,-190.646 L 149.941,-188.042 L 149.643,-187.858 L 149.39,-187.582 L 149.184,-187.216
 L 149.024,-186.759 L 148.909,-186.211 L 148.84,-185.573 L 148.817,-184.844 L 148.84,-184.146 L 148.909,-183.537
 L 149.024,-183.018 L 149.184,-182.587 L 149.39,-182.245 L 149.643,-181.991 L 149.941,-181.825 L 149.941,-179.245
 z
M 166.03,-178.43 L 165.023,-178.64 L 164.165,-179.002 L 163.469,-179.521 L 162.954,-180.206 L 162.633,-181.064
 L 162.522,-182.105 L 162.522,-189.64 L 165.989,-189.64 L 165.989,-182.503 L 166.016,-182.083 L 166.097,-181.734
 L 166.236,-181.454 L 166.434,-181.24 L 166.693,-181.09 L 167.016,-181.002 L 167.405,-180.973 L 167.741,-180.998
 L 168.041,-181.066 L 168.303,-181.172 L 168.522,-181.309 L 168.696,-181.469 L 168.821,-181.647 L 168.894,-181.836
 L 168.913,-181.944 L 168.93,-182.078 L 168.943,-182.238 L 168.954,-182.425 L 168.961,-182.637 L 168.966,-182.875
 L 168.967,-183.138 L 168.967,-189.64 L 171.645,-189.64 L 171.645,-182.284 L 171.536,-181.187 L 171.223,-180.285
 L 170.721,-179.568 L 170.048,-179.026 L 169.22,-178.65 L 168.255,-178.432 L 167.169,-178.361 z
M 48.801,-178.444 L 48.801,-186.891 L 46.498,-186.891 L 46.498,-189.552 L 54.3349,-189.552 L 54.3349,-186.891
 L 52.0318,-186.891 L 52.0318,-178.444 z
M 62.652,-178.444 L 59.6978,-189.552 L 62.9042,-189.552 L 64.4586,-183.147 L 65.9722,-189.552 L 68.6578,-189.552
 L 70.3017,-183.147 L 71.8561,-189.552 L 74.4684,-189.552 L 71.5224,-178.444 L 68.6578,-178.444 L 67.1035,-184.571
 L 65.6387,-178.444 z
M 79.8639,-178.444 L 79.8639,-189.552 L 88.2216,-189.552 L 88.2216,-186.989 L 83.2087,-186.989 L 83.2087,-185.377
 L 87.2614,-185.377 L 87.2614,-182.911 L 83.2087,-182.911 L 83.2087,-181.097 L 88.2216,-181.097 L 88.2216,-178.444
 z
M 96.8968,-178.444 L 96.8968,-189.552 L 100.307,-189.552 L 100.307,-181.17 L 104.685,-181.17 L 104.685,-178.444
 z
M 115.419,-178.444 L 111.822,-189.552 L 115.419,-189.552 L 117.169,-183.497 L 117.22,-183.344 L 117.269,-183.192
 L 117.317,-183.041 L 117.362,-182.89 L 117.405,-182.739 L 117.447,-182.589 L 117.486,-182.439 L 119.537,-189.552
 L 122.344,-189.552 L 118.894,-178.444 z
M 129.864,-178.444 L 129.864,-189.552 L 138.222,-189.552 L 138.222,-186.989 L 133.209,-186.989 L 133.209,-185.377
 L 137.262,-185.377 L 137.262,-182.911 L 133.209,-182.911 L 133.209,-181.097 L 138.222,-181.097 L 138.222,-178.444
 z
M 178.444,-178.444 L 181.878,-189.552 L 185.483,-189.552 L 187.225,-184.002 L 184.002,-184.002 L 183.359,-186.281
 L 182.456,-183.058 L 183.555,-183.058 L 183.555,-183.017 L 187.526,-183.017 L 188.958,-178.444 L 185.483,-178.444
 L 184.857,-180.633 L 181.878,-180.633 L 181.211,-178.444 z
M 195.652,-178.444 L 195.652,-189.552 L 201.454,-189.552 L 202.465,-189.481 L 203.347,-189.268 L 204.092,-188.916
 L 204.689,-188.427 L 205.128,-187.803 L 205.398,-187.046 L 205.491,-186.158 L 205.444,-185.567 L 205.303,-185.028
 L 205.069,-184.54 L 204.741,-184.105 L 204.32,-183.722 L 203.805,-183.392 L 203.196,-183.115 L 205.645,-178.444
 L 202.423,-178.444 L 200.689,-182.692 L 200.046,-182.692 L 200.046,-185.068 L 200.291,-185.068 L 200.741,-185.087
 L 201.116,-185.147 L 201.419,-185.249 L 201.651,-185.397 L 201.814,-185.592 L 201.911,-185.837 L 201.943,-186.134
 L 201.927,-186.359 L 201.87,-186.575 L 201.755,-186.772 L 201.567,-186.942 L 201.29,-187.075 L 200.907,-187.161
 L 200.405,-187.192 L 199.062,-187.192 L 199.062,-178.444 z
M 215.468,-178.444 L 215.468,-186.891 L 213.165,-186.891 L 213.165,-189.552 L 221.002,-189.552 L 221.002,-186.891
 L 218.699,-186.891 L 218.699,-178.444 z
M 229.864,-178.444 L 229.864,-189.552 L 238.222,-189.552 L 238.222,-186.989 L 233.209,-186.989 L 233.209,-185.377
 L 237.262,-185.377 L 237.262,-182.911 L 233.209,-182.911 L 233.209,-181.097 L 238.222,-181.097 L 238.222,-178.444
 z
M 245.652,-178.444 L 245.652,-189.552 L 251.454,-189.552 L 252.465,-189.481 L 253.347,-189.268 L 254.092,-188.916
 L 254.689,-188.427 L 255.128,-187.803 L 255.398,-187.046 L 255.491,-186.158 L 255.444,-185.567 L 255.304,-185.028
 L 255.069,-184.54 L 254.742,-184.105 L 254.32,-183.722 L 253.805,-183.392 L 253.196,-183.115 L 255.646,-178.444
 L 252.423,-178.444 L 250.69,-182.692 L 250.047,-182.692 L 250.047,-185.068 L 250.291,-185.068 L 250.741,-185.087
 L 251.116,-185.147 L 251.419,-185.249 L 251.651,-185.397 L 251.815,-185.592 L 251.911,-185.837 L 251.943,-186.134
 L 251.927,-186.359 L 251.87,-186.575 L 251.755,-186.772 L 251.567,-186.942 L 251.29,-187.075 L 250.908,-187.161
 L 250.405,-187.192 L 249.062,-187.192 L 249.062,-178.444 z
M 132.185,-161.831 L 131.137,-162.266 L 130.238,-162.912 L 129.507,-163.757 L 128.963,-164.783 L 128.622,-165.977
 L 128.505,-167.322 L 128.613,-168.621 L 128.933,-169.798 L 129.454,-170.83 L 130.167,-171.693 L 131.062,-172.365
 L 132.131,-172.822 L 133.363,-173.043 L 133.363,-170.455 L 133.049,-170.282 L 132.783,-170.012 L 132.564,-169.648
 L 132.394,-169.187 L 132.273,-168.631 L 132.2,-167.98 L 132.175,-167.232 L 132.2,-166.519 L 132.273,-165.899
 L 132.394,-165.372 L 132.564,-164.939 L 132.783,-164.599 L 133.049,-164.351 L 133.363,-164.197 L 133.363,-161.625
 z
M 134.348,-164.229 L 134.47,-164.285 L 134.583,-164.353 L 134.689,-164.434 L 134.787,-164.528 L 134.876,-164.635
 L 134.958,-164.755 L 135.032,-164.888 L 135.132,-165.127 L 135.216,-165.417 L 135.285,-165.759 L 135.338,-166.153
 L 135.376,-166.597 L 135.399,-167.093 L 135.406,-167.639 L 135.385,-168.282 L 135.32,-168.845 L 135.213,-169.327
 L 135.062,-169.728 L 134.867,-170.048 L 134.63,-170.288 L 134.348,-170.447 L 134.348,-173.043 L 135.497,-172.827
 L 136.517,-172.393 L 137.391,-171.755 L 138.102,-170.926 L 138.632,-169.922 L 138.962,-168.756 L 139.076,-167.444
 L 138.962,-166.092 L 138.63,-164.888 L 138.099,-163.846 L 137.388,-162.983 L 136.513,-162.316 L 135.494,-161.861
 L 134.348,-161.633 z
M 149.363,-161.763 L 148.357,-161.974 L 147.498,-162.335 L 146.803,-162.854 L 146.287,-163.539 L 145.966,-164.398
 L 145.855,-165.438 L 145.855,-172.974 L 149.322,-172.974 L 149.322,-165.837 L 149.349,-165.416 L 149.431,-165.067
 L 149.569,-164.787 L 149.767,-164.573 L 150.027,-164.423 L 150.35,-164.335 L 150.738,-164.307 L 151.074,-164.331
 L 151.374,-164.399 L 151.636,-164.505 L 151.856,-164.642 L 152.03,-164.802 L 152.155,-164.981 L 152.227,-165.169
 L 152.247,-165.277 L 152.263,-165.411 L 152.277,-165.572 L 152.287,-165.758 L 152.295,-165.97 L 152.299,-166.208
 L 152.301,-166.471 L 152.301,-172.974 L 154.978,-172.974 L 154.978,-165.617 L 154.87,-164.521 L 154.556,-163.618
 L 154.054,-162.901 L 153.381,-162.359 L 152.553,-161.984 L 151.588,-161.765 L 150.502,-161.694 z
M 48.801,-161.777 L 48.801,-170.224 L 46.498,-170.224 L 46.498,-172.885 L 54.3349,-172.885 L 54.3349,-170.224
 L 52.0318,-170.224 L 52.0318,-161.777 z
M 62.3752,-161.777 L 62.3752,-172.885 L 65.785,-172.885 L 65.785,-168.8 L 68.3893,-168.8 L 68.3893,-172.885
 L 71.7991,-172.885 L 71.7991,-161.777 L 68.3893,-161.777 L 68.3893,-166.098 L 65.785,-166.098 L 65.785,-161.777
 z
M 82.0449,-161.777 L 82.0449,-172.885 L 85.4547,-172.885 L 85.4547,-161.777 z
M 95.6518,-161.777 L 95.6518,-172.885 L 101.454,-172.885 L 102.464,-172.814 L 103.347,-172.601 L 104.092,-172.249
 L 104.689,-171.76 L 105.127,-171.136 L 105.398,-170.379 L 105.491,-169.492 L 105.444,-168.9 L 105.303,-168.361
 L 105.069,-167.874 L 104.741,-167.438 L 104.32,-167.056 L 103.805,-166.726 L 103.196,-166.448 L 105.645,-161.777
 L 102.423,-161.777 L 100.689,-166.025 L 100.046,-166.025 L 100.046,-168.401 L 100.29,-168.401 L 100.741,-168.421
 L 101.116,-168.48 L 101.419,-168.583 L 101.651,-168.73 L 101.814,-168.925 L 101.911,-169.17 L 101.942,-169.467
 L 101.927,-169.692 L 101.87,-169.908 L 101.755,-170.106 L 101.567,-170.275 L 101.289,-170.408 L 100.907,-170.494
 L 100.404,-170.525 L 99.0616,-170.525 L 99.0616,-161.777 z
M 113.494,-161.777 L 113.494,-172.885 L 121.527,-172.885 L 121.527,-170.24 L 116.815,-170.24 L 116.815,-168.434
 L 120.436,-168.434 L 120.436,-165.935 L 116.815,-165.935 L 116.815,-161.777 z
M 162.319,-161.777 L 162.319,-172.885 L 168.121,-172.885 L 169.131,-172.814 L 170.014,-172.601 L 170.759,-172.249
 L 171.355,-171.76 L 171.794,-171.136 L 172.065,-170.379 L 172.157,-169.492 L 172.111,-168.9 L 171.97,-168.361
 L 171.736,-167.874 L 171.408,-167.438 L 170.987,-167.056 L 170.471,-166.726 L 169.862,-166.448 L 172.312,-161.777
 L 169.089,-161.777 L 167.356,-166.025 L 166.713,-166.025 L 166.713,-168.401 L 166.957,-168.401 L 167.407,-168.421
 L 167.783,-168.48 L 168.086,-168.583 L 168.318,-168.73 L 168.481,-168.925 L 168.577,-169.17 L 168.609,-169.467
 L 168.594,-169.692 L 168.536,-169.908 L 168.422,-170.106 L 168.233,-170.275 L 167.956,-170.408 L 167.574,-170.494
 L 167.071,-170.525 L 165.728,-170.525 L 165.728,-161.777 z
M 182.135,-161.777 L 182.135,-170.224 L 179.832,-170.224 L 179.832,-172.885 L 187.669,-172.885 L 187.669,-170.224
 L 185.365,-170.224 L 185.365,-161.777 z
M 196.531,-161.777 L 196.531,-172.885 L 204.889,-172.885 L 204.889,-170.322 L 199.876,-170.322 L 199.876,-168.71
 L 203.928,-168.71 L 203.928,-166.245 L 199.876,-166.245 L 199.876,-164.43 L 204.889,-164.43 L 204.889,-161.777
 z
M 213.197,-161.777 L 213.197,-172.885 L 221.555,-172.885 L 221.555,-170.322 L 216.542,-170.322 L 216.542,-168.71
 L 220.595,-168.71 L 220.595,-166.245 L 216.542,-166.245 L 216.542,-164.43 L 221.555,-164.43 L 221.555,-161.777
 z
M 229.002,-161.777 L 229.002,-172.885 L 232.224,-172.885 L 234.812,-168.816 L 235.024,-168.477 L 235.222,-168.148
 L 235.404,-167.831 L 235.571,-167.526 L 235.724,-167.233 L 235.861,-166.952 L 235.984,-166.684 L 235.916,-167.093
 L 235.858,-167.504 L 235.81,-167.918 L 235.772,-168.334 L 235.745,-168.752 L 235.729,-169.173 L 235.724,-169.598
 L 235.724,-172.885 L 238.499,-172.885 L 238.499,-161.777 L 235.724,-161.777 L 232.68,-166.684 L 232.513,-166.961
 L 232.345,-167.255 L 232.177,-167.566 L 232.009,-167.894 L 231.84,-168.239 L 231.67,-168.6 L 231.5,-168.979
 L 231.571,-168.679 L 231.632,-168.391 L 231.681,-168.117 L 231.719,-167.857 L 231.747,-167.609 L 231.763,-167.376
 L 231.769,-167.156 L 231.769,-161.777 z
M 246.12,-161.777 L 246.12,-172.885 L 249.261,-172.885 L 249.261,-168.629 L 250.84,-168.629 L 251.149,-168.657
 L 251.4,-168.737 L 251.597,-168.857 L 251.745,-169.01 L 251.846,-169.187 L 251.904,-169.377 L 251.922,-169.573
 L 251.899,-169.819 L 251.829,-170.028 L 251.712,-170.198 L 251.549,-170.33 L 251.34,-170.425 L 251.084,-170.482
 L 250.783,-170.501 L 250.238,-170.501 L 250.238,-172.885 L 251.76,-172.885 L 252.684,-172.804 L 253.453,-172.574
 L 254.07,-172.218 L 254.541,-171.757 L 254.871,-171.215 L 255.065,-170.612 L 255.129,-169.972 L 255.09,-169.507
 L 254.976,-169.065 L 254.785,-168.658 L 254.518,-168.293 L 254.176,-167.98 L 253.758,-167.728 L 253.265,-167.547
 L 253.838,-167.365 L 254.323,-167.121 L 254.719,-166.814 L 255.026,-166.445 L 255.246,-166.012 L 255.378,-165.517
 L 255.422,-164.959 L 255.374,-164.262 L 255.207,-163.606 L 254.888,-163.013 L 254.383,-162.509 L 253.657,-162.119
 L 252.677,-161.866 L 251.41,-161.777 L 250.238,-161.777 L 250.238,-164.251 L 250.921,-164.251 L 251.246,-164.279
 L 251.518,-164.358 L 251.737,-164.48 L 251.906,-164.638 L 252.024,-164.823 L 252.095,-165.027 L 252.118,-165.244
 L 252.098,-165.462 L 252.033,-165.671 L 251.917,-165.862 L 251.743,-166.027 L 251.505,-166.155 L 251.195,-166.239
 L 250.808,-166.269 L 249.261,-166.269 L 249.261,-161.777 z
M 165.758,-145.012 L 164.788,-145.22 L 163.945,-145.566 L 163.229,-146.05 L 162.64,-146.672 L 162.178,-147.431
 L 161.842,-148.329 L 165.008,-148.898 L 165.149,-148.542 L 165.34,-148.241 L 165.582,-147.994 L 165.875,-147.802
 L 166.219,-147.665 L 166.614,-147.583 L 167.059,-147.555 L 167.399,-147.569 L 167.688,-147.611 L 167.924,-147.681
 L 168.108,-147.779 L 168.239,-147.904 L 168.318,-148.058 L 168.345,-148.239 L 168.339,-148.337 L 168.321,-148.429
 L 168.291,-148.516 L 168.249,-148.596 L 168.195,-148.67 L 168.129,-148.738 L 168.052,-148.801 L 167.956,-148.855
 L 167.841,-148.908 L 167.708,-148.96 L 167.556,-149.009 L 167.386,-149.058 L 167.196,-149.105 L 166.986,-149.15
 L 166.194,-149.318 L 165.488,-149.499 L 164.867,-149.695 L 164.331,-149.904 L 163.88,-150.127 L 163.514,-150.364
 L 163.234,-150.615 L 163.014,-150.88 L 162.828,-151.157 L 162.675,-151.448 L 162.556,-151.751 L 162.472,-152.068
 L 162.421,-152.397 L 162.404,-152.739 L 162.503,-153.6 L 162.798,-154.378 L 163.283,-155.056 L 163.953,-155.614
 L 164.804,-156.035 L 165.83,-156.301 L 167.026,-156.393 L 167.949,-156.338 L 168.778,-156.17 L 169.513,-155.892
 L 170.154,-155.502 L 170.7,-155.001 L 171.153,-154.39 L 171.51,-153.667 L 168.687,-152.813 L 168.543,-153.108
 L 168.362,-153.357 L 168.144,-153.562 L 167.889,-153.722 L 167.598,-153.836 L 167.27,-153.905 L 166.904,-153.928
 L 166.609,-153.914 L 166.359,-153.872 L 166.155,-153.801 L 165.995,-153.703 L 165.881,-153.576 L 165.812,-153.42
 L 165.789,-153.236 L 165.794,-153.151 L 165.81,-153.072 L 165.835,-152.997 L 165.871,-152.928 L 165.917,-152.865
 L 165.974,-152.807 L 166.042,-152.756 L 166.124,-152.707 L 166.226,-152.66 L 166.347,-152.613 L 166.486,-152.567
 L 166.645,-152.521 L 166.822,-152.475 L 167.018,-152.43 L 168.051,-152.205 L 168.89,-151.999 L 169.565,-151.792
 L 170.108,-151.565 L 170.549,-151.3 L 170.919,-150.976 L 171.25,-150.575 L 171.399,-150.342 L 171.525,-150.099
 L 171.628,-149.845 L 171.708,-149.58 L 171.766,-149.304 L 171.8,-149.017 L 171.812,-148.719 L 171.693,-147.803
 L 171.347,-146.988 L 170.794,-146.29 L 170.05,-145.722 L 169.133,-145.299 L 168.063,-145.034 L 166.855,-144.943
 z
M 232.185,-145.165 L 231.137,-145.599 L 230.238,-146.246 L 229.508,-147.09 L 228.963,-148.116 L 228.623,-149.31
 L 228.505,-150.655 L 228.614,-151.955 L 228.933,-153.132 L 229.454,-154.163 L 230.167,-155.026 L 231.062,-155.698
 L 232.131,-156.156 L 233.364,-156.376 L 233.364,-153.788 L 233.049,-153.615 L 232.783,-153.346 L 232.565,-152.981
 L 232.395,-152.521 L 232.273,-151.965 L 232.2,-151.313 L 232.175,-150.566 L 232.2,-149.852 L 232.273,-149.232
 L 232.395,-148.705 L 232.565,-148.272 L 232.783,-147.932 L 233.049,-147.685 L 233.364,-147.53 L 233.364,-144.958
 z
M 234.348,-147.563 L 234.47,-147.618 L 234.583,-147.686 L 234.689,-147.767 L 234.787,-147.862 L 234.876,-147.969
 L 234.958,-148.089 L 235.032,-148.222 L 235.132,-148.46 L 235.216,-148.751 L 235.285,-149.093 L 235.338,-149.486
 L 235.376,-149.93 L 235.399,-150.426 L 235.406,-150.973 L 235.385,-151.616 L 235.32,-152.178 L 235.213,-152.66
 L 235.062,-153.061 L 234.868,-153.382 L 234.63,-153.621 L 234.348,-153.78 L 234.348,-156.376 L 235.497,-156.161
 L 236.517,-155.727 L 237.391,-155.088 L 238.102,-154.259 L 238.632,-153.255 L 238.962,-152.09 L 239.077,-150.777
 L 238.962,-149.426 L 238.63,-148.221 L 238.1,-147.179 L 237.388,-146.317 L 236.513,-145.649 L 235.494,-145.194
 L 234.348,-144.967 z
M 45.7085,-145.11 L 45.7085,-156.219 L 49.1183,-156.219 L 49.1183,-152.133 L 51.7226,-152.133 L 51.7226,-156.219
 L 55.1324,-156.219 L 55.1324,-145.11 L 51.7226,-145.11 L 51.7226,-149.431 L 49.1183,-149.431 L 49.1183,-145.11
 z
M 61.7772,-145.11 L 65.2115,-156.219 L 68.8165,-156.219 L 70.558,-150.668 L 67.3355,-150.668 L 66.6925,-152.947
 L 65.7893,-149.724 L 66.8879,-149.724 L 66.8879,-149.684 L 70.8591,-149.684 L 72.2915,-145.11 L 68.8165,-145.11
 L 68.19,-147.299 L 65.2115,-147.299 L 64.5441,-145.11 z
M 80.2301,-145.11 L 80.2301,-156.219 L 83.6399,-156.219 L 83.6399,-147.836 L 88.0182,-147.836 L 88.0182,-145.11
 z
M 96.8277,-145.11 L 96.8277,-156.219 L 104.86,-156.219 L 104.86,-153.574 L 100.148,-153.574 L 100.148,-151.767
 L 103.769,-151.767 L 103.769,-149.269 L 100.148,-149.269 L 100.148,-145.11 z
M 113.564,-145.11 L 113.564,-156.219 L 116.973,-156.219 L 116.973,-147.836 L 121.352,-147.836 L 121.352,-145.11
 z
M 129.368,-145.11 L 129.368,-156.219 L 134.112,-156.219 L 135.051,-156.186 L 135.847,-156.086 L 136.518,-155.919
 L 137.08,-155.685 L 137.55,-155.382 L 137.944,-155.009 L 138.279,-154.567 L 138.421,-154.322 L 138.542,-154.069
 L 138.64,-153.809 L 138.717,-153.54 L 138.772,-153.264 L 138.805,-152.979 L 138.816,-152.687 L 138.72,-151.824
 L 138.442,-151.06 L 137.994,-150.405 L 137.388,-149.874 L 136.638,-149.478 L 135.756,-149.232 L 134.755,-149.147
 L 133.762,-149.147 L 133.762,-151.531 L 133.917,-151.531 L 134.315,-151.554 L 134.653,-151.621 L 134.93,-151.734
 L 135.145,-151.891 L 135.299,-152.095 L 135.391,-152.343 L 135.422,-152.638 L 135.394,-152.913 L 135.309,-153.147
 L 135.167,-153.338 L 134.968,-153.487 L 134.712,-153.594 L 134.4,-153.658 L 134.031,-153.679 L 132.777,-153.679
 L 132.826,-145.11 z
M 145.111,-145.11 L 148.545,-156.219 L 152.15,-156.219 L 153.892,-150.668 L 150.669,-150.668 L 150.026,-152.947
 L 149.123,-149.724 L 150.221,-149.724 L 150.221,-149.684 L 154.193,-149.684 L 155.625,-145.11 L 152.15,-145.11
 L 151.523,-147.299 L 148.545,-147.299 L 147.878,-145.11 z
M 182.135,-145.11 L 182.135,-153.557 L 179.832,-153.557 L 179.832,-156.219 L 187.669,-156.219 L 187.669,-153.557
 L 185.365,-153.557 L 185.365,-145.11 z
M 195.111,-145.11 L 198.545,-156.219 L 202.15,-156.219 L 203.892,-150.668 L 200.669,-150.668 L 200.026,-152.947
 L 199.123,-149.724 L 200.221,-149.724 L 200.221,-149.684 L 204.193,-149.684 L 205.625,-145.11 L 202.15,-145.11
 L 201.524,-147.299 L 198.545,-147.299 L 197.878,-145.11 z
M 215.468,-145.11 L 215.468,-153.557 L 213.165,-153.557 L 213.165,-156.219 L 221.002,-156.219 L 221.002,-153.557
 L 218.699,-153.557 L 218.699,-145.11 z
M 244.378,-145.11 L 244.378,-156.219 L 248.83,-156.219 L 250.441,-150.319 L 251.979,-156.219 L 256.455,-156.219
 L 256.455,-145.11 L 253.29,-145.11 L 253.29,-153.053 L 251.231,-145.11 L 249.066,-145.11 L 246.934,-153.053
 L 246.934,-145.11 z
M 48.8511,-128.498 L 47.8033,-128.932 L 46.9048,-129.579 L 46.174,-130.423 L 45.6293,-131.45 L 45.2889,-132.643
 L 45.1714,-133.988 L 45.28,-135.288 L 45.5994,-136.465 L 46.1202,-137.497 L 46.833,-138.36 L 47.7285,-139.031
 L 48.7973,-139.489 L 50.0299,-139.709 L 50.0299,-137.122 L 49.7155,-136.948 L 49.4491,-136.679 L 49.2308,-136.314
 L 49.0608,-135.854 L 48.9392,-135.298 L 48.8661,-134.646 L 48.8418,-133.899 L 48.8661,-133.185 L 48.9392,-132.565
 L 49.0608,-132.039 L 49.2308,-131.605 L 49.4491,-131.265 L 49.7155,-131.018 L 50.0299,-130.863 L 50.0299,-128.292
 z
M 51.0146,-130.896 L 51.1361,-130.951 L 51.2497,-131.02 L 51.3554,-131.101 L 51.453,-131.195 L 51.5427,-131.302
 L 51.6245,-131.422 L 51.6982,-131.555 L 51.7984,-131.794 L 51.8827,-132.084 L 51.9514,-132.426 L 52.0046,-132.819
 L 52.0424,-133.264 L 52.065,-133.759 L 52.0725,-134.306 L 52.0511,-134.949 L 51.9866,-135.512 L 51.8791,-135.993
 L 51.7282,-136.394 L 51.5339,-136.715 L 51.2961,-136.954 L 51.0146,-137.113 L 51.0146,-139.709 L 52.1631,-139.494
 L 53.1834,-139.06 L 54.0577,-138.421 L 54.7685,-137.593 L 55.298,-136.588 L 55.6287,-135.423 L 55.7428,-134.11
 L 55.6283,-132.759 L 55.2966,-131.554 L 54.7659,-130.512 L 54.0543,-129.65 L 53.1798,-128.983 L 52.1605,-128.527
 L 51.0146,-128.3 z
M 148.851,-128.498 L 147.803,-128.932 L 146.905,-129.579 L 146.174,-130.423 L 145.629,-131.45 L 145.289,-132.643
 L 145.172,-133.988 L 145.28,-135.288 L 145.6,-136.465 L 146.12,-137.497 L 146.833,-138.36 L 147.729,-139.031
 L 148.797,-139.489 L 150.03,-139.709 L 150.03,-137.122 L 149.716,-136.948 L 149.449,-136.679 L 149.231,-136.314
 L 149.061,-135.854 L 148.939,-135.298 L 148.866,-134.646 L 148.842,-133.899 L 148.866,-133.185 L 148.939,-132.565
 L 149.061,-132.039 L 149.231,-131.605 L 149.449,-131.265 L 149.716,-131.018 L 150.03,-130.863 L 150.03,-128.292
 z
M 151.015,-130.896 L 151.136,-130.951 L 151.25,-131.02 L 151.356,-131.101 L 151.453,-131.195 L 151.543,-131.302
 L 151.625,-131.422 L 151.698,-131.555 L 151.799,-131.794 L 151.883,-132.084 L 151.952,-132.426 L 152.005,-132.819
 L 152.043,-133.264 L 152.065,-133.759 L 152.073,-134.306 L 152.051,-134.949 L 151.987,-135.512 L 151.879,-135.993
 L 151.728,-136.394 L 151.534,-136.715 L 151.296,-136.954 L 151.015,-137.113 L 151.015,-139.709 L 152.163,-139.494
 L 153.184,-139.06 L 154.058,-138.421 L 154.769,-137.593 L 155.298,-136.588 L 155.629,-135.423 L 155.743,-134.11
 L 155.628,-132.759 L 155.297,-131.554 L 154.766,-130.512 L 154.054,-129.65 L 153.18,-128.983 L 152.161,-128.527
 L 151.015,-128.3 z
M 62.3346,-128.443 L 62.3346,-139.552 L 65.5573,-139.552 L 68.1451,-135.483 L 68.3574,-135.143 L 68.5547,-134.815
 L 68.737,-134.498 L 68.9045,-134.192 L 69.0569,-133.899 L 69.1944,-133.619 L 69.317,-133.351 L 69.2488,-133.76
 L 69.1907,-134.171 L 69.1428,-134.584 L 69.1053,-135 L 69.0783,-135.419 L 69.0621,-135.84 L 69.0566,-136.264
 L 69.0566,-139.552 L 71.8317,-139.552 L 71.8317,-128.443 L 69.0566,-128.443 L 66.0129,-133.351 L 65.8455,-133.628
 L 65.6779,-133.922 L 65.5101,-134.233 L 65.3418,-134.56 L 65.173,-134.905 L 65.0034,-135.267 L 64.833,-135.646
 L 64.9042,-135.345 L 64.9645,-135.058 L 65.0138,-134.784 L 65.0522,-134.523 L 65.0796,-134.276 L 65.096,-134.042
 L 65.1015,-133.823 L 65.1015,-128.443 z
M 79.8639,-128.443 L 79.8639,-139.552 L 88.2216,-139.552 L 88.2216,-136.988 L 83.2087,-136.988 L 83.2087,-135.377
 L 87.2614,-135.377 L 87.2614,-132.911 L 83.2087,-132.911 L 83.2087,-131.096 L 88.2216,-131.096 L 88.2216,-128.443
 z
M 96.8968,-128.443 L 96.8968,-139.552 L 100.307,-139.552 L 100.307,-131.17 L 104.685,-131.17 L 104.685,-128.443
 z
M 115.468,-128.443 L 115.468,-136.891 L 113.165,-136.891 L 113.165,-139.552 L 121.002,-139.552 L 121.002,-136.891
 L 118.699,-136.891 L 118.699,-128.443 z
M 129.319,-128.443 L 126.365,-139.552 L 129.571,-139.552 L 131.125,-133.147 L 132.639,-139.552 L 135.325,-139.552
 L 136.969,-133.147 L 138.523,-139.552 L 141.135,-139.552 L 138.189,-128.443 L 135.325,-128.443 L 133.77,-134.571
 L 132.305,-128.443 z
M 162.786,-128.443 L 162.786,-139.552 L 165.928,-139.552 L 165.928,-135.296 L 167.507,-135.296 L 167.815,-135.324
 L 168.066,-135.403 L 168.264,-135.524 L 168.411,-135.677 L 168.512,-135.853 L 168.57,-136.044 L 168.589,-136.24
 L 168.566,-136.486 L 168.495,-136.694 L 168.379,-136.865 L 168.216,-136.997 L 168.006,-137.092 L 167.751,-137.149
 L 167.45,-137.167 L 166.904,-137.167 L 166.904,-139.552 L 168.426,-139.552 L 169.351,-139.47 L 170.119,-139.24
 L 170.736,-138.884 L 171.207,-138.424 L 171.537,-137.882 L 171.732,-137.279 L 171.795,-136.639 L 171.757,-136.173
 L 171.642,-135.732 L 171.451,-135.324 L 171.184,-134.959 L 170.842,-134.646 L 170.424,-134.395 L 169.932,-134.213
 L 170.505,-134.032 L 170.989,-133.788 L 171.385,-133.481 L 171.693,-133.111 L 171.913,-132.679 L 172.044,-132.183
 L 172.088,-131.625 L 172.04,-130.929 L 171.874,-130.272 L 171.555,-129.68 L 171.049,-129.176 L 170.324,-128.785
 L 169.344,-128.533 L 168.076,-128.443 L 166.904,-128.443 L 166.904,-130.917 L 167.588,-130.917 L 167.913,-130.945
 L 168.185,-131.025 L 168.404,-131.147 L 168.572,-131.304 L 168.691,-131.489 L 168.761,-131.694 L 168.784,-131.91
 L 168.764,-132.128 L 168.7,-132.338 L 168.584,-132.529 L 168.41,-132.694 L 168.171,-132.822 L 167.862,-132.906
 L 167.474,-132.936 L 165.928,-132.936 L 165.928,-128.443 z
M 182.135,-128.443 L 182.135,-136.891 L 179.832,-136.891 L 179.832,-139.552 L 187.669,-139.552 L 187.669,-136.891
 L 185.365,-136.891 L 185.365,-128.443 z
M 195.709,-128.443 L 195.709,-139.552 L 199.119,-139.552 L 199.119,-135.467 L 201.723,-135.467 L 201.723,-139.552
 L 205.133,-139.552 L 205.133,-128.443 L 201.723,-128.443 L 201.723,-132.765 L 199.119,-132.765 L 199.119,-128.443
 z
M 212.319,-128.443 L 212.319,-139.552 L 218.121,-139.552 L 219.131,-139.48 L 220.014,-139.268 L 220.759,-138.916
 L 221.355,-138.427 L 221.794,-137.803 L 222.065,-137.046 L 222.157,-136.158 L 222.111,-135.567 L 221.97,-135.027
 L 221.736,-134.54 L 221.408,-134.105 L 220.987,-133.722 L 220.471,-133.392 L 219.863,-133.115 L 222.312,-128.443
 L 219.09,-128.443 L 217.356,-132.691 L 216.713,-132.691 L 216.713,-135.068 L 216.957,-135.068 L 217.408,-135.087
 L 217.783,-135.147 L 218.086,-135.249 L 218.318,-135.397 L 218.481,-135.592 L 218.578,-135.837 L 218.609,-136.134
 L 218.594,-136.359 L 218.536,-136.575 L 218.422,-136.772 L 218.234,-136.942 L 217.956,-137.075 L 217.574,-137.161
 L 217.071,-137.192 L 215.728,-137.192 L 215.728,-128.443 z
M 229.864,-128.443 L 229.864,-139.552 L 238.222,-139.552 L 238.222,-136.988 L 233.209,-136.988 L 233.209,-135.377
 L 237.262,-135.377 L 237.262,-132.911 L 233.209,-132.911 L 233.209,-131.096 L 238.222,-131.096 L 238.222,-128.443
 z
M 246.531,-128.443 L 246.531,-139.552 L 254.889,-139.552 L 254.889,-136.988 L 249.876,-136.988 L 249.876,-135.377
 L 253.928,-135.377 L 253.928,-132.911 L 249.876,-132.911 L 249.876,-131.096 L 254.889,-131.096 L 254.889,-128.443
 z
M 215.758,-111.679 L 214.788,-111.887 L 213.945,-112.232 L 213.229,-112.716 L 212.64,-113.338 L 212.178,-114.098
 L 211.843,-114.995 L 215.008,-115.565 L 215.149,-115.209 L 215.34,-114.907 L 215.582,-114.66 L 215.875,-114.469
 L 216.219,-114.332 L 216.614,-114.249 L 217.059,-114.222 L 217.399,-114.236 L 217.688,-114.278 L 217.924,-114.348
 L 218.108,-114.445 L 218.239,-114.571 L 218.319,-114.724 L 218.345,-114.906 L 218.339,-115.004 L 218.321,-115.096
 L 218.291,-115.182 L 218.249,-115.262 L 218.195,-115.337 L 218.13,-115.405 L 218.052,-115.467 L 217.956,-115.522
 L 217.841,-115.575 L 217.708,-115.626 L 217.557,-115.676 L 217.386,-115.724 L 217.196,-115.771 L 216.986,-115.817
 L 216.195,-115.984 L 215.488,-116.166 L 214.867,-116.361 L 214.331,-116.57 L 213.88,-116.794 L 213.514,-117.031
 L 213.234,-117.282 L 213.014,-117.546 L 212.828,-117.824 L 212.675,-118.115 L 212.557,-118.418 L 212.472,-118.734
 L 212.421,-119.064 L 212.404,-119.406 L 212.503,-120.267 L 212.798,-121.045 L 213.283,-121.722 L 213.953,-122.28
 L 214.804,-122.701 L 215.83,-122.967 L 217.026,-123.06 L 217.949,-123.004 L 218.778,-122.837 L 219.513,-122.558
 L 220.154,-122.169 L 220.701,-121.668 L 221.153,-121.056 L 221.51,-120.334 L 218.687,-119.479 L 218.543,-119.774
 L 218.362,-120.024 L 218.144,-120.229 L 217.889,-120.388 L 217.598,-120.503 L 217.27,-120.571 L 216.904,-120.594
 L 216.609,-120.58 L 216.36,-120.538 L 216.155,-120.468 L 215.995,-120.369 L 215.881,-120.242 L 215.812,-120.087
 L 215.789,-119.902 L 215.794,-119.818 L 215.81,-119.738 L 215.835,-119.664 L 215.871,-119.595 L 215.917,-119.532
 L 215.974,-119.474 L 216.042,-119.422 L 216.125,-119.374 L 216.226,-119.326 L 216.347,-119.28 L 216.486,-119.233
 L 216.645,-119.188 L 216.822,-119.142 L 217.018,-119.097 L 218.051,-118.872 L 218.89,-118.665 L 219.565,-118.459
 L 220.108,-118.232 L 220.549,-117.966 L 220.92,-117.643 L 221.25,-117.241 L 221.399,-117.009 L 221.525,-116.766
 L 221.628,-116.512 L 221.709,-116.247 L 221.766,-115.971 L 221.8,-115.684 L 221.812,-115.386 L 221.693,-114.469
 L 221.347,-113.655 L 220.794,-112.957 L 220.05,-112.389 L 219.134,-111.965 L 218.063,-111.701 L 216.856,-111.61
 z
M 65.5178,-111.831 L 64.47,-112.265 L 63.5715,-112.912 L 62.8407,-113.757 L 62.296,-114.783 L 61.9556,-115.976
 L 61.8381,-117.322 L 61.9467,-118.621 L 62.2661,-119.798 L 62.7869,-120.83 L 63.4997,-121.693 L 64.3952,-122.365
 L 65.464,-122.822 L 66.6966,-123.043 L 66.6966,-120.455 L 66.3822,-120.281 L 66.1158,-120.012 L 65.8975,-119.648
 L 65.7275,-119.187 L 65.6059,-118.631 L 65.5328,-117.98 L 65.5085,-117.232 L 65.5328,-116.519 L 65.6059,-115.899
 L 65.7275,-115.372 L 65.8975,-114.939 L 66.1158,-114.598 L 66.3822,-114.351 L 66.6966,-114.197 L 66.6966,-111.625
 z
M 67.6813,-114.229 L 67.8028,-114.285 L 67.9164,-114.353 L 68.0221,-114.434 L 68.1197,-114.528 L 68.2094,-114.635
 L 68.2912,-114.755 L 68.3649,-114.888 L 68.4651,-115.127 L 68.5494,-115.417 L 68.6181,-115.759 L 68.6713,-116.152
 L 68.7091,-116.597 L 68.7317,-117.093 L 68.7392,-117.639 L 68.7178,-118.282 L 68.6533,-118.845 L 68.5458,-119.327
 L 68.3949,-119.728 L 68.2006,-120.048 L 67.9628,-120.288 L 67.6813,-120.447 L 67.6813,-123.043 L 68.8298,-122.827
 L 69.8501,-122.393 L 70.7244,-121.755 L 71.4352,-120.926 L 71.9647,-119.922 L 72.2954,-118.756 L 72.4095,-117.444
 L 72.295,-116.092 L 71.9633,-114.887 L 71.4326,-113.846 L 70.721,-112.983 L 69.8465,-112.316 L 68.8272,-111.861
 L 67.6813,-111.633 z
M 82.6964,-111.763 L 81.6898,-111.974 L 80.8311,-112.335 L 80.136,-112.854 L 79.62,-113.539 L 79.299,-114.398
 L 79.1885,-115.438 L 79.1885,-122.973 L 82.6553,-122.973 L 82.6553,-115.836 L 82.6821,-115.416 L 82.7638,-115.067
 L 82.9026,-114.787 L 83.1006,-114.573 L 83.36,-114.423 L 83.6828,-114.335 L 84.0713,-114.306 L 84.4071,-114.331
 L 84.7075,-114.399 L 84.9692,-114.505 L 85.1888,-114.642 L 85.3628,-114.802 L 85.4879,-114.98 L 85.5605,-115.169
 L 85.58,-115.277 L 85.5964,-115.411 L 85.6099,-115.571 L 85.6204,-115.758 L 85.6279,-115.97 L 85.6324,-116.208
 L 85.6339,-116.471 L 85.6339,-122.973 L 88.3113,-122.973 L 88.3113,-115.617 L 88.203,-114.521 L 87.8894,-113.618
 L 87.3875,-112.901 L 86.7142,-112.359 L 85.8864,-111.984 L 84.9211,-111.765 L 83.8353,-111.694 z
M 46.8276,-111.777 L 46.8276,-122.885 L 54.8598,-122.885 L 54.8598,-120.24 L 50.148,-120.24 L 50.148,-118.434
 L 53.7693,-118.434 L 53.7693,-115.935 L 50.148,-115.935 L 50.148,-111.777 z
M 95.6518,-111.777 L 95.6518,-122.885 L 101.454,-122.885 L 102.464,-122.814 L 103.347,-122.601 L 104.092,-122.249
 L 104.689,-121.76 L 105.127,-121.136 L 105.398,-120.379 L 105.491,-119.492 L 105.444,-118.9 L 105.303,-118.361
 L 105.069,-117.873 L 104.741,-117.438 L 104.32,-117.056 L 103.805,-116.726 L 103.196,-116.448 L 105.645,-111.777
 L 102.423,-111.777 L 100.689,-116.025 L 100.046,-116.025 L 100.046,-118.401 L 100.29,-118.401 L 100.741,-118.42
 L 101.116,-118.48 L 101.419,-118.582 L 101.651,-118.73 L 101.814,-118.925 L 101.911,-119.17 L 101.942,-119.467
 L 101.927,-119.692 L 101.87,-119.908 L 101.755,-120.106 L 101.567,-120.275 L 101.289,-120.408 L 100.907,-120.494
 L 100.404,-120.525 L 99.0616,-120.525 L 99.0616,-111.777 z
M 112.461,-111.777 L 112.461,-113.901 L 117.384,-120.314 L 112.835,-120.314 L 112.835,-122.885 L 121.551,-122.885
 L 121.551,-120.729 L 116.774,-114.397 L 121.706,-114.397 L 121.706,-111.777 z
M 130.161,-111.777 L 130.161,-122.885 L 138.193,-122.885 L 138.193,-120.24 L 133.481,-120.24 L 133.481,-118.434
 L 137.103,-118.434 L 137.103,-115.935 L 133.481,-115.935 L 133.481,-111.777 z
M 148.712,-111.777 L 148.712,-122.885 L 152.121,-122.885 L 152.121,-111.777 z
M 165.419,-111.777 L 161.822,-122.885 L 165.419,-122.885 L 167.169,-116.83 L 167.22,-116.677 L 167.269,-116.525
 L 167.317,-116.374 L 167.362,-116.223 L 167.405,-116.073 L 167.447,-115.923 L 167.486,-115.773 L 169.537,-122.885
 L 172.345,-122.885 L 168.894,-111.777 z
M 179.864,-111.777 L 179.864,-122.885 L 188.222,-122.885 L 188.222,-120.322 L 183.209,-120.322 L 183.209,-118.71
 L 187.262,-118.71 L 187.262,-116.244 L 183.209,-116.244 L 183.209,-114.43 L 188.222,-114.43 L 188.222,-111.777
 z
M 195.758,-111.777 L 195.758,-122.885 L 200.055,-122.885 L 201.54,-122.733 L 202.795,-122.303 L 203.82,-121.635
 L 204.616,-120.769 L 205.184,-119.745 L 205.524,-118.603 L 205.637,-117.384 L 205.507,-116.028 L 205.129,-114.82
 L 204.525,-113.783 L 203.716,-112.938 L 202.723,-112.308 L 201.566,-111.913 L 200.266,-111.777 L 200.152,-111.777
 L 200.152,-114.332 L 200.599,-114.426 L 201.005,-114.647 L 201.359,-114.987 L 201.653,-115.439 L 201.875,-115.996
 L 202.016,-116.649 L 202.065,-117.392 L 202.022,-118.066 L 201.894,-118.689 L 201.684,-119.241 L 201.392,-119.703
 L 201.023,-120.057 L 200.576,-120.283 L 200.055,-120.362 L 199.168,-120.362 L 199.168,-111.777 z
M 232.045,-111.777 L 232.045,-122.885 L 235.455,-122.885 L 235.455,-111.777 z
M 244.818,-111.777 L 248.399,-117.53 L 244.964,-122.885 L 248.936,-122.885 L 250.661,-119.898 L 252.451,-122.885
 L 255.511,-122.885 L 252.289,-117.726 L 256.024,-111.777 L 252.061,-111.777 L 250.01,-115.268 L 247.943,-111.777
 z
M 49.0909,-95.0123 L 48.1207,-95.2199 L 47.2777,-95.5657 L 46.5618,-96.0496 L 45.973,-96.6714 L 45.5109,-97.4311
 L 45.1756,-98.3285 L 48.3413,-98.8981 L 48.4818,-98.5419 L 48.6731,-98.2404 L 48.9153,-97.9938 L 49.2082,-97.8019
 L 49.552,-97.6649 L 49.9466,-97.5827 L 50.3921,-97.5553 L 50.7323,-97.5693 L 51.0206,-97.6111 L 51.2569,-97.6809
 L 51.4408,-97.7785 L 51.5724,-97.9041 L 51.6515,-98.0576 L 51.6779,-98.239 L 51.6719,-98.3371 L 51.654,-98.4292
 L 51.6241,-98.5154 L 51.5822,-98.5956 L 51.5284,-98.6699 L 51.4626,-98.7381 L 51.3849,-98.8004 L 51.2887,-98.8553
 L 51.1742,-98.9082 L 51.0413,-98.9595 L 50.8896,-99.0092 L 50.7188,-99.0575 L 50.5286,-99.1045 L 50.3188,-99.1504
 L 49.5276,-99.3178 L 48.8212,-99.4992 L 48.1999,-99.6945 L 47.6637,-99.9037 L 47.2127,-100.127 L 46.8472,-100.364
 L 46.5672,-100.615 L 46.347,-100.88 L 46.1606,-101.157 L 46.0081,-101.448 L 45.8895,-101.751 L 45.8048,-102.068
 L 45.754,-102.397 L 45.7371,-102.739 L 45.8364,-103.6 L 46.131,-104.378 L 46.616,-105.055 L 47.2863,-105.614
 L 48.137,-106.035 L 49.163,-106.301 L 50.3595,-106.393 L 51.2822,-106.337 L 52.1111,-106.17 L 52.8461,-105.892
 L 53.4869,-105.502 L 54.0336,-105.001 L 54.4858,-104.389 L 54.8435,-103.667 L 52.0197,-102.813 L 51.8757,-103.107
 L 51.6948,-103.357 L 51.4771,-103.562 L 51.2225,-103.722 L 50.931,-103.836 L 50.6026,-103.905 L 50.2374,-103.927
 L 49.9425,-103.913 L 49.6925,-103.871 L 49.4877,-103.801 L 49.3281,-103.703 L 49.214,-103.576 L 49.1454,-103.42
 L 49.1225,-103.236 L 49.1275,-103.151 L 49.1426,-103.071 L 49.168,-102.997 L 49.2037,-102.928 L 49.25,-102.865
 L 49.307,-102.807 L 49.3749,-102.756 L 49.4575,-102.707 L 49.5592,-102.66 L 49.6797,-102.613 L 49.8192,-102.567
 L 49.9777,-102.521 L 50.1551,-102.475 L 50.3514,-102.43 L 51.3844,-102.205 L 52.2231,-101.999 L 52.8984,-101.792
 L 53.4411,-101.565 L 53.8822,-101.3 L 54.2526,-100.976 L 54.5831,-100.575 L 54.7321,-100.342 L 54.8582,-100.099
 L 54.9613,-99.8451 L 55.0415,-99.58 L 55.0988,-99.304 L 55.1332,-99.017 L 55.1447,-98.7191 L 55.0256,-97.8027
 L 54.6803,-96.9882 L 54.1268,-96.2899 L 53.3829,-95.722 L 52.4666,-95.2987 L 51.3958,-95.0343 L 50.1886,-94.943
 z
M 165.6,-95.072 L 164.547,-95.4487 L 163.637,-96.0577 L 162.891,-96.8837 L 162.332,-97.9112 L 161.981,-99.1249
 L 161.859,-100.509 L 161.969,-101.881 L 162.297,-103.128 L 162.844,-104.219 L 163.607,-105.123 L 164.585,-105.808
 L 165.777,-106.242 L 167.181,-106.393 L 168.253,-106.308 L 169.199,-106.058 L 170.017,-105.648 L 170.704,-105.083
 L 171.257,-104.369 L 171.673,-103.513 L 171.95,-102.519 L 168.646,-102.194 L 168.555,-102.654 L 168.422,-103.043
 L 168.248,-103.361 L 168.03,-103.609 L 167.771,-103.786 L 167.469,-103.892 L 167.124,-103.927 L 166.68,-103.862
 L 166.304,-103.667 L 165.996,-103.341 L 165.756,-102.885 L 165.585,-102.299 L 165.482,-101.583 L 165.448,-100.737
 L 165.459,-100.213 L 165.491,-99.7427 L 165.546,-99.3262 L 165.623,-98.9635 L 165.722,-98.6546 L 165.842,-98.3995
 L 165.985,-98.1983 L 166.143,-98.0333 L 166.31,-97.8941 L 166.486,-97.7806 L 166.672,-97.6925 L 166.867,-97.6298
 L 167.072,-97.5923 L 167.287,-97.5798 L 167.628,-97.6116 L 167.942,-97.705 L 168.219,-97.8565 L 168.45,-98.063
 L 168.628,-98.3212 L 168.742,-98.6278 L 168.784,-98.9795 L 166.945,-98.9795 L 166.945,-101.34 L 171.95,-101.34
 L 171.95,-95.1139 L 170.282,-95.1139 L 170.222,-95.3078 L 170.161,-95.492 L 170.099,-95.6668 L 170.035,-95.8325
 L 169.97,-95.9893 L 169.903,-96.1376 L 169.834,-96.2777 L 169.518,-95.9244 L 169.161,-95.6252 L 168.765,-95.38
 L 168.328,-95.189 L 167.85,-95.0525 L 167.333,-94.9704 L 166.774,-94.943 z
M 63.1972,-95.1101 L 63.1972,-106.218 L 71.5549,-106.218 L 71.5549,-103.655 L 66.542,-103.655 L 66.542,-102.044
 L 70.5947,-102.044 L 70.5947,-99.5778 L 66.542,-99.5778 L 66.542,-97.763 L 71.5549,-97.763 L 71.5549,-95.1101
 z
M 82.0856,-95.1101 L 78.4886,-106.218 L 82.0856,-106.218 L 83.8352,-100.164 L 83.8866,-100.011 L 83.9359,-99.8586
 L 83.9833,-99.7072 L 84.0286,-99.5564 L 84.0719,-99.406 L 84.1133,-99.2558 L 84.1526,-99.1058 L 86.2034,-106.218
 L 89.0111,-106.218 L 85.5606,-95.1101 z
M 96.5306,-95.1101 L 96.5306,-106.218 L 104.888,-106.218 L 104.888,-103.655 L 99.8754,-103.655 L 99.8754,-102.044
 L 103.928,-102.044 L 103.928,-99.5778 L 99.8754,-99.5778 L 99.8754,-97.763 L 104.888,-97.763 L 104.888,-95.1101
 z
M 112.335,-95.1101 L 112.335,-106.218 L 115.557,-106.218 L 118.145,-102.15 L 118.357,-101.81 L 118.555,-101.481
 L 118.737,-101.164 L 118.905,-100.859 L 119.057,-100.566 L 119.195,-100.285 L 119.317,-100.017 L 119.249,-100.426
 L 119.191,-100.838 L 119.143,-101.251 L 119.105,-101.667 L 119.078,-102.085 L 119.062,-102.507 L 119.057,-102.931
 L 119.057,-106.218 L 121.832,-106.218 L 121.832,-95.1101 L 119.057,-95.1101 L 116.013,-100.017 L 115.846,-100.294
 L 115.678,-100.588 L 115.51,-100.899 L 115.342,-101.227 L 115.173,-101.572 L 115.003,-101.934 L 114.833,-102.312
 L 114.904,-102.012 L 114.965,-101.724 L 115.014,-101.45 L 115.052,-101.19 L 115.08,-100.943 L 115.096,-100.709
 L 115.102,-100.489 L 115.102,-95.1101 z
M 129.864,-95.1101 L 129.864,-106.218 L 138.222,-106.218 L 138.222,-103.655 L 133.209,-103.655 L 133.209,-102.044
 L 137.262,-102.044 L 137.262,-99.5778 L 133.209,-99.5778 L 133.209,-97.763 L 138.222,-97.763 L 138.222,-95.1101
 z
M 148.712,-95.1101 L 148.712,-106.218 L 152.121,-106.218 L 152.121,-95.1101 z
M 179.042,-95.1101 L 179.042,-106.218 L 182.452,-106.218 L 182.452,-102.133 L 185.056,-102.133 L 185.056,-106.218
 L 188.466,-106.218 L 188.466,-95.1101 L 185.056,-95.1101 L 185.056,-99.4314 L 182.452,-99.4314 L 182.452,-95.1101
 z
M 198.801,-95.1101 L 198.801,-103.557 L 196.498,-103.557 L 196.498,-106.218 L 204.335,-106.218 L 204.335,-103.557
 L 202.032,-103.557 L 202.032,-95.1101 z
M 215.468,-95.1101 L 215.468,-103.557 L 213.165,-103.557 L 213.165,-106.218 L 221.002,-106.218 L 221.002,-103.557
 L 218.699,-103.557 L 218.699,-95.1101 z
M 229.864,-95.1101 L 229.864,-106.218 L 238.222,-106.218 L 238.222,-103.655 L 233.209,-103.655 L 233.209,-102.044
 L 237.262,-102.044 L 237.262,-99.5778 L 233.209,-99.5778 L 233.209,-97.763 L 238.222,-97.763 L 238.222,-95.1101
 z
M 245.668,-95.1101 L 245.668,-106.218 L 248.891,-106.218 L 251.479,-102.15 L 251.691,-101.81 L 251.888,-101.481
 L 252.071,-101.164 L 252.238,-100.859 L 252.391,-100.566 L 252.528,-100.285 L 252.651,-100.017 L 252.582,-100.426
 L 252.524,-100.838 L 252.476,-101.251 L 252.439,-101.667 L 252.412,-102.085 L 252.396,-102.507 L 252.39,-102.931
 L 252.39,-106.218 L 255.165,-106.218 L 255.165,-95.1101 L 252.39,-95.1101 L 249.347,-100.017 L 249.179,-100.294
 L 249.012,-100.588 L 248.844,-100.899 L 248.676,-101.227 L 248.507,-101.572 L 248.337,-101.934 L 248.167,-102.312
 L 248.238,-102.012 L 248.298,-101.724 L 248.348,-101.45 L 248.386,-101.19 L 248.413,-100.943 L 248.43,-100.709
 L 248.435,-100.489 L 248.435,-95.1101 z
M 45.6679,-78.4434 L 45.6679,-89.5518 L 48.8906,-89.5518 L 51.4784,-85.4828 L 51.6907,-85.143 L 51.888,-84.8145
 L 52.0703,-84.4975 L 52.2378,-84.1924 L 52.3902,-83.8993 L 52.5277,-83.6186 L 52.6503,-83.3506 L 52.5821,-83.7597
 L 52.524,-84.1709 L 52.4761,-84.5844 L 52.4386,-85.0003 L 52.4116,-85.4188 L 52.3954,-85.84 L 52.3899,-86.264
 L 52.3899,-89.5518 L 55.165,-89.5518 L 55.165,-78.4434 L 52.3899,-78.4434 L 49.3462,-83.3506 L 49.1788,-83.6276
 L 49.0112,-83.9216 L 48.8434,-84.2325 L 48.6751,-84.5603 L 48.5063,-84.9051 L 48.3367,-85.2668 L 48.1663,-85.6455
 L 48.2375,-85.3451 L 48.2978,-85.0578 L 48.3471,-84.7837 L 48.3855,-84.523 L 48.4129,-84.2758 L 48.4293,-84.0423
 L 48.4348,-83.8226 L 48.4348,-78.4434 z
M 65.3782,-78.4434 L 65.3782,-89.5518 L 68.788,-89.5518 L 68.788,-78.4434 z
M 79.0013,-78.4434 L 79.0013,-89.5518 L 82.224,-89.5518 L 84.8118,-85.4828 L 85.0241,-85.143 L 85.2214,-84.8145
 L 85.4037,-84.4975 L 85.5712,-84.1924 L 85.7236,-83.8993 L 85.8611,-83.6186 L 85.9837,-83.3506 L 85.9155,-83.7597
 L 85.8574,-84.1709 L 85.8095,-84.5844 L 85.772,-85.0003 L 85.745,-85.4188 L 85.7288,-85.84 L 85.7233,-86.264
 L 85.7233,-89.5518 L 88.4984,-89.5518 L 88.4984,-78.4434 L 85.7233,-78.4434 L 82.6796,-83.3506 L 82.5122,-83.6276
 L 82.3446,-83.9216 L 82.1768,-84.2325 L 82.0085,-84.5603 L 81.8397,-84.9051 L 81.6701,-85.2668 L 81.4997,-85.6455
 L 81.5709,-85.3451 L 81.6312,-85.0578 L 81.6805,-84.7837 L 81.7189,-84.523 L 81.7463,-84.2758 L 81.7627,-84.0423
 L 81.7682,-83.8226 L 81.7682,-78.4434 z
M 96.5306,-78.4434 L 96.5306,-89.5518 L 104.888,-89.5518 L 104.888,-86.9883 L 99.8754,-86.9883 L 99.8754,-85.377
 L 103.928,-85.377 L 103.928,-82.9111 L 99.8754,-82.9111 L 99.8754,-81.0963 L 104.888,-81.0963 L 104.888,-78.4434
 z
M 113.197,-78.4434 L 113.197,-89.5518 L 121.555,-89.5518 L 121.555,-86.9883 L 116.542,-86.9883 L 116.542,-85.377
 L 120.595,-85.377 L 120.595,-82.9111 L 116.542,-82.9111 L 116.542,-81.0963 L 121.555,-81.0963 L 121.555,-78.4434
 z
M 130.23,-78.4434 L 130.23,-89.5518 L 133.64,-89.5518 L 133.64,-81.1696 L 138.018,-81.1696 L 138.018,-78.4434
 z
M 146.531,-78.4434 L 146.531,-89.5518 L 154.888,-89.5518 L 154.888,-86.9883 L 149.875,-86.9883 L 149.875,-85.377
 L 153.928,-85.377 L 153.928,-82.9111 L 149.875,-82.9111 L 149.875,-81.0963 L 154.888,-81.0963 L 154.888,-78.4434
 z
M 165.419,-78.4434 L 161.822,-89.5518 L 165.419,-89.5518 L 167.169,-83.497 L 167.22,-83.3441 L 167.269,-83.1919
 L 167.317,-83.0405 L 167.362,-82.8897 L 167.405,-82.7393 L 167.447,-82.5891 L 167.486,-82.4391 L 169.537,-89.5518
 L 172.345,-89.5518 L 168.894,-78.4434 z
M 179.864,-78.4434 L 179.864,-89.5518 L 188.222,-89.5518 L 188.222,-86.9883 L 183.209,-86.9883 L 183.209,-85.377
 L 187.262,-85.377 L 187.262,-82.9111 L 183.209,-82.9111 L 183.209,-81.0963 L 188.222,-81.0963 L 188.222,-78.4434
 z
M 195.668,-78.4434 L 195.668,-89.5518 L 198.891,-89.5518 L 201.479,-85.4828 L 201.691,-85.143 L 201.888,-84.8145
 L 202.071,-84.4975 L 202.238,-84.1924 L 202.391,-83.8993 L 202.528,-83.6186 L 202.651,-83.3506 L 202.582,-83.7597
 L 202.524,-84.1709 L 202.476,-84.5844 L 202.439,-85.0003 L 202.412,-85.4188 L 202.396,-85.84 L 202.39,-86.264
 L 202.39,-89.5518 L 205.165,-89.5518 L 205.165,-78.4434 L 202.39,-78.4434 L 199.347,-83.3506 L 199.179,-83.6276
 L 199.012,-83.9216 L 198.844,-84.2325 L 198.675,-84.5603 L 198.507,-84.9051 L 198.337,-85.2668 L 198.167,-85.6455
 L 198.238,-85.3451 L 198.298,-85.0578 L 198.347,-84.7837 L 198.386,-84.523 L 198.413,-84.2758 L 198.43,-84.0423
 L 198.435,-83.8226 L 198.435,-78.4434 z
M 213.564,-78.4434 L 213.564,-89.5518 L 216.974,-89.5518 L 216.974,-81.1696 L 221.352,-81.1696 L 221.352,-78.4434
 z
M 229.864,-78.4434 L 229.864,-89.5518 L 238.222,-89.5518 L 238.222,-86.9883 L 233.209,-86.9883 L 233.209,-85.377
 L 237.262,-85.377 L 237.262,-82.9111 L 233.209,-82.9111 L 233.209,-81.0963 L 238.222,-81.0963 L 238.222,-78.4434
 z
M 244.378,-78.4434 L 244.378,-89.5518 L 248.83,-89.5518 L 250.441,-83.6517 L 251.979,-89.5518 L 256.455,-89.5518
 L 256.455,-78.4434 L 253.29,-78.4434 L 253.29,-86.3861 L 251.231,-78.4434 L 249.066,-78.4434 L 246.934,-86.3861
 L 246.934,-78.4434 z
M 48.801,-61.7767 L 48.801,-70.2239 L 46.498,-70.2239 L 46.498,-72.8851 L 54.3349,-72.8851 L 54.3349,-70.2239
 L 52.0318,-70.2239 L 52.0318,-61.7767 z
M 62.652,-61.7767 L 59.6978,-72.8851 L 62.9042,-72.8851 L 64.4586,-66.4804 L 65.9722,-72.8851 L 68.6578,-72.8851
 L 70.3017,-66.4804 L 71.8561,-72.8851 L 74.4684,-72.8851 L 71.5224,-61.7767 L 68.6578,-61.7767 L 67.1035,-67.9046
 L 65.6387,-61.7767 z
M 79.8639,-61.7767 L 79.8639,-72.8851 L 88.2216,-72.8851 L 88.2216,-70.3216 L 83.2087,-70.3216 L 83.2087,-68.7103
 L 87.2614,-68.7103 L 87.2614,-66.2444 L 83.2087,-66.2444 L 83.2087,-64.4296 L 88.2216,-64.4296 L 88.2216,-61.7767
 z
M 96.8968,-61.7767 L 96.8968,-72.8851 L 100.307,-72.8851 L 100.307,-64.5029 L 104.685,-64.5029 L 104.685,-61.7767
 z
M 115.419,-61.7767 L 111.822,-72.8851 L 115.419,-72.8851 L 117.169,-66.8303 L 117.22,-66.6774 L 117.269,-66.5252
 L 117.317,-66.3738 L 117.362,-66.223 L 117.405,-66.0726 L 117.447,-65.9224 L 117.486,-65.7724 L 119.537,-72.8851
 L 122.344,-72.8851 L 118.894,-61.7767 z
M 129.864,-61.7767 L 129.864,-72.8851 L 138.222,-72.8851 L 138.222,-70.3216 L 133.209,-70.3216 L 133.209,-68.7103
 L 137.262,-68.7103 L 137.262,-66.2444 L 133.209,-66.2444 L 133.209,-64.4296 L 138.222,-64.4296 L 138.222,-61.7767
 z
M 144.818,-61.7767 L 148.398,-67.5303 L 144.964,-72.8851 L 148.935,-72.8851 L 150.661,-69.8984 L 152.451,-72.8851
 L 155.511,-72.8851 L 152.288,-67.7255 L 156.024,-61.7767 L 152.061,-61.7767 L 150.01,-65.2678 L 147.943,-61.7767
 z
M 165.468,-61.7767 L 165.468,-70.2239 L 163.165,-70.2239 L 163.165,-72.8851 L 171.002,-72.8851 L 171.002,-70.2239
 L 168.699,-70.2239 L 168.699,-61.7767 z
M 179.042,-61.7767 L 179.042,-72.8851 L 182.452,-72.8851 L 182.452,-68.7998 L 185.056,-68.7998 L 185.056,-72.8851
 L 188.466,-72.8851 L 188.466,-61.7767 L 185.056,-61.7767 L 185.056,-66.098 L 182.452,-66.098 L 182.452,-61.7767
 z
M 198.712,-61.7767 L 198.712,-72.8851 L 202.122,-72.8851 L 202.122,-61.7767 z
M 212.319,-61.7767 L 212.319,-72.8851 L 218.121,-72.8851 L 219.131,-72.8137 L 220.014,-72.6009 L 220.759,-72.2489
 L 221.355,-71.7599 L 221.794,-71.1358 L 222.065,-70.379 L 222.157,-69.4915 L 222.111,-68.9001 L 221.97,-68.3607
 L 221.736,-67.8734 L 221.408,-67.4383 L 220.987,-67.0556 L 220.471,-66.7254 L 219.863,-66.4479 L 222.312,-61.7767
 L 219.09,-61.7767 L 217.356,-66.0247 L 216.713,-66.0247 L 216.713,-68.401 L 216.957,-68.401 L 217.408,-68.4204
 L 217.783,-68.48 L 218.086,-68.5823 L 218.318,-68.7298 L 218.481,-68.9248 L 218.578,-69.1698 L 218.609,-69.4671
 L 218.594,-69.6923 L 218.536,-69.9082 L 218.422,-70.1056 L 218.234,-70.2752 L 217.956,-70.4078 L 217.574,-70.4942
 L 217.071,-70.525 L 215.728,-70.525 L 215.728,-61.7767 z
M 232.135,-61.7767 L 232.135,-70.2239 L 229.832,-70.2239 L 229.832,-72.8851 L 237.669,-72.8851 L 237.669,-70.2239
 L 235.365,-70.2239 L 235.365,-61.7767 z
M 248.891,-61.7767 L 248.891,-66.4804 L 245.156,-72.8851 L 248.891,-72.8851 L 250.836,-69.2311 L 252.7,-72.8851
 L 255.678,-72.8851 L 252.203,-66.4804 L 252.203,-61.7767 z
M 132.801,-45.0704 L 131.71,-45.4444 L 130.777,-46.0524 L 130.02,-46.882 L 129.457,-47.9205 L 129.106,-49.1555
 L 128.985,-50.5744 L 129.097,-51.9935 L 129.425,-53.2512 L 129.96,-54.3269 L 130.693,-55.1997 L 131.614,-55.8488
 L 132.713,-56.2536 L 133.982,-56.3931 L 135.158,-56.2874 L 136.168,-55.9802 L 137.012,-55.486 L 137.689,-54.8196
 L 138.198,-53.9956 L 138.538,-53.0287 L 138.71,-51.9335 L 135.528,-51.7625 L 135.489,-52.3482 L 135.379,-52.8317
 L 135.208,-53.2174 L 134.984,-53.5097 L 134.718,-53.713 L 134.419,-53.8317 L 134.096,-53.8703 L 133.668,-53.8041
 L 133.307,-53.6054 L 133.011,-53.2746 L 132.781,-52.8116 L 132.616,-52.2166 L 132.517,-51.4898 L 132.485,-50.6314
 L 132.493,-50.1356 L 132.519,-49.6877 L 132.561,-49.2876 L 132.622,-48.9354 L 132.699,-48.6309 L 132.795,-48.3743
 L 132.908,-48.1655 L 133.033,-47.9937 L 133.173,-47.8479 L 133.326,-47.7282 L 133.494,-47.635 L 133.675,-47.5681
 L 133.87,-47.528 L 134.08,-47.5145 L 134.442,-47.5519 L 134.756,-47.6642 L 135.021,-47.8515 L 135.237,-48.1139
 L 135.405,-48.4517 L 135.523,-48.8649 L 135.593,-49.3538 L 138.71,-49.1666 L 138.49,-48.0742 L 138.093,-47.137
 L 137.535,-46.3596 L 136.832,-45.7469 L 136.003,-45.3034 L 135.064,-45.0338 L 134.031,-44.9429 z
M 182.801,-45.0704 L 181.71,-45.4444 L 180.777,-46.0524 L 180.02,-46.882 L 179.457,-47.9205 L 179.106,-49.1555
 L 178.985,-50.5744 L 179.097,-51.9935 L 179.425,-53.2512 L 179.96,-54.3269 L 180.693,-55.1997 L 181.614,-55.8488
 L 182.714,-56.2536 L 183.982,-56.3931 L 185.158,-56.2874 L 186.169,-55.9802 L 187.012,-55.486 L 187.689,-54.8196
 L 188.198,-53.9956 L 188.538,-53.0287 L 188.71,-51.9335 L 185.528,-51.7625 L 185.489,-52.3482 L 185.379,-52.8317
 L 185.208,-53.2174 L 184.984,-53.5097 L 184.718,-53.713 L 184.419,-53.8317 L 184.096,-53.8703 L 183.668,-53.8041
 L 183.307,-53.6054 L 183.011,-53.2746 L 182.781,-52.8116 L 182.616,-52.2166 L 182.518,-51.4898 L 182.485,-50.6314
 L 182.493,-50.1356 L 182.519,-49.6877 L 182.562,-49.2876 L 182.622,-48.9354 L 182.699,-48.6309 L 182.795,-48.3743
 L 182.908,-48.1655 L 183.033,-47.9937 L 183.173,-47.8479 L 183.326,-47.7282 L 183.494,-47.635 L 183.675,-47.5681
 L 183.87,-47.528 L 184.08,-47.5145 L 184.442,-47.5519 L 184.756,-47.6642 L 185.021,-47.8515 L 185.238,-48.1139
 L 185.405,-48.4517 L 185.524,-48.8649 L 185.593,-49.3538 L 188.71,-49.1666 L 188.49,-48.0742 L 188.093,-47.137
 L 187.535,-46.3596 L 186.833,-45.7469 L 186.003,-45.3034 L 185.064,-45.0338 L 184.031,-44.9429 z
M 98.8512,-45.1645 L 97.8034,-45.5986 L 96.9049,-46.2454 L 96.1741,-47.0897 L 95.6294,-48.1162 L 95.289,-49.3097
 L 95.1715,-50.6549 L 95.2801,-51.9545 L 95.5995,-53.1315 L 96.1203,-54.1631 L 96.8331,-55.0262 L 97.7286,-55.698
 L 98.7974,-56.1555 L 100.03,-56.3759 L 100.03,-53.788 L 99.7156,-53.6146 L 99.4492,-53.3456 L 99.2309,-52.9809
 L 99.0609,-52.5205 L 98.9393,-51.9645 L 98.8662,-51.3128 L 98.8419,-50.5654 L 98.8662,-49.8519 L 98.9393,-49.2319
 L 99.0609,-48.7053 L 99.2309,-48.2719 L 99.4492,-47.9317 L 99.7156,-47.6844 L 100.03,-47.5299 L 100.03,-44.9583
 z
M 101.015,-47.5624 L 101.136,-47.6177 L 101.25,-47.686 L 101.355,-47.7672 L 101.453,-47.8614 L 101.543,-47.9685
 L 101.625,-48.0886 L 101.698,-48.2216 L 101.798,-48.4602 L 101.883,-48.7505 L 101.952,-49.0924 L 102.005,-49.4857
 L 102.043,-49.9302 L 102.065,-50.4258 L 102.073,-50.9723 L 102.051,-51.6156 L 101.987,-52.1781 L 101.879,-52.6599
 L 101.728,-53.061 L 101.534,-53.3813 L 101.296,-53.6209 L 101.015,-53.7798 L 101.015,-56.3759 L 102.163,-56.1606
 L 103.183,-55.7264 L 104.058,-55.0879 L 104.769,-54.2592 L 105.298,-53.255 L 105.629,-52.0894 L 105.743,-50.777
 L 105.628,-49.4254 L 105.297,-48.2207 L 104.766,-47.1789 L 104.054,-46.3164 L 103.18,-45.6493 L 102.161,-45.1939
 L 101.015,-44.9664 z
M 165.518,-45.1645 L 164.47,-45.5986 L 163.572,-46.2454 L 162.841,-47.0897 L 162.296,-48.1162 L 161.956,-49.3097
 L 161.838,-50.6549 L 161.947,-51.9545 L 162.266,-53.1315 L 162.787,-54.1631 L 163.5,-55.0262 L 164.395,-55.698
 L 165.464,-56.1555 L 166.697,-56.3759 L 166.697,-53.788 L 166.382,-53.6146 L 166.116,-53.3456 L 165.898,-52.9809
 L 165.728,-52.5205 L 165.606,-51.9645 L 165.533,-51.3128 L 165.509,-50.5654 L 165.533,-49.8519 L 165.606,-49.2319
 L 165.728,-48.7053 L 165.898,-48.2719 L 166.116,-47.9317 L 166.382,-47.6844 L 166.697,-47.5299 L 166.697,-44.9583
 z
M 167.681,-47.5624 L 167.803,-47.6177 L 167.917,-47.686 L 168.022,-47.7672 L 168.12,-47.8614 L 168.21,-47.9685
 L 168.291,-48.0886 L 168.365,-48.2216 L 168.465,-48.4602 L 168.55,-48.7505 L 168.618,-49.0924 L 168.672,-49.4857
 L 168.709,-49.9302 L 168.732,-50.4258 L 168.739,-50.9723 L 168.718,-51.6156 L 168.654,-52.1781 L 168.546,-52.6599
 L 168.395,-53.061 L 168.201,-53.3813 L 167.963,-53.6209 L 167.681,-53.7798 L 167.681,-56.3759 L 168.83,-56.1606
 L 169.85,-55.7264 L 170.725,-55.0879 L 171.435,-54.2592 L 171.965,-53.255 L 172.296,-52.0894 L 172.41,-50.777
 L 172.295,-49.4254 L 171.963,-48.2207 L 171.433,-47.1789 L 170.721,-46.3164 L 169.847,-45.6493 L 168.827,-45.1939
 L 167.681,-44.9664 z
M 146.897,-45.11 L 146.897,-56.2184 L 150.307,-56.2184 L 150.307,-47.8362 L 154.685,-47.8362 L 154.685,-45.11
 z
M 195.92,-45.11 L 195.92,-56.2184 L 199.135,-56.2184 L 199.135,-51.6285 L 202.203,-56.2184 L 205.263,-56.2184
 L 202.455,-52.1574 L 205.938,-45.11 L 202.203,-45.11 L 200.282,-49.3093 L 199.135,-47.6734 L 199.135,-45.11
 z
M 48.207,-48.4558 L 48.207,-52.8747 L 52.626,-52.8747 L 52.626,-48.4558 z
M 64.8736,-48.4558 L 64.8736,-52.8747 L 69.2926,-52.8747 L 69.2926,-48.4558 z
M 81.5403,-48.4558 L 81.5403,-52.8747 L 85.9593,-52.8747 L 85.9593,-48.4558 z
M 114.874,-48.4558 L 114.874,-52.8747 L 119.293,-52.8747 L 119.293,-48.4558 z
M 214.874,-48.4558 L 214.874,-52.8747 L 219.293,-52.8747 L 219.293,-48.4558 z
M 231.541,-48.4558 L 231.541,-52.8747 L 235.96,-52.8747 L 235.96,-48.4558 z
M 248.207,-48.4558 L 248.207,-52.8747 L 252.626,-52.8747 L 252.626,-48.4558 z
M 26.0729,-24.1468 L 25.2366,-24.5729 L 24.5729,-25.2366 L 24.1468,-26.0729 L 24,-27 L 24.1468,-27.9271
 L 24.5729,-28.7634 L 25.2366,-29.4271 L 26.0729,-29.8532 L 27,-30 L 27.9271,-29.8532 L 28.7634,-29.4271
 L 29.4271,-28.7634 L 29.8532,-27.9271 L 30,-27 L 29.8532,-26.0729 L 29.4271,-25.2366 L 28.7634,-24.5729
 L 27.9271,-24.1468 L 27,-24 z
M 272.073,-24.1468 L 271.237,-24.5729 L 270.573,-25.2366 L 270.147,-26.0729 L 270,-27 L 270.147,-27.9271
 L 270.573,-28.7634 L 271.237,-29.4271 L 272.073,-29.8532 L 273,-30 L 273.927,-29.8532 L 274.763,-29.4271
 L 275.427,-28.7634 L 275.853,-27.9271 L 276,-27 L 275.853,-26.0729 L 275.427,-25.2366 L 274.763,-24.5729
 L 273.927,-24.1468 L 273,-24 z
" stroke="#000000" fill="none" stroke-width="0.25"/>
</svg>
